<svg width="64" height="33" viewBox="0 0 64 33" fill="none" xmlns="http://www.w3.org/2000/svg">
<g clip-path="url(#clip0_289_1711)">
<path d="M15.0547 13.0936L17.8635 12.7564C17.9566 13.4723 18.1945 14.0222 18.5877 14.4009C18.9808 14.7848 19.4567 14.9716 20.0102 14.9716C20.6102 14.9716 21.112 14.7433 21.5258 14.2868C21.9344 13.8303 22.1413 13.2181 22.1413 12.4451C22.1413 11.7137 21.9448 11.1326 21.5516 10.7072C21.1585 10.2766 20.6826 10.0639 20.1188 10.0639C19.7464 10.0639 19.3067 10.1366 18.7842 10.2818L19.1049 7.91099C19.8912 7.92655 20.4912 7.76054 20.905 7.3974C21.3189 7.03425 21.5258 6.55178 21.5258 5.95C21.5258 5.4364 21.3758 5.03175 21.0706 4.72567C20.7654 4.41959 20.3619 4.26914 19.8602 4.26914C19.3584 4.26914 18.9394 4.44034 18.5928 4.78793C18.2411 5.13032 18.0238 5.63873 17.9514 6.29758L15.2771 5.84624C15.4633 4.928 15.7427 4.19133 16.1203 3.64142C16.4927 3.09151 17.0203 2.66092 17.6876 2.34447C18.3601 2.02801 19.1101 1.87238 19.9429 1.87238C21.3706 1.87238 22.5138 2.3289 23.3724 3.24196C24.0811 3.989 24.438 4.82943 24.438 5.76842C24.438 7.10169 23.7138 8.16519 22.2603 8.95893C23.1293 9.14569 23.8173 9.5659 24.3397 10.2144C24.857 10.8629 25.1208 11.6462 25.1208 12.5645C25.1208 13.8977 24.6346 15.0339 23.6621 15.9728C22.6948 16.9118 21.4844 17.3787 20.036 17.3787C18.5877 17.3787 17.5273 16.9845 16.6272 16.1959C15.722 15.4022 15.2047 14.3698 15.0599 13.0884L15.0547 13.0936ZM36.7595 5.65429L33.9507 5.96556C33.8834 5.38452 33.7024 4.95912 33.4127 4.67898C33.123 4.40403 32.7454 4.26396 32.285 4.26396C31.6747 4.26396 31.1574 4.53891 30.7281 5.09401C30.3039 5.64392 30.0401 6.79561 29.9263 8.5439C30.6505 7.68791 31.5505 7.26251 32.6264 7.26251C33.8369 7.26251 34.8766 7.72423 35.7404 8.65285C36.6043 9.57628 37.0388 10.7695 37.0388 12.2376C37.0388 13.794 36.5836 15.039 35.6732 15.978C34.768 16.917 33.5938 17.3839 32.1712 17.3839C30.6453 17.3839 29.3831 16.7873 28.4003 15.5993C27.4175 14.4061 26.9209 12.4555 26.9209 9.7371C26.9209 7.01869 27.433 4.94875 28.4572 3.71924C29.4814 2.48972 30.816 1.87238 32.4557 1.87238C33.6041 1.87238 34.5559 2.19921 35.3111 2.8425C36.0663 3.49097 36.5474 4.42478 36.7543 5.65948L36.7595 5.65429ZM30.1797 12.0094C30.1797 12.9535 30.397 13.685 30.8263 14.1986C31.2608 14.7174 31.7574 14.9716 32.3161 14.9716C32.8747 14.9716 33.2989 14.7589 33.661 14.3387C34.0231 13.9185 34.199 13.2233 34.199 12.2636C34.199 11.3038 34.0076 10.5516 33.6196 10.0899C33.2368 9.62815 32.7506 9.39989 32.1712 9.39989C31.5919 9.39989 31.1419 9.61778 30.7591 10.0587C30.3711 10.4997 30.1797 11.1482 30.1797 12.0042V12.0094ZM43.603 1.87238C45.072 1.87238 46.2204 2.40153 47.0428 3.44947C48.0257 4.68936 48.5222 6.75411 48.5222 9.63334C48.5222 12.5126 48.0257 14.5721 47.0325 15.8276C46.2152 16.8652 45.072 17.3787 43.603 17.3787C42.1339 17.3787 40.9442 16.8133 40.039 15.672C39.1337 14.5358 38.6837 12.5074 38.6837 9.59703C38.6837 6.68667 39.1803 4.67898 40.1735 3.42353C40.9908 2.38597 42.1339 1.86719 43.603 1.86719V1.87238ZM43.603 4.2899C43.2564 4.2899 42.9409 4.40403 42.6667 4.6271C42.3926 4.85537 42.1753 5.25483 42.0253 5.83586C41.8287 6.5881 41.7253 7.85392 41.7253 9.63853C41.7253 11.4231 41.8184 12.6423 41.9943 13.3115C42.1753 13.9807 42.3977 14.4217 42.6719 14.6448C42.946 14.8627 43.2564 14.9768 43.6082 14.9768C43.9599 14.9768 44.2754 14.8627 44.5496 14.6396C44.8237 14.4165 45.041 14.0119 45.191 13.4308C45.3876 12.6838 45.491 11.4231 45.491 9.63853C45.491 7.85392 45.3979 6.6296 45.222 5.96556C45.041 5.30152 44.8186 4.85537 44.5444 4.6271C44.2703 4.40403 43.9599 4.2899 43.6082 4.2899H43.603Z" fill="url(#paint0_linear_289_1711)"/>
<path fill-rule="evenodd" clip-rule="evenodd" d="M52.371 0.945312C53.5246 0.945312 54.4608 1.88431 54.4608 3.04119C54.4608 4.19807 53.5246 5.13706 52.371 5.13706C51.2175 5.13706 50.2812 4.19807 50.2812 3.04119C50.2812 1.88431 51.2175 0.945312 52.371 0.945312ZM52.371 1.92581C51.7555 1.92581 51.2537 2.42903 51.2537 3.04638C51.2537 3.66373 51.7555 4.16694 52.371 4.16694C52.9866 4.16694 53.4883 3.66373 53.4883 3.04638C53.4883 2.42903 52.9866 1.92581 52.371 1.92581Z" fill="url(#paint1_linear_289_1711)"/>
<path fill-rule="evenodd" clip-rule="evenodd" d="M52.0817 10.4896C59.1011 12.5076 63.5703 15.5529 63.5703 18.9561C63.5703 24.8442 50.2091 29.6533 33.4185 29.9439L39.3206 26.5147L33.3667 23.0493C45.7968 22.7691 55.6302 19.1895 55.6302 14.8162C55.6302 13.2287 54.3318 11.745 52.0868 10.4844L52.0817 10.4896ZM27.3457 29.8557C11.8999 29.1034 0.0078125 24.5122 0.0078125 18.9561C0.0078125 15.5529 4.47705 12.5076 11.4964 10.4896C9.25148 11.7502 7.95312 13.2339 7.95312 14.8214C7.95312 18.8523 16.3071 22.2088 27.3457 22.9299V29.8557Z" fill="url(#paint2_linear_289_1711)"/>
<path fill-rule="evenodd" clip-rule="evenodd" d="M24.8281 21.0234L34.289 26.5225L24.8281 32.0268V21.0234Z" fill="url(#paint3_linear_289_1711)"/>
</g>
<defs>
<linearGradient id="paint0_linear_289_1711" x1="15.0547" y1="11.5108" x2="48.4066" y2="7.20662" gradientUnits="userSpaceOnUse">
<stop stop-color="#0B3F23"/>
<stop offset="1" stop-color="#009B48"/>
</linearGradient>
<linearGradient id="paint1_linear_289_1711" x1="50.2813" y1="3.55047" x2="54.5007" y2="3.29874" gradientUnits="userSpaceOnUse">
<stop stop-color="#0B3F23"/>
<stop offset="1" stop-color="#009B48"/>
</linearGradient>
<linearGradient id="paint2_linear_289_1711" x1="0.00781277" y1="22.5784" x2="62.0363" y2="10.4555" gradientUnits="userSpaceOnUse">
<stop stop-color="#0B3F23"/>
<stop offset="1" stop-color="#009B48"/>
</linearGradient>
<linearGradient id="paint3_linear_289_1711" x1="24.8281" y1="27.862" x2="34.3881" y2="27.3701" gradientUnits="userSpaceOnUse">
<stop stop-color="#0B3F23"/>
<stop offset="1" stop-color="#009B48"/>
</linearGradient>
<clipPath id="clip0_289_1711">
<rect width="63.5625" height="31.075" fill="white" transform="translate(0.0078125 0.960938)"/>
</clipPath>
</defs>
</svg>
