<svg width="31" height="31" viewBox="0 0 31 31" fill="none" xmlns="http://www.w3.org/2000/svg">
<path fill-rule="evenodd" clip-rule="evenodd" d="M11.2853 10.8032C10.8029 10.3208 10.0208 10.3208 9.53836 10.8032L5.83251 14.5091L5.72975 14.6254C5.35296 15.11 5.38721 15.8107 5.83251 16.256L9.53836 19.9619L9.65473 20.0646C10.1393 20.4414 10.84 20.4072 11.2853 19.9619L11.3881 19.8455C11.7649 19.3609 11.7306 18.6602 11.2853 18.2149L9.68877 16.6178H22.7647L22.9087 16.6095C23.5231 16.5382 23.9999 16.016 23.9999 15.3825C23.9999 14.7003 23.4469 14.1473 22.7647 14.1473H9.68877L11.2853 12.5502L11.3881 12.4338C11.7649 11.9492 11.7306 11.2485 11.2853 10.8032Z" fill="#4F5359"/>
</svg>
