<svg width="239" height="119" viewBox="0 0 239 119" fill="none" xmlns="http://www.w3.org/2000/svg">
<path fill-rule="evenodd" clip-rule="evenodd" d="M217.27 113.734C215.427 113.734 214.149 112.303 214.149 110.532C214.149 108.761 215.427 107.33 217.27 107.33C219.109 107.33 220.369 108.722 220.369 110.532C220.369 112.342 219.112 113.734 217.27 113.734ZM217.27 104.925C213.89 104.925 211.356 107.284 211.356 110.532C211.356 113.777 213.89 116.136 217.27 116.136C220.607 116.136 223.162 113.777 223.162 110.532C223.162 107.288 220.607 104.925 217.27 104.925ZM198.332 115.859H201.083V111.563H206.326V115.859H209.077V105.198H206.326V109.264H201.083V105.198H198.332V115.859ZM185.524 118.998V115.859H194.232V118.998H196.681V113.564H194.775V105.198H186.067L185.613 108.889C185.332 111.333 184.899 112.679 184.271 113.564H183.082V118.998H185.527H185.524ZM192.02 113.564H186.93C187.515 112.658 187.817 111.414 188.098 109.034L188.293 107.497H192.017V113.564H192.02ZM176.483 113.731C174.644 113.731 173.366 112.3 173.366 110.529C173.366 108.758 174.644 107.327 176.483 107.327C178.325 107.327 179.582 108.719 179.582 110.529C179.582 112.339 178.325 113.731 176.483 113.731ZM176.483 104.922C173.103 104.922 170.572 107.281 170.572 110.529C170.572 113.773 173.107 116.132 176.483 116.132C179.819 116.132 182.375 113.773 182.375 110.529C182.375 107.284 179.819 104.922 176.483 104.922ZM161.403 115.856H164.154V107.493H169.894V105.195H161.403V115.856ZM155.677 115.856H158.45V105.195H155.677V115.856ZM149.245 110.695C150.544 110.695 151.215 111.244 151.215 112.147C151.215 113.178 150.566 113.685 149.245 113.685H146.167V110.692H149.245V110.695ZM146.167 108.503V105.195H143.416V115.856H149.678C152.773 115.856 154.034 114.085 154.034 112.147C154.034 110.083 152.777 108.503 149.657 108.503H146.171H146.167ZM136.544 111.432C137.694 111.432 138.191 111.896 138.191 112.548C138.191 113.391 137.651 113.812 136.544 113.812H133.253V111.432H136.544ZM136.437 107.242C137.367 107.242 137.953 107.621 137.953 108.315C137.953 109.137 137.325 109.473 136.437 109.473H133.253V107.242H136.437ZM130.502 115.859H136.913C139.49 115.859 141.006 114.637 141.006 112.781C141.006 111.372 140.03 110.614 139.014 110.338C139.838 110.104 140.683 109.307 140.683 108.021C140.683 106.165 139.103 105.198 136.87 105.198H130.502V115.859ZM110.936 115.859H113.665L119.168 108.698V115.859H121.919V105.198H119.168L113.665 112.342V105.198H110.936V115.859Z" fill="#0F1722"/>
<path fill-rule="evenodd" clip-rule="evenodd" d="M95.529 113.722C93.6902 113.722 92.4087 112.291 92.4087 110.52C92.4087 108.749 93.6866 107.318 95.529 107.318C97.3713 107.318 98.6244 108.71 98.6244 110.52C98.6244 112.33 97.3678 113.722 95.529 113.722ZM95.529 104.916C92.1496 104.916 89.6186 107.275 89.6186 110.52C89.6186 113.764 92.1531 116.123 95.529 116.123C98.8658 116.123 101.422 113.764 101.422 110.52C101.422 107.275 98.8658 104.916 95.529 104.916ZM76.5908 115.85H79.3419V111.551H84.5849V115.85H87.336V105.189H84.5849V109.255H79.3419V105.189H76.5908V115.85ZM64.5641 115.85H67.2087V111.193L71.756 115.85H75.3732L69.9562 110.307L75.0466 105.186H71.5394L67.2087 109.571V105.186H64.5641V109.588L60.212 105.186H56.68L61.8343 110.371L56.4634 115.847H59.9955L64.5641 111.172V115.847V115.85ZM51.3233 103.482H54.0709V100.344H51.3233V103.482ZM46.7973 103.482H49.5484V100.344H46.7973V103.482ZM50.4359 106.999C51.8452 106.999 52.8604 107.757 53.2757 109.107H47.557C47.9049 107.778 48.9414 106.999 50.4359 106.999ZM50.4359 104.913C47.0813 104.913 44.6959 107.208 44.6959 110.516C44.6959 113.718 47.0991 116.12 50.6524 116.12C54.3762 116.12 55.8742 113.824 56.0446 112.726H53.3148C53.1195 113.02 52.406 113.885 50.6524 113.885C48.8314 113.885 47.5783 112.62 47.4683 110.955H56.1759V110.661C56.1759 107.187 53.8153 104.909 50.4359 104.909V104.913ZM32.8431 118.985V115.847H41.5507V118.985H44.0001V113.552H42.0939V105.186H33.3862L32.9318 108.873C32.6479 111.317 32.2148 112.663 31.5865 113.552H30.3973V118.985H32.8466H32.8431ZM39.3392 113.552H34.2488C34.831 112.645 35.1363 111.402 35.4167 109.022L35.6119 107.484H39.3357V113.552H39.3392ZM26.2511 110.516C26.2511 112.326 25.0584 113.718 23.2622 113.718C21.3985 113.718 20.1881 112.326 20.1881 110.516C20.1881 108.703 21.4021 107.314 23.2622 107.314C25.0584 107.314 26.2511 108.706 26.2511 110.516ZM26.2263 115.847H28.9774V105.186H26.205V106.787C25.9671 106.344 24.8631 104.952 22.5451 104.952C19.7088 104.952 17.3695 107.059 17.3695 110.513C17.3695 113.987 19.7088 116.074 22.5238 116.074C24.9483 116.074 26.0133 114.579 26.2263 114.154V115.84V115.847ZM11.8389 115.847H14.764V100.886H11.8389V107.059H3.39397V100.886H0.490234V115.847H3.39397V109.588H11.8389V115.847Z" fill="#0F1722"/>
<path fill-rule="evenodd" clip-rule="evenodd" d="M225.602 105.777H227.604V110.396H228.995V105.777H230.997V104.559H225.602V105.777ZM234.086 104.559H231.995V110.396H233.287V106.089L234.753 110.396H235.683L237.156 106.046V110.396H238.509V104.559H236.499L235.296 108.118L234.086 104.559Z" fill="#0F1722"/>
<path fill-rule="evenodd" clip-rule="evenodd" d="M54.9825 69.3658V50.14C54.9825 39.5956 46.2854 30.9142 35.7177 30.9142C25.1464 30.9142 16.46 39.5956 16.46 50.14C16.46 60.688 25.1464 69.3658 35.7177 69.3658H54.9825ZM142.236 64.8073C139.911 60.2771 138.694 55.2652 138.694 50.14C138.694 32.3168 153.301 17.7346 171.167 17.7346C191.142 17.7346 206.488 35.7773 203.204 55.4423L202.988 56.7351H153.085C155.85 64.2228 163.084 69.3658 171.164 69.3658H207.177V0H220.382V82.5454H170.997C165.158 82.5454 159.503 80.9338 154.547 77.9586C154.121 77.6858 153.706 77.4025 153.291 77.112C148.005 80.6257 141.715 82.5454 135.35 82.5454H135.126C117.278 82.5454 102.706 67.9348 102.706 50.14V30.978C92.8198 31.7785 84.9995 40.1552 84.9995 50.14V82.5454H71.7872V50.14C71.7872 32.8765 85.5178 18.5847 102.706 17.7736V0H115.922V17.7346H133.419V30.9142H115.922V50.14C115.922 60.6915 124.612 69.3658 135.187 69.3658C138.147 69.3658 141.133 68.6822 143.798 67.3823C143.241 66.5464 142.719 65.6892 142.229 64.8073H142.236ZM189.254 43.5519C186.485 36.0572 179.257 30.9142 171.167 30.9142C163.081 30.9142 155.85 36.0607 153.085 43.5519H189.254ZM68.1913 82.5454H35.6538C17.8054 82.5454 3.24414 67.9348 3.24414 50.14C3.24414 32.3133 17.848 17.7346 35.7141 17.7346C53.5803 17.7346 68.1913 32.3133 68.1913 50.14V82.5454Z" fill="url(#paint0_linear_1767_2563)"/>
<defs>
<linearGradient id="paint0_linear_1767_2563" x1="3.24414" y1="2.34356" x2="224.702" y2="67.9648" gradientUnits="userSpaceOnUse">
<stop offset="0.0154459" stop-color="#006C41"/>
<stop offset="0.505585" stop-color="#057D45"/>
<stop offset="1" stop-color="#14A167"/>
</linearGradient>
</defs>
</svg>
