<svg width="30" height="31" viewBox="0 0 30 31" fill="none" xmlns="http://www.w3.org/2000/svg">
<path fill-rule="evenodd" clip-rule="evenodd" d="M2.5 10.5C2.5 7.73858 4.73858 5.5 7.5 5.5H22.5C25.2614 5.5 27.5 7.73858 27.5 10.5V20.5C27.5 23.2614 25.2614 25.5 22.5 25.5H7.5C4.73858 25.5 2.5 23.2614 2.5 20.5V10.5ZM7.5 8C6.11929 8 5 9.11929 5 10.5V20.5C5 21.8807 6.11929 23 7.5 23H22.5C23.8807 23 25 21.8807 25 20.5V10.5C25 9.11929 23.8807 8 22.5 8H7.5Z" fill="#DFDFDF"/>
<path fill-rule="evenodd" clip-rule="evenodd" d="M7.77396 10.9692C8.20522 10.4301 8.99184 10.3427 9.53091 10.774L15 15.1493L20.4692 10.774C21.0083 10.3427 21.7949 10.4301 22.2261 10.9692C22.6574 11.5083 22.57 12.2949 22.0309 12.7261L15 18.3508L7.96918 12.7261C7.4301 12.2949 7.3427 11.5083 7.77396 10.9692Z" fill="#DFDFDF"/>
</svg>
