<svg width="107" height="55" viewBox="0 0 107 55" fill="none" xmlns="http://www.w3.org/2000/svg">
<path fill-rule="evenodd" clip-rule="evenodd" d="M25.7281 18.2305H83.4269C84.2746 18.2305 85.1825 19.1442 84.9682 20.183L81.8132 35.4779C81.5989 36.5167 81.1194 37.4305 80.2719 37.4305H22.5731C21.7255 37.4305 20.8175 36.5169 21.0318 35.4779L24.1868 20.183C24.4012 19.144 24.8804 18.2305 25.7281 18.2305ZM28.0453 34.2096H30.8508L31.6709 30.3457H32.9082L34.2462 34.2096H37.3251L35.7713 29.9082C37.8286 29.1974 38.7926 27.5206 38.7926 25.3882C38.7926 24.3675 38.548 23.4562 38.0157 22.7818C37.3395 21.9252 36.2317 21.4513 34.5484 21.4513H30.7501L28.0453 34.2096ZM32.2464 27.5753L32.9082 24.5133H34.4189C35.0087 24.5133 35.4259 24.6591 35.6562 24.9507C35.8288 25.1876 35.9151 25.461 35.9151 25.8073C35.9151 26.9009 35.0951 27.5753 33.8434 27.5753H32.2464ZM44.3317 34.4466C47.8278 34.4466 50.3312 30.8196 50.3312 26.9374C50.3312 23.6931 48.3889 21.2144 45.5258 21.2144C42.0297 21.2144 39.5263 24.8413 39.5263 28.7236C39.5263 31.9678 41.4686 34.4466 44.3317 34.4466ZM44.5762 31.2752C43.1519 31.2752 42.375 30.0723 42.375 28.4501C42.375 26.5546 43.526 24.3857 45.2812 24.3857C46.7056 24.3857 47.4825 25.5887 47.4825 27.2108C47.4825 29.1063 46.3459 31.2752 44.5762 31.2752ZM52.0001 34.2096H54.8056L55.7696 29.6531L61.395 21.4513H58.0571L55.0214 26.2266L54.0287 21.4513H51.0218L53.0504 29.2704L52.0001 34.2096ZM57.4385 34.2096H60.4742L61.6827 31.9314H65.5673L65.8119 34.2096H68.7469L67.1786 21.3602H64.4451L57.4385 34.2096ZM63.0927 29.1792L64.9774 25.5157L65.3371 29.1792H63.0927ZM69.682 34.2096H77.2929L77.9547 31.1112H73.1494L75.1923 21.4513H72.3869L69.682 34.2096Z" fill="#4F5359"/>
</svg>
