<svg width="198" height="42" viewBox="0 0 198 42" fill="none" xmlns="http://www.w3.org/2000/svg">
<path d="M148.012 5.7664C153.625 5.7664 157.84 6.96368 160.658 9.35808C163.475 11.7525 164.884 15.5312 164.884 20.6949C164.884 25.8874 163.481 29.6803 160.675 32.0749C157.869 34.4691 153.648 35.6661 148.012 35.6661C142.354 35.6661 138.128 34.4691 135.333 32.0749C132.538 29.6803 131.141 25.8874 131.141 20.6949C131.141 15.5312 132.544 11.7525 135.35 9.35808C138.156 6.96368 142.377 5.7664 148.012 5.7664ZM148.012 28.1372C151.242 28.1372 155.918 28.2366 157.259 24.4809C157.955 22.5314 157.955 18.8582 157.259 16.9083C155.935 13.1988 151.215 13.2954 148.012 13.2954C144.812 13.2954 140.09 13.199 138.766 16.9083C138.069 18.8585 138.07 22.5312 138.766 24.4809C140.106 28.2364 144.784 28.1372 148.012 28.1372ZM127.309 28.1041L131.635 35.667H103.758V5.77901H110.899V28.1041H127.309ZM75.059 35.667L79.3714 28.1041H83.7867C84.4771 28.1041 85.1955 28.1041 85.9433 28.1041C86.6907 28.1041 87.3406 28.1335 87.8927 28.1923C87.5704 27.6643 87.1968 26.997 86.7714 26.1911C86.346 25.385 85.9376 24.6304 85.5462 23.927L81.4061 16.144L70.5724 35.667H62.1191L76.9205 9.0642C77.404 8.2146 78.0136 7.45223 78.7495 6.77811C79.4854 6.104 80.417 5.7664 81.5442 5.7664C82.6254 5.7664 83.528 6.08188 84.2525 6.71227C84.977 7.34208 85.5924 8.1264 86.0985 9.0642L100.521 35.667H75.059ZM50.3451 24.8791L61.7859 4.26239L72.6469 0.416534L50.0359 41.0223L28.1542 0.425863L39.3848 4.26222L50.3451 24.8791ZM25.4796 35.667L21.1671 28.1041H16.8999C16.2096 28.1041 15.4911 28.1041 14.7434 28.1041C13.996 28.1041 13.3461 28.1335 12.7939 28.1923C13.1162 27.6643 13.4898 26.997 13.9153 26.1911C14.3407 25.385 14.7491 24.6304 15.1405 23.927L19.2807 16.144L30.1143 35.667H38.5676L23.7661 9.0642C23.2827 8.2146 22.6731 7.45223 21.9371 6.77811C21.2013 6.104 20.2697 5.7664 19.1424 5.7664C18.0614 5.7664 17.1588 6.08188 16.4341 6.71227C15.7096 7.34208 15.0944 8.1264 14.5881 9.0642L0.166016 35.667H25.4796ZM193.617 35.6659C193.13 35.6659 192.65 35.5724 192.176 35.385C191.702 35.1972 191.173 34.7722 190.589 34.1083L175.634 18.1852V35.6659H168.776V11.1755C168.776 10.2234 168.892 9.40106 169.123 8.7092C169.354 8.01677 169.658 7.45408 170.035 7.0217C170.412 6.58875 170.85 6.27142 171.348 6.06943C171.847 5.86774 172.363 5.7664 172.898 5.7664C173.361 5.7664 173.828 5.86042 174.303 6.04818C174.777 6.23576 175.318 6.66082 175.926 7.32398L190.881 23.2478V5.77885H197.775V30.2139C197.775 31.166 197.659 31.9882 197.429 32.6802C197.198 33.3728 196.894 33.9427 196.517 34.3897C196.14 34.8369 195.696 35.1616 195.185 35.3634C194.675 35.5654 194.152 35.6659 193.617 35.6659Z" fill="#2B2A29"/>
</svg>
