<svg width="169" height="51" viewBox="0 0 169 51" fill="none" xmlns="http://www.w3.org/2000/svg">
<path fill-rule="evenodd" clip-rule="evenodd" d="M12.6057 0.741516H164.268C166.496 0.741516 168.883 3.11903 168.319 5.82174L160.026 45.617C159.463 48.3197 158.203 50.6973 155.975 50.6973H4.31264C2.08481 50.6973 -0.301948 48.3204 0.261332 45.617L8.55443 5.82174C9.11774 3.11839 10.3775 0.741516 12.6057 0.741516V0.741516ZM18.6964 42.3171H26.0708L28.2264 32.2636H31.4786L34.9957 42.3171H43.0886L39.0043 31.1255C44.4121 29.2761 46.9458 24.9133 46.9458 19.3649C46.9458 16.7092 46.303 14.3381 44.9038 12.5834C43.1264 10.3546 40.2145 9.12164 35.7898 9.12164H25.8061L18.6964 42.3171V42.3171ZM29.7391 25.0555L31.4786 17.0886H35.4495C37 17.0886 38.0966 17.468 38.7017 18.2267C39.1556 18.8431 39.3824 19.5545 39.3824 20.4555C39.3824 23.3009 37.2269 25.0555 33.9368 25.0555H29.7391ZM61.5055 42.9336C70.6951 42.9336 77.2753 33.4967 77.2753 23.3957C77.2753 14.9546 72.17 8.50518 64.6443 8.50518C55.4548 8.50518 48.8746 17.9421 48.8746 28.0432C48.8746 36.4842 53.9799 42.9336 61.5055 42.9336V42.9336ZM62.1484 34.6821C58.4045 34.6821 56.3624 31.5523 56.3624 27.3317C56.3624 22.3999 59.3877 16.7567 64.0014 16.7567C67.7454 16.7567 69.7875 19.8865 69.7875 24.1071C69.7875 29.0389 66.7999 34.6821 62.1484 34.6821ZM81.6621 42.3171H89.0364L91.5702 30.4617L106.357 9.12164H97.5832L89.6037 21.5462L86.9943 9.12164H79.0905L84.4227 29.4658L81.6621 42.3171V42.3171ZM95.957 42.3171H103.936L107.113 36.3894H117.324L117.967 42.3171H125.681L121.559 8.8846H114.374L95.957 42.3171V42.3171ZM110.819 29.2286L115.773 19.6968L116.719 29.2286H110.819ZM128.139 42.3171H148.145L149.884 34.2554H137.253L142.623 9.12164H135.249L128.139 42.3171V42.3171Z" fill="#2570B6"/>
</svg>
