<svg width="200" height="33" viewBox="0 0 200 33" fill="none" xmlns="http://www.w3.org/2000/svg">
<path fill-rule="evenodd" clip-rule="evenodd" d="M189.131 14.7395V19.1729H192.046V23.5706C192.055 23.9633 192.036 24.3877 191.972 24.7267C191.857 25.5469 191.127 26.9434 189.058 26.9434C187.001 26.943 186.284 25.5469 186.16 24.7267C186.108 24.3877 186.085 23.9636 186.085 23.5709L186.085 9.67944C186.085 9.18822 186.117 8.65013 186.215 8.24296C186.356 7.50302 186.97 6.04347 189.042 6.04347C191.218 6.04314 191.761 7.5819 191.886 8.24296C191.968 8.68186 191.972 9.4156 191.972 9.4156L191.973 11.1022H199.137V10.1059C199.137 10.1059 199.169 9.06457 199.083 8.09349C198.543 2.39267 194.147 0.58931 189.106 0.58931C184.055 0.58931 179.748 2.40991 179.12 8.09349C179.063 8.61328 178.976 9.5496 178.976 10.1059L178.977 22.883C178.977 23.4393 178.993 23.8713 179.09 24.8882C179.558 30.4323 184.055 32.3972 189.086 32.3972C194.147 32.3972 198.614 30.4323 199.089 24.8882C199.173 23.8713 199.182 23.4397 199.194 22.883L199.194 14.7395H189.131ZM139.734 1.40574H132.54V23.8902C132.551 24.283 132.539 24.7228 132.476 25.0463C132.327 25.8008 131.727 27.2531 129.742 27.2531C127.783 27.2531 127.169 25.8011 127.03 25.0463C126.958 24.7228 126.949 24.283 126.958 23.8906L126.958 1.40574H119.767V23.1927C119.758 23.7542 119.798 24.9017 119.829 25.2017C120.326 30.8791 124.513 32.7231 129.742 32.7231C134.983 32.7227 139.167 30.8794 139.673 25.2017C139.713 24.9017 139.765 23.7545 139.733 23.193L139.734 1.40574ZM73.6309 1.40574L70.0425 25.1641L66.4562 1.40574H54.8499L54.2348 31.7992H61.3446L61.5368 3.6638L66.4288 31.7992H73.6422L78.5387 3.6638L78.7309 31.7992H85.8591L85.2233 1.40574H73.6309V1.40574ZM30.6643 1.40574L25.3944 31.7992H33.0789L37.0497 3.6638L40.9248 31.7992H48.5558L43.3088 1.40574H30.6643V1.40574ZM164.877 25.8762L158.178 1.40574H147.622V31.4823H154.605L154.199 6.22951L161.393 31.4823H171.519V1.40574H164.489L164.877 25.8762V25.8762ZM100.284 9.31602C100.157 8.71559 100.194 8.079 100.259 7.74484C100.462 6.77101 101.074 5.71038 102.837 5.71038C104.48 5.71038 105.443 6.80544 105.443 8.44726C105.443 9.00116 105.443 10.3064 105.443 10.3064H112.456V8.18718C112.456 1.63931 106.961 0.609994 102.983 0.609994C97.9716 0.609994 93.8802 2.37478 93.1328 7.30254C92.9352 8.64291 92.8861 9.83377 93.1999 11.3529C94.4183 17.4971 104.43 19.2787 105.883 23.1651C106.139 23.9003 106.066 24.8397 105.934 25.3925C105.717 26.4036 105.08 27.4208 103.193 27.4208C101.424 27.4205 100.357 26.3333 100.357 24.695L100.356 21.7769H92.8065V24.0956C92.8065 30.815 97.7324 32.8419 103.037 32.8419C108.117 32.8419 112.314 30.9865 112.987 25.9589C113.308 23.3604 113.066 21.668 112.937 21.0311C111.761 14.7288 101.091 12.8342 100.284 9.31602V9.31602ZM7.77029 9.24195C7.63295 8.62949 7.66454 7.98288 7.74059 7.64532C7.93535 6.67662 8.5505 5.59739 10.3444 5.59739C12.0084 5.59739 12.9889 6.70209 12.9889 8.35734C12.9889 8.9185 12.9889 10.2386 12.9889 10.2386L20.084 10.2382V8.10314C20.084 1.49222 14.5049 0.438812 10.4831 0.438812C5.42954 0.43844 1.30068 2.23011 0.54561 7.193C0.339571 8.55541 0.303159 9.75488 0.602339 11.2895C1.83431 17.5043 11.9446 19.3007 13.4155 23.232C13.6908 23.9633 13.6076 24.9017 13.4712 25.4766C13.2368 26.4983 12.5952 27.5304 10.6923 27.5304C8.91583 27.53 7.85216 26.4232 7.85216 24.7618L7.84217 21.8378H0.208984V24.1614C0.208984 30.9572 5.20452 33 10.5502 33C15.6901 33 19.9111 31.1285 20.5992 26.0429C20.9415 23.4214 20.6846 21.7142 20.5695 21.0676C19.3685 14.6885 8.5802 12.799 7.77029 9.24195V9.24195Z" fill="#0E62AC"/>
</svg>
