<svg width="203" height="29" viewBox="0 0 203 29" fill="none" xmlns="http://www.w3.org/2000/svg">
<path d="M180.461 14.1455L183.822 8.1671L187.146 14.1455H180.461ZM172.897 28.6913L176.794 21.3419H190.774L195.014 28.6913H202.806L191.843 7.74814C191.258 6.63146 190.711 5.62854 190.201 4.74008C189.692 3.85141 189.144 3.10286 188.559 2.49319C187.973 1.88417 187.311 1.41442 186.572 1.08441C185.834 0.75418 184.955 0.58963 183.937 0.58963C182.892 0.58963 181.982 0.748273 181.205 1.06567C180.429 1.38301 179.735 1.84622 179.124 2.45529C178.512 3.06452 177.946 3.80083 177.424 4.66357C176.902 5.52696 176.361 6.49149 175.801 7.55803L164.838 28.6913H172.897V28.6913Z" fill="#1C1B17"/>
<path d="M129.549 0.637695V7.7583H146.089V28.7015H153.194V7.7583H169.619V0.637695H129.549Z" fill="#1C1B17"/>
<path d="M117.261 11.1384H91.2863V7.71135H124.939V0.818817H94.1508C92.8522 0.818817 91.5725 1.01606 90.312 1.40931C89.0516 1.80251 87.9245 2.37428 86.9313 3.12277C85.9385 3.87197 85.1304 4.7855 84.506 5.86427C83.8823 6.94364 83.5703 8.16828 83.5703 9.53933C83.5703 10.8082 83.8375 11.9822 84.3726 13.0614C84.9071 14.1401 85.6201 15.0667 86.5114 15.8408C87.4028 16.615 88.4278 17.2177 89.586 17.6495C90.7449 18.0811 91.9483 18.2971 93.1964 18.2971H119.553V21.6483H85.3659V28.6925H117.337C118.56 28.6925 119.744 28.4765 120.89 28.0449C122.036 27.6131 123.048 27.0169 123.926 26.2549C124.805 25.4942 125.512 24.5864 126.047 23.5326C126.581 22.4796 126.849 21.318 126.849 20.0486C126.849 18.8302 126.6 17.675 126.104 16.5836C125.608 15.492 124.932 14.5462 124.079 13.7465C123.226 12.9471 122.214 12.3124 121.043 11.8431C119.871 11.3729 118.611 11.1384 117.261 11.1384V11.1384Z" fill="#1C1B17"/>
<path d="M50.1869 0.519409C48.7867 0.519409 47.4815 0.72299 46.2717 1.12907C45.0628 1.53451 44.0056 2.125 43.1017 2.89927C42.1973 3.67348 41.4847 4.61906 40.9625 5.73639C40.4405 6.85307 40.1797 8.12259 40.1797 9.54443V19.7491C40.1797 21.0949 40.4533 22.3195 41.0007 23.4235C41.5481 24.5278 42.28 25.4795 43.1969 26.2792C44.1137 27.0792 45.171 27.7011 46.3674 28.1457C47.5644 28.5898 48.8124 28.8119 50.111 28.8119H79.7527V21.3482H47.3606V18.3022H79.7527V11.0292H47.3606V7.75441H79.7527V0.519409H50.1869V0.519409Z" fill="#1C1B17"/>
<path d="M9.01938 0.703386H0.806641L12.19 22.3705C12.648 23.2841 13.1443 24.1348 13.6799 24.9212C14.2146 25.7082 14.8059 26.4002 15.4555 26.9964C16.1051 27.5932 16.8245 28.0629 17.6139 28.4054C18.4033 28.7484 19.3072 28.9194 20.3263 28.9194C21.2426 28.9194 22.0642 28.7801 22.7898 28.5006C23.5157 28.2216 24.1647 27.8343 24.738 27.3394C25.3111 26.8442 25.8392 26.2537 26.3232 25.5689C26.8072 24.8833 27.2653 24.1348 27.6986 23.322L39.7311 0.58963H31.6328L20.2112 21.6471L9.01938 0.703386V0.703386Z" fill="#1C1B17"/>
</svg>
