<svg width="52" height="52" viewBox="0 0 52 52" fill="none" xmlns="http://www.w3.org/2000/svg">
<path d="M40.8668 39.6195V44.0419C40.8663 44.4766 40.6841 44.8933 40.3602 45.2004C40.0363 45.5076 39.5971 45.6802 39.1393 45.6802H14.1182C13.6604 45.6802 13.2212 45.5076 12.8973 45.2004C12.5734 44.8933 12.3912 44.4766 12.3906 44.0419V13.3597C12.391 12.9248 12.5733 12.5079 12.8973 12.2006L17.4136 7.91075C17.7383 7.60332 18.1779 7.43037 18.6364 7.42969H39.1393C39.5975 7.42969 40.0369 7.60249 40.3609 7.91008C40.6848 8.21767 40.8668 8.63485 40.8668 9.06985V39.6195Z" stroke="#0F1722" stroke-width="1.2381" stroke-linecap="round" stroke-linejoin="round"/>
<path d="M12.7969 12.7496H17.7301C17.829 12.7498 17.927 12.7316 18.0185 12.6958C18.11 12.66 18.1931 12.6075 18.2632 12.5411C18.3332 12.4748 18.3888 12.396 18.4267 12.3092C18.4646 12.2225 18.4841 12.1295 18.4841 12.0356V7.79688" stroke="#0F1722" stroke-width="1.2381" stroke-linecap="round" stroke-linejoin="round"/>
<path d="M27.3281 36.7578H37.868" stroke="#0F1722" stroke-width="1.2381" stroke-linecap="round" stroke-linejoin="round"/>
<path d="M27.3281 39.6406H37.868" stroke="#0F1722" stroke-width="1.2381" stroke-linecap="round" stroke-linejoin="round"/>
<path d="M27.3281 42.5156H29.7804" stroke="#0F1722" stroke-width="1.2381" stroke-linecap="round" stroke-linejoin="round"/>
<path d="M31.7109 42.5156H37.8697" stroke="#0F1722" stroke-width="1.2381" stroke-linecap="round" stroke-linejoin="round"/>
<path d="M24.5787 36.0362C24.4882 35.9523 24.3669 35.9056 24.2408 35.9063H15.4381C15.3836 35.9064 15.3295 35.9149 15.2777 35.9315L15.2287 35.9496L15.1683 35.9803C15.1031 36.0205 15.0487 36.075 15.0097 36.1391C14.9723 36.2025 14.9528 36.274 14.9531 36.3468V42.6509C14.9531 42.7388 14.9814 42.8245 15.0343 42.8964C15.0689 42.9445 15.1132 42.9857 15.1645 43.0173C15.2453 43.066 15.3389 43.0917 15.4344 43.0914H24.2106C24.2752 43.091 24.3391 43.0794 24.3993 43.0571C24.4603 43.0336 24.516 42.9993 24.5636 42.956C24.6104 42.9126 24.6482 42.8612 24.6749 42.8043C24.6998 42.7471 24.7126 42.6858 24.7127 42.6238V36.3431C24.7131 36.286 24.7014 36.2293 24.6784 36.1766C24.6554 36.1239 24.6215 36.0761 24.5787 36.0362ZM24.2465 39.4862L21.7929 40.7788C21.7128 40.8214 21.6222 40.8426 21.5306 40.8402C21.4389 40.8389 21.3494 40.8133 21.272 40.7661L18.9921 39.4122C18.91 39.3649 18.8161 39.3399 18.7203 39.3399C18.6252 39.3402 18.5318 39.3651 18.4504 39.4122L15.4306 41.2175V36.3558H24.2371L24.2465 39.4862Z" fill="#0F1722"/>
<path d="M22.3929 38.708C22.8213 38.708 23.1686 38.3904 23.1686 37.9985C23.1686 37.6067 22.8213 37.2891 22.3929 37.2891C21.9645 37.2891 21.6172 37.6067 21.6172 37.9985C21.6172 38.3904 21.9645 38.708 22.3929 38.708Z" fill="#0F1722"/>
<path d="M27.3281 29.7188H37.868" stroke="#0F1722" stroke-width="1.2381" stroke-linecap="round" stroke-linejoin="round"/>
<path d="M27.3281 32.6016H37.868" stroke="#0F1722" stroke-width="1.2381" stroke-linecap="round" stroke-linejoin="round"/>
<path d="M27.3281 26.8516H29.7804" stroke="#0F1722" stroke-width="1.2381" stroke-linecap="round" stroke-linejoin="round"/>
<path d="M31.7109 26.8516H37.8697" stroke="#0F1722" stroke-width="1.2381" stroke-linecap="round" stroke-linejoin="round"/>
<path d="M24.5786 26.13C24.4872 26.0474 24.3665 26.001 24.2408 26H15.4381C15.3834 25.9999 15.3291 26.009 15.2777 26.0271L15.2287 26.0451L15.1683 26.0758C15.1022 26.1151 15.0477 26.1698 15.0097 26.2347C14.9723 26.298 14.9528 26.3696 14.9531 26.4423V32.75C14.9533 32.8379 14.9816 32.9235 15.0343 32.9955C15.0689 33.0432 15.1132 33.0837 15.1645 33.1147C15.2448 33.1646 15.3386 33.191 15.4344 33.1905H24.2106C24.2752 33.1895 24.3392 33.1773 24.3993 33.1544C24.4602 33.1309 24.5159 33.0966 24.5635 33.0533C24.6108 33.0103 24.6486 32.9588 24.6749 32.9017C24.7 32.8445 24.7128 32.7831 24.7126 32.7211V26.4423C24.7136 26.3843 24.7022 26.3267 24.6792 26.273C24.6561 26.2193 24.622 26.1706 24.5786 26.13ZM24.2465 29.5799L21.7929 30.8743C21.7125 30.9161 21.6221 30.9372 21.5305 30.9357C21.439 30.9336 21.3497 30.908 21.272 30.8617L18.992 29.5077C18.91 29.4604 18.8161 29.4355 18.7203 29.4355C18.6251 29.4357 18.5318 29.4607 18.4504 29.5077L15.4306 31.304V26.4423H24.237L24.2465 29.5799Z" fill="#0F1722"/>
<path d="M22.3929 28.8018C22.8213 28.8018 23.1686 28.4841 23.1686 28.0923C23.1686 27.7005 22.8213 27.3828 22.3929 27.3828C21.9645 27.3828 21.6172 27.7005 21.6172 28.0923C21.6172 28.4841 21.9645 28.8018 22.3929 28.8018Z" fill="#0F1722"/>
<path d="M27.3281 16.5703H37.868" stroke="#0F1722" stroke-width="1.2381" stroke-linecap="round" stroke-linejoin="round"/>
<path d="M27.3281 19.4531H37.868" stroke="#0F1722" stroke-width="1.2381" stroke-linecap="round" stroke-linejoin="round"/>
<path d="M27.3281 22.3281H29.7804" stroke="#0F1722" stroke-width="1.2381" stroke-linecap="round" stroke-linejoin="round"/>
<path d="M31.7109 22.3281H37.8697" stroke="#0F1722" stroke-width="1.2381" stroke-linecap="round" stroke-linejoin="round"/>
<path d="M24.5748 15.9815C24.4838 15.8984 24.3629 15.8518 24.2371 15.8516H15.4379C15.3834 15.8517 15.3293 15.8603 15.2776 15.8768L15.2286 15.8967C15.2075 15.9051 15.1873 15.9154 15.1682 15.9274C15.1027 15.9665 15.0483 16.0204 15.0097 16.0843C14.9723 16.1483 14.9529 16.2204 14.9531 16.2937V22.5934C14.953 22.6818 14.9813 22.7682 15.0342 22.8407C15.0689 22.8883 15.1131 22.9288 15.1644 22.9598C15.245 23.0089 15.3386 23.0352 15.4342 23.0355H24.2068C24.2715 23.0345 24.3354 23.0223 24.3955 22.9995C24.4564 22.976 24.5121 22.9417 24.5597 22.8984C24.6065 22.8551 24.6443 22.8036 24.671 22.7468C24.696 22.6897 24.7089 22.6283 24.7087 22.5664V16.2883C24.7089 16.2312 24.6972 16.1746 24.6742 16.1219C24.6512 16.0692 24.6174 16.0215 24.5748 15.9815ZM24.2427 19.43L21.7901 20.7239C21.7097 20.7657 21.6194 20.7868 21.5279 20.7853C21.4365 20.7822 21.3475 20.7568 21.2694 20.7113L18.9904 19.3578C18.9089 19.3093 18.8148 19.2836 18.7188 19.2838C18.6234 19.2839 18.5299 19.3095 18.4489 19.3578L15.4304 21.1534V16.2937H24.2333L24.2427 19.43Z" fill="#0F1722"/>
<path d="M22.3848 18.6528C22.813 18.6528 23.1602 18.3352 23.1602 17.9436C23.1602 17.5519 22.813 17.2344 22.3848 17.2344C21.9565 17.2344 21.6094 17.5519 21.6094 17.9436C21.6094 18.3352 21.9565 18.6528 22.3848 18.6528Z" fill="#0F1722"/>
</svg>
