<svg width="107" height="55" viewBox="0 0 107 55" fill="none" xmlns="http://www.w3.org/2000/svg">
<path fill-rule="evenodd" clip-rule="evenodd" d="M89.5468 27.2045V29.0008H90.7279V30.7826C90.7315 30.9417 90.7237 31.1137 90.6978 31.251C90.6509 31.5833 90.3554 32.1492 89.5171 32.1492C88.6836 32.149 88.3932 31.5833 88.3429 31.251C88.3217 31.1137 88.3124 30.9418 88.3124 30.7827L88.3125 25.1542C88.3125 24.9552 88.3253 24.7372 88.3651 24.5722C88.4222 24.2724 88.671 23.681 89.5107 23.681C90.3924 23.6809 90.6121 24.3044 90.6628 24.5722C90.696 24.75 90.6978 25.0473 90.6978 25.0473L90.6979 25.7307H93.6008V25.327C93.6008 25.327 93.6136 24.9051 93.5787 24.5116C93.3603 22.2018 91.5791 21.4711 89.5365 21.4711C87.4899 21.4711 85.7447 22.2088 85.4903 24.5116C85.4672 24.7222 85.4322 25.1016 85.4322 25.327L85.4323 30.504C85.4323 30.7294 85.4391 30.9044 85.4783 31.3165C85.6677 33.5628 87.4899 34.3589 89.5282 34.3589C91.5791 34.3589 93.3887 33.5628 93.5814 31.3165C93.6155 30.9044 93.6192 30.7296 93.6238 30.504L93.6239 27.2045H89.5468ZM69.532 21.8019H66.6171V30.9121C66.6217 31.0712 66.617 31.2495 66.5913 31.3805C66.5309 31.6862 66.2879 32.2746 65.4838 32.2746C64.6899 32.2746 64.4409 31.6863 64.3847 31.3805C64.3557 31.2495 64.3519 31.0712 64.3556 30.9123L64.3557 21.8019H61.4418V30.6295C61.4381 30.857 61.4546 31.3219 61.4671 31.4435C61.6686 33.7438 63.3649 34.4909 65.4838 34.4909C67.6071 34.4908 69.3025 33.7439 69.5074 31.4435C69.5236 31.3219 69.5448 30.8571 69.5319 30.6296L69.532 21.8019ZM42.7488 21.8019L41.2948 31.4283L39.8418 21.8019H35.1392L34.8899 34.1166H37.7707L37.8485 22.7168L39.8307 34.1166H42.7533L44.7373 22.7168L44.8152 34.1166H47.7034L47.4457 21.8019H42.7488ZM25.3398 21.8019L23.2045 34.1166H26.3181L27.927 22.7168L29.4971 34.1166H32.5889L30.463 21.8019H25.3398ZM79.7195 31.7168L77.0052 21.8019H72.728V33.9882H75.5577L75.3932 23.7564L78.308 33.9882H82.4105V21.8019H79.5624L79.7195 31.7168ZM53.5478 25.007C53.4963 24.7637 53.5115 24.5058 53.5377 24.3704C53.6202 23.9758 53.8681 23.5461 54.5824 23.5461C55.248 23.5461 55.6382 23.9898 55.6382 24.655C55.6382 24.8794 55.6382 25.4083 55.6382 25.4083H58.4799V24.5496C58.4799 21.8966 56.2535 21.4795 54.6414 21.4795C52.611 21.4795 50.9533 22.1946 50.6505 24.1912C50.5704 24.7343 50.5505 25.2168 50.6776 25.8323C51.1713 28.3217 55.2276 29.0436 55.8165 30.6183C55.9203 30.9162 55.8907 31.2968 55.8373 31.5208C55.7494 31.9304 55.4913 32.3426 54.7267 32.3426C54.0097 32.3425 53.5777 31.902 53.5777 31.2382L53.577 30.0558H50.5183V30.9953C50.5183 33.7178 52.5141 34.5391 54.6636 34.5391C56.7217 34.5391 58.4222 33.7874 58.6951 31.7503C58.8251 30.6974 58.7268 30.0117 58.6748 29.7536C58.1983 27.2001 53.8751 26.4325 53.5478 25.007ZM16.0637 24.977C16.008 24.7288 16.0208 24.4668 16.0516 24.3301C16.1305 23.9376 16.3798 23.5003 17.1066 23.5003C17.7808 23.5003 18.1781 23.9479 18.1781 24.6185C18.1781 24.8459 18.1781 25.3808 18.1781 25.3808L21.0529 25.3806V24.5156C21.0529 21.837 18.7923 21.4102 17.1628 21.4102C15.1152 21.41 13.4423 22.1359 13.1364 24.1468C13.0529 24.6988 13.0382 25.1848 13.1594 25.8066C13.6585 28.3247 17.755 29.0525 18.3509 30.6454C18.4625 30.9417 18.4288 31.3219 18.3735 31.5548C18.2786 31.9688 18.0186 32.387 17.2476 32.387C16.5278 32.3869 16.0968 31.9384 16.0968 31.2652L16.0928 30.0805H13V31.022C13 33.7755 15.0241 34.6032 17.19 34.6032C19.2726 34.6032 20.9828 33.8449 21.2616 31.7843C21.4003 30.7222 21.2962 30.0304 21.2496 29.7684C20.763 27.1838 16.3918 26.4182 16.0637 24.977Z" fill="#4F5359"/>
</svg>
