<svg width="107" height="56" viewBox="0 0 107 56" fill="none" xmlns="http://www.w3.org/2000/svg">
<path fill-rule="evenodd" clip-rule="evenodd" d="M46.1926 21.755C46.049 21.755 42.5213 21.7548 42.5213 21.7548C42.2686 21.7548 41.9384 21.6351 41.9384 21.2879C41.9384 20.9173 42.2686 20.8211 42.5213 20.8211H48.6142V18.6406C48.6142 18.6406 42.3654 18.6406 42.2906 18.6406C40.7817 18.6406 39.5264 19.5309 39.5264 21.2407C39.5264 22.7788 40.6455 23.9348 42.167 23.9357H42.171C42.2831 23.9355 45.9557 23.9357 45.9557 23.9357C46.2084 23.9357 46.5386 24.0554 46.5386 24.4025C46.5386 24.7732 46.2084 24.8699 45.9557 24.8699H39.7134V27.0509C39.7134 27.0509 46.1112 27.0509 46.1869 27.0509C47.6953 27.0509 48.9506 26.1124 48.9506 24.4025C48.9506 22.6663 47.5832 21.755 46.1926 21.755ZM46.1926 31.4421C46.049 31.4421 42.5213 31.4419 42.5213 31.4419C42.2686 31.4419 41.9384 31.3222 41.9384 30.9751C41.9384 30.6044 42.2686 30.5082 42.5213 30.5082H48.6142V28.3277C48.6142 28.3277 42.3654 28.3277 42.2906 28.3277C40.7817 28.3277 39.5264 29.2179 39.5264 30.9278C39.5264 32.466 40.6455 33.6219 42.167 33.6228H42.171C42.2831 33.6227 45.9557 33.6228 45.9557 33.6228C46.2084 33.6228 46.5386 33.7425 46.5386 34.0897C46.5386 34.4603 46.2084 34.557 45.9557 34.557H39.7134V36.7379C39.7134 36.7379 46.1112 36.7379 46.1869 36.7379C47.6953 36.7379 48.9506 35.7995 48.9506 34.0897C48.9506 32.3535 47.5832 31.4421 46.1926 31.4421ZM32.7929 27.6771H37.2306V25.8664H32.7929V24.8705H38.195V22.8747H29.9891V30.9792H38.4105V28.7982H32.7929V27.6771ZM24.3571 30.9792H27.3149V22.8747H24.3571V30.9792ZM17.2989 27.8032C17.1736 28.0651 17.1736 28.3514 17.1736 28.3514C17.1736 28.3514 17.1736 28.0651 17.0483 27.8032L14.7216 22.8747H11.1641L15.403 30.9792H18.9442L23.1832 22.8747H19.6257L17.2989 27.8032ZM92.3738 22.8745V27.3244C92.3738 27.3244 92.3738 27.0382 92.1912 26.8204L88.8738 22.8751L85.9335 22.8745V30.9789H88.8738V26.5296C88.8738 26.5296 88.8738 26.8153 89.05 27.0324L92.2446 30.9789H95.1641V22.8751L92.3738 22.8745ZM80.6369 27.3244C80.6369 27.3244 80.6369 27.0382 80.4543 26.8204L77.1368 22.8751L74.1967 22.8745V30.9789H77.1368V26.5296C77.1368 26.5296 77.1369 26.8153 77.3131 27.0324L80.5069 30.9789H83.428V22.8751L80.6369 22.8745V27.3244ZM66.8021 27.428C66.8025 27.4268 67.516 25.9831 67.6395 25.7328C67.7643 25.4823 67.7643 25.196 67.7643 25.196C67.7643 25.196 67.7643 25.4823 67.8887 25.7328C68.0122 25.9832 68.7266 27.428 68.7266 27.428H66.8021ZM66.2016 22.8747L62.1852 30.9765H62.1844V30.9782L62.184 30.9792H65.3077L66.05 29.4806H69.4782L70.2205 30.9792H73.3442L69.3266 22.8747H66.2016ZM57.3639 22.8747L56.1463 26.2301C56.0539 26.4818 56.0101 26.9699 56.0048 27.0311C55.9996 26.9699 55.9557 26.4818 55.8634 26.2301L54.6457 22.8747L50.6719 22.8745L50.6679 30.979L53.2184 30.9789V26.1579C53.2184 26.1579 53.2184 26.4434 53.3265 26.7015L55.1328 30.979H56.8769L58.6831 26.7015C58.7913 26.4434 58.7913 26.1579 58.7913 26.1579V30.9789L61.3417 30.979L61.3377 22.8745L57.3639 22.8747Z" fill="#4F5359"/>
</svg>
