<svg width="107" height="55" viewBox="0 0 107 55" fill="none" xmlns="http://www.w3.org/2000/svg">
<g clip-path="url(#clip0_167_612)">
<path fill-rule="evenodd" clip-rule="evenodd" d="M36.2077 35.4462V29.7777C36.2077 26.6714 33.6454 24.1092 30.5392 24.1092C27.4329 24.1092 24.8706 26.6714 24.8706 29.7777C24.8706 32.884 27.4241 35.4462 30.5392 35.4462H36.2077ZM61.874 34.1037C61.1895 32.7699 60.8298 31.287 60.8298 29.7777C60.8298 24.5216 65.1294 20.222 70.3855 20.222C76.2646 20.222 80.7749 25.5395 79.8097 31.3396L79.7482 31.7169H65.068C65.8841 33.9282 68.0076 35.4375 70.3855 35.4375H80.9767V14.9922H84.8639V39.3247H70.3329C68.613 39.3247 66.9546 38.8509 65.498 37.9734C65.3751 37.8944 65.2523 37.8067 65.1294 37.7277C63.5763 38.7631 61.7248 39.3335 59.8558 39.3335H59.7856C54.5382 39.3335 50.2474 35.025 50.2474 29.7777V24.1268C47.3429 24.3637 45.0351 26.8294 45.0351 29.7777V39.3335H41.1479V29.7777C41.1479 24.6883 45.1843 20.4764 50.2386 20.2395V15.001H54.1258V20.2307H59.2766V24.118H54.1258V29.7865C54.1258 32.9015 56.6793 35.455 59.7943 35.455C60.6631 35.455 61.5405 35.2532 62.3303 34.8671C62.1635 34.6214 62.0144 34.3669 61.8652 34.1125L61.874 34.1037ZM75.7031 27.8385C74.887 25.6272 72.7635 24.1092 70.3855 24.1092C68.0076 24.1092 65.8841 25.6272 65.068 27.8385H75.7031ZM40.0949 39.3335H30.5216C25.2743 39.3335 20.9922 35.025 20.9922 29.7777C20.9922 24.5216 25.2918 20.222 30.5479 20.222C35.804 20.222 40.1037 24.5216 40.1037 29.7777V39.3335H40.0949Z" fill="#4F5359"/>
</g>
<defs>
<clipPath id="clip0_167_612">
<rect width="63.8718" height="24.3338" fill="white" transform="translate(21 15)"/>
</clipPath>
</defs>
</svg>
