<svg width="107" height="55" viewBox="0 0 107 55" fill="none" xmlns="http://www.w3.org/2000/svg">
<path fill-rule="evenodd" clip-rule="evenodd" d="M19.7632 24.3135H28.2235C28.2235 21.5803 25.8356 21.0508 25.0509 21.0508H19.149C18.2963 21.0508 16.1641 21.5803 16.1641 24.3135V25.5635C16.1641 28.2755 18.2963 28.763 19.149 28.763H24.6075C25.4091 28.763 25.4434 30.0767 24.6075 30.0767L16.1641 30.098C16.1641 32.7887 18.6034 33.234 19.405 33.234H25.2217C26.0744 33.234 28.2235 32.7887 28.2235 30.098V28.763C28.2235 26.072 26.0744 25.5635 25.2217 25.5635L19.7632 25.5847C18.9614 25.5847 18.9449 24.3135 19.7632 24.3135ZM68.4271 22.7454C67.8641 21.6228 67.0454 21.1347 66.2949 21.1347H63.3782L61.2629 26.3052L58.4318 33.255H61.8599L62.7809 31.0303H68.3248L69.1602 33.255H72.6233L69.8424 26.3052L68.4271 22.7454ZM63.8556 28.3396L64.6572 26.3052L65.4762 24.25L66.3291 26.3052L67.1819 28.3396H63.8556ZM54.2357 33.234H57.0158L61.928 21.0927H58.4827L54.8836 30.2038L51.1996 21.0927H47.7198L52.0014 31.6659C52.513 32.7887 53.3318 33.234 54.2357 33.234ZM87.9914 33.234H91.1641V21.0927H87.9914V33.234ZM47.1228 21.0927H43.8992V33.234H47.1228V21.0927ZM39.3106 25.5847H32.5903V21.0927H29.2471V33.234H32.5903V28.8053H39.3106V33.234H42.5175V21.0927H39.3106V25.5847ZM86.4223 21.1347H81.7316L77.9105 25.479L76.4612 25.4577V21.1347H73.1861V33.255H76.4612V28.3396H78.235L82.8916 33.255H87.3604L81.2711 26.7504L86.4223 21.1347Z" fill="#4F5359"/>
</svg>
