<svg width="107" height="56" viewBox="0 0 107 56" fill="none" xmlns="http://www.w3.org/2000/svg">
<path d="M71.9444 21.9218C74.1379 21.9218 75.7851 22.3921 76.8863 23.3326C77.9875 24.2731 78.5381 25.7574 78.5381 27.7858C78.5381 29.8254 77.9897 31.3153 76.8931 32.2559C75.7964 33.1964 74.1468 33.6665 71.9444 33.6665C69.7331 33.6665 68.0813 33.1964 66.989 32.2559C65.8969 31.3153 65.3507 29.8254 65.3507 27.7858C65.3507 25.7574 65.899 24.2731 66.9957 23.3326C68.0926 22.3921 69.742 21.9218 71.9444 21.9218ZM71.9444 30.7092C73.2066 30.7092 75.0341 30.7482 75.5582 29.273C75.8302 28.5072 75.8302 27.0643 75.5582 26.2984C75.0405 24.8413 73.1959 24.8792 71.9444 24.8792C70.6935 24.8792 68.8481 24.8413 68.3306 26.2984C68.0586 27.0644 68.0586 28.5071 68.3306 29.273C68.8545 30.7481 70.6827 30.7092 71.9444 30.7092ZM63.8534 30.6961L65.5437 33.6669H54.649V21.9267H57.4402V30.6961H63.8534ZM43.4332 33.6669L45.1186 30.6961H46.8441C47.1139 30.6961 47.3947 30.6961 47.687 30.6961C47.9791 30.6961 48.233 30.7077 48.4488 30.7308C48.3229 30.5234 48.1769 30.2613 48.0106 29.9447C47.8443 29.6281 47.6847 29.3317 47.5318 29.0554L45.9138 25.9981L41.6798 33.6669H38.3761L44.1607 23.2172C44.3497 22.8834 44.5879 22.584 44.8755 22.3192C45.1631 22.0544 45.5272 21.9218 45.9677 21.9218C46.3903 21.9218 46.743 22.0457 47.0262 22.2933C47.3093 22.5407 47.5498 22.8488 47.7476 23.2172L53.384 33.6669H43.4332ZM33.7747 29.4294L38.2459 21.331L42.4906 19.8203L33.6539 35.7705L25.1022 19.824L29.4913 21.3309L33.7747 29.4294ZM24.057 33.6669L22.3716 30.6961H20.7039C20.4341 30.6961 20.1533 30.6961 19.8611 30.6961C19.569 30.6961 19.315 30.7077 19.0992 30.7308C19.2252 30.5234 19.3712 30.2613 19.5374 29.9447C19.7037 29.6281 19.8633 29.3317 20.0163 29.0554L21.6343 25.9981L25.8683 33.6669H29.1719L23.3873 23.2172C23.1984 22.8834 22.9601 22.584 22.6725 22.3192C22.3849 22.0544 22.0208 21.9218 21.5803 21.9218C21.1578 21.9218 20.8051 22.0457 20.5219 22.2933C20.2387 22.5407 19.9983 22.8488 19.8004 23.2172L14.1641 33.6669H24.057ZM89.7672 33.6665C89.5771 33.6665 89.3895 33.6297 89.2042 33.5561C89.0187 33.4824 88.8122 33.3154 88.5841 33.0546L82.7393 26.8V33.6665H80.0593V24.0465C80.0593 23.6725 80.1044 23.3495 80.1947 23.0777C80.285 22.8057 80.4038 22.5847 80.5511 22.4149C80.6984 22.2448 80.8696 22.1201 81.0642 22.0408C81.2591 21.9616 81.4611 21.9218 81.67 21.9218C81.8508 21.9218 82.0335 21.9587 82.219 22.0325C82.4043 22.1061 82.6159 22.2731 82.8534 22.5336L88.698 28.7886V21.9267H91.3923V31.5249C91.3923 31.8989 91.347 32.2218 91.257 32.4937C91.1667 32.7657 91.0478 32.9896 90.9004 33.1652C90.7531 33.3408 90.5797 33.4684 90.3801 33.5476C90.1807 33.627 89.9763 33.6665 89.7672 33.6665Z" fill="#4F5359"/>
</svg>
