<svg width="107" height="55" viewBox="0 0 107 55" fill="none" xmlns="http://www.w3.org/2000/svg">
<path d="M83.4787 27.6576L84.7601 25.3787L86.027 27.6576H83.4787ZM80.5956 33.2024L82.081 30.4008H87.4101L89.0263 33.2024H91.9967L87.8177 25.219C87.5945 24.7933 87.386 24.411 87.1917 24.0724C86.9976 23.7336 86.7889 23.4483 86.5657 23.2159C86.3425 22.9837 86.0899 22.8046 85.8085 22.6788C85.5269 22.553 85.1919 22.4902 84.8037 22.4902C84.4056 22.4902 84.0586 22.5507 83.7626 22.6717C83.4666 22.7927 83.202 22.9692 82.9691 23.2014C82.736 23.4336 82.5202 23.7143 82.321 24.0432C82.1222 24.3723 81.9159 24.74 81.7023 25.1465L77.5234 33.2024H80.5956Z" fill="#4F5359"/>
<path d="M64.0859 22.5039V25.2182H70.3908V33.2016H73.0992V25.2182H79.3603V22.5039H64.0859Z" fill="#4F5359"/>
<path d="M59.3973 26.5099H49.496V25.2035H62.3241V22.5762H50.5879C50.0929 22.5762 49.6051 22.6514 49.1246 22.8013C48.6441 22.9511 48.2145 23.1691 47.8359 23.4544C47.4574 23.74 47.1494 24.0882 46.9114 24.4995C46.6736 24.9109 46.5547 25.3777 46.5547 25.9004C46.5547 26.384 46.6565 26.8316 46.8605 27.2429C47.0643 27.6541 47.3361 28.0074 47.6758 28.3024C48.0156 28.5975 48.4063 28.8273 48.8478 28.9919C49.2896 29.1564 49.7483 29.2388 50.2241 29.2388H60.271V30.5162H47.2391V33.2014H59.4264C59.8923 33.2014 60.3437 33.1191 60.7808 32.9546C61.2176 32.79 61.6034 32.5627 61.9381 32.2722C62.273 31.9822 62.5426 31.6362 62.7463 31.2345C62.9501 30.8331 63.0522 30.3903 63.0522 29.9064C63.0522 29.442 62.9574 29.0016 62.7682 28.5856C62.5791 28.1695 62.3216 27.8089 61.9965 27.5041C61.6712 27.1994 61.2854 26.9574 60.839 26.7785C60.3923 26.5993 59.9118 26.5099 59.3973 26.5099Z" fill="#4F5359"/>
<path d="M33.8225 22.4609C33.2887 22.4609 32.7912 22.5385 32.3301 22.6933C31.8692 22.8479 31.4662 23.073 31.1216 23.3681C30.7769 23.6632 30.5053 24.0237 30.3062 24.4496C30.1072 24.8753 30.0078 25.3592 30.0078 25.9012V29.7911C30.0078 30.3042 30.1121 30.771 30.3208 31.1918C30.5294 31.6127 30.8084 31.9755 31.1579 32.2804C31.5074 32.5853 31.9105 32.8224 32.3665 32.9919C32.8228 33.1611 33.2985 33.2458 33.7935 33.2458H45.0927V30.4007H32.7451V29.2396H45.0927V26.4672H32.7451V25.2189H45.0927V22.4609H33.8225Z" fill="#4F5359"/>
<path d="M18.1306 22.5336H15L19.3392 30.7929C19.5138 31.1412 19.703 31.4655 19.9072 31.7653C20.111 32.0652 20.3364 32.329 20.584 32.5563C20.8317 32.7838 21.1059 32.9628 21.4068 33.0934C21.7077 33.2242 22.0523 33.2893 22.4408 33.2893C22.79 33.2893 23.1032 33.2362 23.3798 33.1297C23.6565 33.0233 23.9039 32.8757 24.1225 32.6871C24.3409 32.4983 24.5422 32.2732 24.7267 32.0121C24.9112 31.7508 25.0858 31.4655 25.251 31.1556L29.8377 22.4902H26.7507L22.3968 30.5172L18.1306 22.5336Z" fill="#4F5359"/>
</svg>
