<svg width="122" height="62" viewBox="0 0 122 62" fill="none" xmlns="http://www.w3.org/2000/svg">
<path fill-rule="evenodd" clip-rule="evenodd" d="M111.111 58.8017C110.167 58.8017 109.512 58.0683 109.512 57.1606C109.512 56.2528 110.167 55.5194 111.111 55.5194C112.053 55.5194 112.699 56.2329 112.699 57.1606C112.699 58.0883 112.055 58.8017 111.111 58.8017ZM111.111 54.2867C109.379 54.2867 108.08 55.4958 108.08 57.1606C108.08 58.8235 109.379 60.0326 111.111 60.0326C112.821 60.0326 114.131 58.8235 114.131 57.1606C114.131 55.4976 112.821 54.2867 111.111 54.2867ZM101.404 59.891H102.814V57.6889H105.502V59.891H106.912V54.4265H105.502V56.5106H102.814V54.4265H101.404V59.891ZM94.8395 61.4995V59.891H99.3027V61.4995H100.558V58.7146H99.5811V54.4265H95.1179L94.885 56.3182C94.7413 57.5709 94.5193 58.2607 94.1973 58.7146H93.5878V61.4995H94.8414H94.8395ZM98.1692 58.7146H95.5601C95.8603 58.2498 96.0149 57.6126 96.1587 56.3926L96.2587 55.6047H98.1673V58.7146H98.1692ZM90.2054 58.7999C89.2629 58.7999 88.6079 58.0665 88.6079 57.1588C88.6079 56.251 89.2629 55.5176 90.2054 55.5176C91.1497 55.5176 91.7938 56.2311 91.7938 57.1588C91.7938 58.0864 91.1497 58.7999 90.2054 58.7999ZM90.2054 54.2849C88.4733 54.2849 87.176 55.494 87.176 57.1588C87.176 58.8217 88.4751 60.0308 90.2054 60.0308C91.9157 60.0308 93.2257 58.8217 93.2257 57.1588C93.2257 55.4958 91.9157 54.2849 90.2054 54.2849ZM82.4763 59.8892H83.8864V55.6029H86.8285V54.4247H82.4763V59.8892ZM79.5416 59.8892H80.9626V54.4247H79.5416V59.8892ZM76.2447 57.2441C76.9106 57.2441 77.2545 57.5255 77.2545 57.9884C77.2545 58.5167 76.9215 58.7763 76.2447 58.7763H74.6672V57.2423H76.2447V57.2441ZM74.6672 56.1203V54.4247H73.2572V59.8892H76.4667C78.0532 59.8892 78.6992 58.9815 78.6992 57.9884C78.6992 56.93 78.0551 56.1203 76.4558 56.1203H74.6691H74.6672ZM69.7347 57.6217C70.3242 57.6217 70.5789 57.8595 70.5789 58.1936C70.5789 58.6256 70.3024 58.8417 69.7347 58.8417H68.0481V57.6217H69.7347ZM69.6801 55.474C70.1568 55.474 70.457 55.6683 70.457 56.0241C70.457 56.4453 70.135 56.6177 69.6801 56.6177H68.0481V55.474H69.6801ZM66.638 59.891H69.9239C71.2448 59.891 72.0217 59.2647 72.0217 58.3134C72.0217 57.5908 71.5214 57.2023 71.001 57.0607C71.4231 56.9409 71.8562 56.5324 71.8562 55.8734C71.8562 54.9221 71.0465 54.4265 69.9021 54.4265H66.638V59.891ZM56.6091 59.891H58.0083L60.8285 56.2202V59.891H62.2385V54.4265H60.8285L58.0083 58.0883V54.4265H56.6091V59.891Z" fill="white"/>
<path fill-rule="evenodd" clip-rule="evenodd" d="M48.714 58.7995C47.7715 58.7995 47.1147 58.0661 47.1147 57.1584C47.1147 56.2507 47.7697 55.5172 48.714 55.5172C49.6583 55.5172 50.3006 56.2307 50.3006 57.1584C50.3006 58.0861 49.6565 58.7995 48.714 58.7995ZM48.714 54.2864C46.9819 54.2864 45.6846 55.4954 45.6846 57.1584C45.6846 58.8213 46.9837 60.0304 48.714 60.0304C50.4243 60.0304 51.7343 58.8213 51.7343 57.1584C51.7343 55.4954 50.4243 54.2864 48.714 54.2864ZM39.0072 59.8906H40.4173V57.6867H43.1046V59.8906H44.5147V54.4261H43.1046V56.5103H40.4173V54.4261H39.0072V59.8906ZM32.8429 59.8906H34.1984V57.5033L36.5291 59.8906H38.3831L35.6066 57.0495L38.2157 54.4243H36.4181L34.1984 56.6718V54.4243H32.8429V56.6809L30.6122 54.4243H28.8019L31.4437 57.0821L28.6909 59.8888H30.5012L32.8429 57.4924V59.8888V59.8906ZM26.0563 53.5511H27.4646V51.9426H26.0563V53.5511ZM23.7365 53.5511H25.1466V51.9426H23.7365V53.5511ZM25.6015 55.3538C26.3238 55.3538 26.8441 55.7423 27.057 56.434H24.1259C24.3042 55.7532 24.8355 55.3538 25.6015 55.3538ZM25.6015 54.2845C23.8821 54.2845 22.6594 55.4609 22.6594 57.1566C22.6594 58.7977 23.8912 60.0286 25.7124 60.0286C27.621 60.0286 28.3889 58.8522 28.4762 58.2894H27.077C26.977 58.4401 26.6113 58.8831 25.7124 58.8831C24.7791 58.8831 24.1368 58.2349 24.0804 57.3817H28.5435V57.231C28.5435 55.4501 27.3336 54.2827 25.6015 54.2827V54.2845ZM16.5842 61.4973V59.8888H21.0474V61.4973H22.3028V58.7124H21.3257V54.4243H16.8626L16.6297 56.3142C16.4842 57.5669 16.2622 58.2567 15.9401 58.7124H15.3306V61.4973H16.5861H16.5842ZM19.9138 58.7124H17.3047C17.6031 58.2476 17.7596 57.6104 17.9033 56.3905L18.0034 55.6026H19.912V58.7124H19.9138ZM13.2055 57.1566C13.2055 58.0843 12.5942 58.7977 11.6735 58.7977C10.7183 58.7977 10.0979 58.0843 10.0979 57.1566C10.0979 56.2271 10.7201 55.5154 11.6735 55.5154C12.5942 55.5154 13.2055 56.2289 13.2055 57.1566ZM13.1928 59.8888H14.6028V54.4243H13.1818V55.2449C13.0599 55.018 12.4941 54.3045 11.306 54.3045C9.85224 54.3045 8.65322 55.3847 8.65322 57.1548C8.65322 58.9357 9.85224 60.005 11.2951 60.005C12.5378 60.005 13.0836 59.2389 13.1928 59.021V59.8852V59.8888ZM5.81851 59.8888H7.31774V52.2204H5.81851V55.3847H1.49002V52.2204H0.00170898V59.8888H1.49002V56.6809H5.81851V59.8888Z" fill="white"/>
<path fill-rule="evenodd" clip-rule="evenodd" d="M115.385 54.7178H116.411V57.0851H117.125V54.7178H118.151V54.0933H115.385V54.7178ZM119.734 54.0933H118.662V57.0851H119.324V54.8775L120.076 57.0851H120.553L121.308 54.8557V57.0851H122.001V54.0933H120.971L120.354 55.9178L119.734 54.0933Z" fill="white"/>
<path fill-rule="evenodd" clip-rule="evenodd" d="M27.9343 36.0543V26.2001C27.9343 20.7955 23.4767 16.3459 18.0602 16.3459C12.6418 16.3459 8.18961 20.7955 8.18961 26.2001C8.18961 31.6065 12.6418 36.0543 18.0602 36.0543H27.9343ZM72.6566 33.7178C71.4648 31.3959 70.8408 28.827 70.8408 26.2001C70.8408 17.0648 78.3278 9.59064 87.4851 9.59064C97.7232 9.59064 105.589 18.8385 103.906 28.9178L103.795 29.5804H78.2168C79.6342 33.4183 83.3422 36.0543 87.4833 36.0543H105.942V0.500732H112.71V42.8095H87.3978C84.4048 42.8095 81.5064 41.9835 78.9665 40.4585C78.7481 40.3188 78.5352 40.1735 78.3224 40.0247C75.6132 41.8256 72.3891 42.8095 69.1268 42.8095H69.0122C59.864 42.8095 52.3951 35.3209 52.3951 26.2001V16.3786C47.3279 16.7889 43.3197 21.0824 43.3197 26.2001V42.8095H36.5476V26.2001C36.5476 17.3516 43.5853 10.0263 52.3951 9.61061V0.500732H59.169V9.59064H68.137V16.3459H59.169V26.2001C59.169 31.6083 63.623 36.0543 69.0431 36.0543C70.5606 36.0543 72.0907 35.7039 73.4571 35.0376C73.1715 34.6092 72.904 34.1699 72.6529 33.7178H72.6566ZM96.7553 22.8234C95.3361 18.9819 91.6317 16.3459 87.4851 16.3459C83.3404 16.3459 79.6342 18.9837 78.2168 22.8234H96.7553ZM34.7045 42.8095H18.0274C8.87918 42.8095 1.41577 35.3209 1.41577 26.2001C1.41577 17.063 8.90101 9.59064 18.0583 9.59064C27.2157 9.59064 34.7045 17.063 34.7045 26.2001V42.8095Z" fill="white"/>
</svg>
