<svg width="82" height="124" viewBox="0 0 82 124" fill="none" xmlns="http://www.w3.org/2000/svg">
<path d="M47.7346 78.0428L46.8545 78.2014L46.3126 78.9128L41 85.8876L35.6874 78.9128L35.1455 78.2013L34.2653 78.0428C16.5282 74.8488 3.05 59.248 3.05 40.4705C3.05 19.3779 20.0529 2.3 41 2.3C61.9471 2.3 78.95 19.3779 78.95 40.4705C78.95 59.2469 65.4718 74.8477 47.7346 78.0428Z" fill="url(#paint0_linear_289_1591)" stroke="white" stroke-width="4.6"/>
<path fill-rule="evenodd" clip-rule="evenodd" d="M58.5194 57.616H39.5425C29.1322 57.616 20.6396 49.0291 20.6396 38.5697C20.6396 28.0917 29.1586 19.5234 39.5795 19.5234C50.0004 19.5234 58.522 28.0917 58.522 38.5697V57.616H58.5194ZM50.814 49.8684V38.5697C50.814 32.3706 45.7422 27.271 39.5769 27.271C33.4115 27.271 28.3424 32.3732 28.3424 38.5697C28.3424 44.7688 33.4089 49.8684 39.5769 49.8684H50.814Z" fill="#FEFEFE"/>
<circle opacity="0.8" cx="41.0004" cy="109.808" r="12.075" stroke="#009B48" stroke-width="2.3"/>
<circle cx="41.0004" cy="109.808" r="6.325" fill="url(#paint1_linear_289_1591)" stroke="white" stroke-width="2.3"/>
<defs>
<linearGradient id="paint0_linear_289_1591" x1="0.75" y1="55.7379" x2="82.0733" y2="51.3703" gradientUnits="userSpaceOnUse">
<stop stop-color="#0B3F23"/>
<stop offset="1" stop-color="#009B48"/>
</linearGradient>
<linearGradient id="paint1_linear_289_1591" x1="33.5254" y1="111.625" x2="48.6178" y2="110.722" gradientUnits="userSpaceOnUse">
<stop stop-color="#0B3F23"/>
<stop offset="1" stop-color="#009B48"/>
</linearGradient>
</defs>
</svg>
