<svg width="28" height="28" viewBox="0 0 28 28" fill="none" xmlns="http://www.w3.org/2000/svg">
<path d="M13.703 12.8008L13.703 19.652M13.703 19.652L17.1286 16.2264M13.703 19.652L10.2773 16.2264" stroke="white" stroke-width="2" stroke-linecap="round" stroke-linejoin="round"/>
<path d="M5.70996 7.09164C5.70996 5.19972 7.24366 3.66602 9.13558 3.66602H15.0409C15.6465 3.66602 16.2274 3.90662 16.6557 4.33491L21.0273 8.70649C21.4556 9.13477 21.6962 9.71565 21.6962 10.3213V20.7941C21.6962 22.686 20.1625 24.2197 18.2706 24.2197H9.13558C7.24366 24.2197 5.70996 22.686 5.70996 20.7941V7.09164Z" stroke="white" stroke-width="2"/>
<path d="M14.8438 3.66602V5.94976C14.8438 8.47232 16.8887 10.5173 19.4112 10.5173H21.695" stroke="white" stroke-width="2"/>
</svg>
