<svg width="54" height="54" viewBox="0 0 54 54" fill="none" xmlns="http://www.w3.org/2000/svg">
<path d="M52.3333 26.499C52.3333 40.7664 40.7674 52.3324 26.5 52.3324C12.2326 52.3324 0.666667 40.7664 0.666667 26.499C0.666667 12.2317 12.2326 0.66569 26.5 0.66569C40.7674 0.66569 52.3333 12.2317 52.3333 26.499Z" stroke="#4B5157" stroke-width="1.33333"/>
<path fill-rule="evenodd" clip-rule="evenodd" d="M33.1645 15.004L29.9664 14.999C26.3735 14.999 24.0516 17.3173 24.0516 20.9055V23.6287H20.8361C20.5583 23.6287 20.3333 23.8479 20.3333 24.1183V28.064C20.3333 28.3344 20.5585 28.5534 20.8361 28.5534H24.0516V38.5097C24.0516 38.7801 24.2766 38.999 24.5545 38.999H28.7498C29.0277 38.999 29.2527 38.7798 29.2527 38.5097V28.5534H33.0124C33.2902 28.5534 33.5152 28.3344 33.5152 28.064L33.5168 24.1183C33.5168 23.9885 33.4636 23.8642 33.3695 23.7723C33.2753 23.6804 33.147 23.6287 33.0136 23.6287H29.2527V21.3202C29.2527 20.2106 29.5244 19.6473 31.0096 19.6473L33.164 19.6466C33.4416 19.6466 33.6666 19.4273 33.6666 19.1572V15.4934C33.6666 15.2235 33.4418 15.0045 33.1645 15.004Z" fill="white"/>
</svg>
