<svg width="54" height="54" viewBox="0 0 54 54" fill="none" xmlns="http://www.w3.org/2000/svg">
<path d="M53.0001 26.499C53.0001 40.7664 41.4341 52.3324 27.1667 52.3324C12.8994 52.3324 1.33341 40.7664 1.33341 26.499C1.33341 12.2317 12.8994 0.66569 27.1667 0.66569C41.4341 0.66569 53.0001 12.2317 53.0001 26.499Z" stroke="#4B5157" stroke-width="1.33333"/>
<path fill-rule="evenodd" clip-rule="evenodd" d="M27.6669 15.666C30.7448 15.666 31.1307 15.6791 32.3396 15.7342C33.5459 15.7892 34.3697 15.9808 35.0906 16.261C35.8359 16.5506 36.4679 16.9381 37.098 17.5682C37.728 18.1983 38.1156 18.8303 38.4052 19.5756C38.6853 20.2965 38.8769 21.1203 38.932 22.3266C38.9871 23.5355 39.0002 23.9214 39.0002 26.9994C39.0002 30.0773 38.9871 30.4632 38.932 31.6721C38.8769 32.8784 38.6853 33.7022 38.4052 34.4231C38.1156 35.1684 37.728 35.8004 37.098 36.4305C36.4679 37.0606 35.8359 37.4481 35.0906 37.7377C34.3697 38.0179 33.5459 38.2095 32.3396 38.2645C31.1307 38.3196 30.7448 38.3327 27.6669 38.3327C24.5889 38.3327 24.2029 38.3196 22.9941 38.2645C21.7878 38.2095 20.9639 38.0179 20.2431 37.7377C19.4978 37.4481 18.8658 37.0606 18.2357 36.4305C17.6056 35.8004 17.2181 35.1684 16.9285 34.4231C16.6483 33.7022 16.4567 32.8784 16.4017 31.6721C16.3465 30.4632 16.3335 30.0773 16.3335 26.9994C16.3335 23.9214 16.3465 23.5355 16.4017 22.3266C16.4567 21.1203 16.6483 20.2965 16.9285 19.5756C17.2181 18.8303 17.6056 18.1983 18.2357 17.5682C18.8658 16.9381 19.4978 16.5506 20.2431 16.261C20.9639 15.9808 21.7878 15.7892 22.9941 15.7342C24.2029 15.6791 24.5889 15.666 27.6669 15.666ZM27.6633 30.7724C29.749 30.7724 31.4398 29.0815 31.4398 26.9958C31.4398 24.91 29.749 23.2192 27.6633 23.2192C25.5775 23.2192 23.8867 24.91 23.8867 26.9958C23.8867 29.0815 25.5775 30.7724 27.6633 30.7724ZM27.6633 21.1778C30.8765 21.1778 33.4812 23.7826 33.4812 26.9958C33.4812 30.209 30.8765 32.8138 27.6633 32.8138C24.4501 32.8138 21.8453 30.209 21.8453 26.9958C21.8453 23.7826 24.4501 21.1778 27.6633 21.1778ZM35.4742 20.829C35.4742 21.594 34.8541 22.2142 34.089 22.2142C33.3241 22.2142 32.7039 21.594 32.7039 20.829C32.7039 20.064 33.3241 19.4438 34.089 19.4438C34.8541 19.4438 35.4742 20.064 35.4742 20.829Z" fill="white"/>
</svg>
