<svg width="28" height="28" viewBox="0 0 28 28" fill="none" xmlns="http://www.w3.org/2000/svg">
<path fill-rule="evenodd" clip-rule="evenodd" d="M14.1479 22.9896C19.1128 22.9896 23.1376 18.9648 23.1376 14C23.1376 9.03514 19.1128 5.01035 14.1479 5.01035C9.18309 5.01035 5.1583 9.03514 5.1583 14C5.1583 18.9648 9.18309 22.9896 14.1479 22.9896ZM14.1479 25.237C20.354 25.237 25.385 20.206 25.385 14C25.385 7.79393 20.354 2.76294 14.1479 2.76294C7.94188 2.76294 2.91089 7.79393 2.91089 14C2.91089 20.206 7.94188 25.237 14.1479 25.237Z" fill="white"/>
<path fill-rule="evenodd" clip-rule="evenodd" d="M16.1108 20.9407C16.9409 19.2805 17.5192 16.8298 17.5192 14C17.5192 11.1702 16.9409 8.71943 16.1108 7.05926C15.2135 5.26467 14.3897 5.01035 14.1481 5.01035C13.9064 5.01035 13.0826 5.26467 12.1853 7.05926C11.3552 8.71943 10.7769 11.1702 10.7769 14C10.7769 16.8298 11.3552 19.2805 12.1853 20.9407C13.0826 22.7353 13.9064 22.9896 14.1481 22.9896C14.3897 22.9896 15.2135 22.7353 16.1108 20.9407ZM14.1481 25.237C17.2511 25.237 19.7666 20.206 19.7666 14C19.7666 7.79393 17.2511 2.76294 14.1481 2.76294C11.045 2.76294 8.52954 7.79393 8.52954 14C8.52954 20.206 11.045 25.237 14.1481 25.237Z" fill="white"/>
<path fill-rule="evenodd" clip-rule="evenodd" d="M25.3295 15.1239C25.3662 14.7543 25.385 14.3794 25.385 14.0002C25.385 13.6209 25.3662 13.2461 25.3295 12.8765H2.96637C2.92968 13.2461 2.91089 13.6209 2.91089 14.0002C2.91089 14.3794 2.92968 14.7543 2.96637 15.1239H25.3295Z" fill="white"/>
</svg>
