<svg width="25" height="24" viewBox="0 0 25 24" fill="none" xmlns="http://www.w3.org/2000/svg">
<path fill-rule="evenodd" clip-rule="evenodd" d="M2.66663 8C2.66663 5.79086 4.45749 4 6.66663 4H18.6666C20.8758 4 22.6666 5.79086 22.6666 8V16C22.6666 18.2091 20.8758 20 18.6666 20H6.66663C4.45749 20 2.66663 18.2091 2.66663 16V8ZM6.66663 6C5.56206 6 4.66663 6.89543 4.66663 8V16C4.66663 17.1046 5.56206 18 6.66663 18H18.6666C19.7712 18 20.6666 17.1046 20.6666 16V8C20.6666 6.89543 19.7712 6 18.6666 6H6.66663Z" fill="white"/>
<path fill-rule="evenodd" clip-rule="evenodd" d="M6.88579 8.37534C7.2308 7.94408 7.8601 7.87416 8.29136 8.21917L12.6667 11.7194L17.042 8.21917C17.4732 7.87416 18.1025 7.94408 18.4475 8.37534C18.7925 8.8066 18.7226 9.4359 18.2914 9.78091L12.6667 14.2807L7.04197 9.78091C6.61071 9.4359 6.54078 8.8066 6.88579 8.37534Z" fill="white"/>
</svg>
