<svg width="28" height="28" viewBox="0 0 28 28" fill="none" xmlns="http://www.w3.org/2000/svg">
<rect x="4.16663" y="12.8889" width="20" height="2.22222" rx="1.11111" fill="white"/>
<g opacity="0.5">
<path fill-rule="evenodd" clip-rule="evenodd" d="M5.43651 5.11108C4.73517 5.11108 4.16663 5.67963 4.16663 6.38096C4.16663 7.0823 4.73517 7.65085 5.4365 7.65085H12.7565C13.4578 7.65085 14.0264 7.0823 14.0264 6.38096C14.0264 5.67963 13.4578 5.11108 12.7565 5.11108H5.43651ZM15.5777 20.3498C14.8764 20.3498 14.3079 20.9183 14.3079 21.6197C14.3079 22.321 14.8764 22.8896 15.5777 22.8896H22.8977C23.599 22.8896 24.1676 22.321 24.1676 21.6197C24.1676 20.9183 23.599 20.3498 22.8977 20.3498H15.5777Z" fill="white"/>
</g>
</svg>
