<svg width="28" height="28" viewBox="0 0 28 28" fill="none" xmlns="http://www.w3.org/2000/svg">
<g clip-path="url(#clip0_201_53)">
<path fill-rule="evenodd" clip-rule="evenodd" d="M5.72079 3.15811C7.17142 1.70749 9.57053 1.87799 10.8014 3.51918L12.8446 6.24345C13.8512 7.58556 13.7177 9.46358 12.5315 10.6498L11.0251 12.1562C11.1711 12.5362 11.6516 13.3701 13.1152 14.8336C14.5787 16.2971 15.4126 16.7777 15.7925 16.9237L17.2989 15.4173C18.4852 14.2311 20.3632 14.0976 21.7053 15.1042L24.4296 17.1474C26.0708 18.3783 26.2413 20.7774 24.7907 22.228C24.3191 22.6996 24.2393 22.7794 23.4522 23.5665C22.6501 24.3686 20.947 25.1183 19.2226 25.1933C16.5243 25.3106 12.859 24.1124 8.34769 19.6011C3.83638 15.0898 2.63822 11.4245 2.75554 8.72616C2.8208 7.22512 3.29803 5.57649 4.38862 4.50284C5.16937 3.70953 5.27091 3.608 5.72079 3.15811ZM5.00083 8.82378C4.9195 10.6942 5.70778 13.7829 9.93684 18.0119C14.1659 22.241 17.2546 23.0293 19.125 22.948C20.8711 22.872 21.8078 22.0283 21.8631 21.9773L23.2015 20.6388C23.6851 20.1553 23.6282 19.3556 23.0812 18.9453L20.3569 16.9021C19.9095 16.5666 19.2835 16.6111 18.8881 17.0065C18.2923 17.6023 17.8856 18.015 17.0896 18.808C15.4359 20.4554 12.6052 17.502 11.526 16.4228C10.5342 15.431 7.51186 12.5105 9.13915 10.8639C9.14237 10.8606 9.58067 10.4223 10.9423 9.06069C11.3377 8.66527 11.3822 8.03926 11.0467 7.59189L9.00349 4.86763C8.5932 4.32056 7.79349 4.26373 7.30995 4.74727C6.86491 5.19231 6.36124 5.69598 5.97284 6.08706C5.17348 6.89195 5.0436 7.83987 5.00083 8.82378Z" fill="white"/>
</g>
<defs>
<clipPath id="clip0_201_53">
<rect width="26.9689" height="26.9689" fill="white" transform="translate(0.498291 0.515625)"/>
</clipPath>
</defs>
</svg>
