<svg width="25" height="24" viewBox="0 0 25 24" fill="none" xmlns="http://www.w3.org/2000/svg">
<g clip-path="url(#clip0_55_585)">
<path fill-rule="evenodd" clip-rule="evenodd" d="M5.3142 2.35243C6.60513 1.0615 8.74013 1.21323 9.83552 2.67375L11.6538 5.09811C12.5496 6.29247 12.4308 7.96376 11.3751 9.01943L10.0346 10.36C10.1645 10.6982 10.5921 11.4402 11.8945 12.7426C13.1969 14.045 13.939 14.4727 14.2772 14.6026L15.6178 13.2621C16.6734 12.2064 18.3447 12.0876 19.5391 12.9834L21.9634 14.8017C23.424 15.8971 23.5757 18.0321 22.2848 19.323C21.8651 19.7427 21.794 19.8137 21.0936 20.5141C20.3798 21.2279 18.8642 21.8951 17.3297 21.9618C14.9284 22.0662 11.6666 21 7.65191 16.9853C3.63723 12.9706 2.57097 9.70884 2.67538 7.30751C2.73345 5.97171 3.15815 4.50458 4.12868 3.54912C4.82348 2.84315 4.91384 2.75279 5.3142 2.35243ZM4.67349 7.39439C4.60112 9.05893 5.30262 11.8076 9.06612 15.5711C12.8296 19.3346 15.5783 20.0361 17.2428 19.9637C18.7967 19.8961 19.6302 19.1453 19.6794 19.0999L20.8705 17.9088C21.3009 17.4785 21.2503 16.7668 20.7634 16.4017L18.3391 14.5834C17.941 14.2848 17.3839 14.3244 17.032 14.6763C16.5018 15.2065 16.1399 15.5737 15.4314 16.2795C13.9598 17.7456 11.4407 15.1172 10.4803 14.1569C9.59775 13.2743 6.90809 10.6752 8.35624 9.20989C8.3591 9.20701 8.74916 8.81696 9.9609 7.60522C10.3128 7.25333 10.3524 6.69623 10.0538 6.29811L8.23552 3.87375C7.87039 3.38691 7.15872 3.33633 6.72841 3.76664C6.33236 4.16269 5.88414 4.61091 5.5385 4.95894C4.82713 5.67523 4.71156 6.51879 4.67349 7.39439Z" fill="white"/>
</g>
<defs>
<clipPath id="clip0_55_585">
<rect width="24" height="24" fill="white" transform="translate(0.666626)"/>
</clipPath>
</defs>
</svg>
