<svg width="34" height="34" viewBox="0 0 34 34" fill="none" xmlns="http://www.w3.org/2000/svg">
<path fill-rule="evenodd" clip-rule="evenodd" d="M15.5833 4.25C9.32411 4.25 4.25 9.32411 4.25 15.5833C4.25 21.8426 9.32411 26.9167 15.5833 26.9167C21.8426 26.9167 26.9167 21.8426 26.9167 15.5833C26.9167 9.32411 21.8426 4.25 15.5833 4.25ZM15.5781 7.07812C20.2725 7.07812 24.0781 10.8837 24.0781 15.5781C24.0781 20.2725 20.2725 24.0781 15.5781 24.0781C10.8837 24.0781 7.07812 20.2725 7.07812 15.5781C7.07812 10.8837 10.8837 7.07812 15.5781 7.07812Z" fill="#4F5359"/>
<path fill-rule="evenodd" clip-rule="evenodd" d="M21.6645 21.6732C22.1749 21.1623 22.9785 21.1226 23.5344 21.5545L23.6679 21.6723L29.3346 27.3338C29.8881 27.8868 29.8885 28.7838 29.3355 29.3373C28.8251 29.8482 28.0215 29.8878 27.4656 29.456L27.3321 29.3382L21.6654 23.6767C21.1119 23.1237 21.1115 22.2267 21.6645 21.6732Z" fill="#4F5359"/>
</svg>
