<svg width="54" height="54" viewBox="0 0 54 54" fill="none" xmlns="http://www.w3.org/2000/svg">
<path d="M52.6666 26.499C52.6666 40.7664 41.1006 52.3324 26.8333 52.3324C12.5659 52.3324 0.999919 40.7664 0.999919 26.499C0.999919 12.2317 12.5659 0.66569 26.8333 0.66569C41.1006 0.66569 52.6666 12.2317 52.6666 26.499Z" stroke="#4B5157" stroke-width="1.33333"/>
<path fill-rule="evenodd" clip-rule="evenodd" d="M39.3052 19.4823C39.2708 19.4414 39.214 19.4275 39.1656 19.4498C38.4481 19.7711 37.6932 20.0021 36.9157 20.1386C37.7412 19.5118 38.3562 18.6439 38.6715 17.6487C38.6868 17.601 38.671 17.5489 38.6325 17.5179C38.5936 17.4869 38.5398 17.4829 38.4973 17.5085C37.5676 18.065 36.5608 18.4573 35.5033 18.6749C34.5663 17.6933 33.2579 17.1318 31.9037 17.1318C29.1497 17.1318 26.9094 19.3932 26.9094 22.173C26.9094 22.5092 26.9416 22.8422 27.0055 23.1655C23.1911 22.9278 19.6244 21.0792 17.1993 18.0767C17.1744 18.0459 17.1368 18.0288 17.0975 18.0328C17.0584 18.0358 17.0235 18.0581 17.0038 18.0921C16.5614 18.8583 16.3276 19.7349 16.3276 20.6267C16.3276 22.1722 17.0233 23.6173 18.2078 24.5709C17.598 24.4969 17.0024 24.3031 16.4653 24.0022C16.4291 23.9816 16.3842 23.9818 16.348 24.0029C16.3119 24.0237 16.289 24.0624 16.288 24.1046L16.2876 24.1691C16.2876 26.3889 17.7366 28.3379 19.7982 28.985C19.2552 29.0733 18.6918 29.0674 18.138 28.9607C18.0972 28.953 18.0544 28.9671 18.0264 28.9989C17.9986 29.0306 17.9893 29.0751 18.0021 29.1153C18.6203 31.063 20.338 32.429 22.3374 32.5992C20.6696 33.8326 18.6982 34.4824 16.6152 34.4824C16.2315 34.4824 15.8451 34.4594 15.4666 34.4144C15.4125 34.4082 15.3589 34.4407 15.3402 34.4931C15.3215 34.546 15.3414 34.605 15.3881 34.635C17.6422 36.0942 20.2485 36.8652 22.9256 36.8652C31.6825 36.8652 36.9152 29.6849 36.9152 22.7434C36.9152 22.5501 36.9116 22.3578 36.9039 22.166C37.8486 21.4686 38.6595 20.6148 39.3133 19.6265C39.3426 19.5823 39.3394 19.5235 39.3052 19.4823Z" fill="white"/>
</svg>
