<svg width="410" height="278" viewBox="0 0 410 278" fill="none" xmlns="http://www.w3.org/2000/svg">
<path d="M0.143066 60.9637V199.305H31.9713V60.9637H0.143066ZM223.772 60.8525C191.37 60.8525 171.43 80.1936 171.43 111.6V151.048C171.43 182.837 191.562 201.796 223.772 201.796C256.174 201.796 276.115 182.837 276.115 151.048V111.6C276.115 80.1941 256.367 60.8525 223.772 60.8525ZM223.772 173.071C209.968 173.071 203.257 163.687 203.257 150.091V112.557C203.257 98.9609 209.967 89.5775 223.772 89.5775C237.577 89.5775 244.288 98.9609 244.288 112.557V150.091C244.288 163.687 237.577 173.071 223.772 173.071ZM157.3 152.197C157.3 125.771 140.812 107.578 115.503 107.578C107.067 107.578 101.315 109.876 96.9049 112.749L135.826 63.3426H100.548L72.1726 99.5357C58.3682 117.537 49.5484 130.75 49.5484 152.389C49.5484 180.923 70.255 201.604 103.424 201.604C136.593 201.604 157.3 180.539 157.3 152.197ZM125.473 152.197C125.473 164.453 117.229 173.645 103.424 173.645C89.6194 173.645 81.3751 164.645 81.3751 152.389C81.3751 139.558 90.1949 130.558 103.424 130.558C117.228 130.558 125.473 139.75 125.473 152.197Z" fill="white"/>
<path d="M410 67.1084H381.519L348.855 158.675L315.708 67.1084H284.492L334.052 197.047H362.21L410 67.1084Z" fill="#59E9FF"/>
<path d="M164.865 221.784H157.092L148.178 243.729L139.132 221.784H130.612L144.138 252.926H151.823L164.866 221.784H164.865ZM184.372 253.452C193.682 253.452 200.884 246.829 200.884 237.355C200.884 227.75 193.682 221.258 184.372 221.258C175.018 221.258 167.816 227.75 167.816 237.355C167.816 246.829 175.018 253.452 184.372 253.452ZM184.372 246.785C178.926 246.785 175.413 242.662 175.413 237.355C175.413 232.092 178.926 227.925 184.372 227.925C189.861 227.925 193.287 232.136 193.287 237.355C193.287 242.618 189.861 246.785 184.372 246.785ZM233.916 246.346H215.516V221.784H208.051V252.925H233.916V246.346H233.916ZM232.124 228.275H243.938V252.925H251.359V228.275H263.172V221.784H232.125V228.275H232.124ZM289.881 252.925H297.785L284.172 221.784H276.531L262.874 252.925H270.383L272.71 247.531H287.554L289.881 252.925H289.881ZM275.389 241.302L280.132 230.322L284.874 241.302H275.389ZM331.74 234.503H314.745V240.6H324.581V245.732C323.572 246.39 321.332 247.092 317.994 247.092C311.539 247.092 307.938 243.012 307.938 237.179C307.938 231.784 311.319 227.617 316.589 227.617C320.365 227.617 322.386 229.284 323.176 230.205H331.037C330.115 226.697 326.25 221.126 316.589 221.126C307.06 221.126 300.385 227.837 300.385 237.179C300.385 247.004 307.148 253.495 317.818 253.495C325.24 253.495 329.983 250.645 331.739 249.109V234.503H331.74ZM339.742 252.925H367.539V246.478H347.207V239.811H358.317V233.539H347.207V227.924H365.827V221.784H339.742V252.926V252.925Z" fill="#59E9FF"/>
<path d="M26.0086 246.345H7.60854V221.783H0.143066V252.925H26.0086V246.345ZM46.1306 253.451C55.4404 253.451 62.6421 246.828 62.6421 237.354C62.6421 227.749 55.4399 221.257 46.1306 221.257C36.7765 221.257 29.5749 227.749 29.5749 237.354C29.5749 246.828 36.7765 253.451 46.1306 253.451ZM46.1306 246.784C40.6849 246.784 37.172 242.661 37.172 237.354C37.172 232.09 40.6849 227.924 46.1306 227.924C51.6195 227.924 55.0449 232.135 55.0449 237.354C55.0449 242.617 51.6195 246.784 46.1306 246.784ZM97.2994 252.924H104.15L114.294 221.782H106.917L100.637 241.886L93.9177 221.782H87.0674L80.3924 241.856L74.1567 221.782H65.9445L76.3961 252.924H83.0711L90.229 232.295L97.2994 252.924Z" fill="white"/>
<path d="M12.4604 21V15.0503H4.64761V21H1.96322V6.77671H4.64761V12.6463H12.4604V6.77671H15.1648V21H12.4604ZM25.7525 21.2404C21.4855 21.2404 18.3003 18.1553 18.3003 13.8884C18.3003 9.62136 21.5256 6.53631 25.7525 6.53631C29.9794 6.53631 33.2047 9.62136 33.2047 13.8884C33.2047 18.1353 29.9794 21.2404 25.7525 21.2404ZM25.7525 18.7964C28.5771 18.7964 30.4602 16.6128 30.4602 13.8884C30.4602 11.1839 28.5771 8.98031 25.7525 8.98031C22.9279 8.98031 21.0648 11.1839 21.0648 13.8884C21.0648 16.6328 22.9078 18.7964 25.7525 18.7964ZM36.375 21V6.77671H43.9875C47.0926 6.77671 48.7553 8.21907 48.7553 10.623C48.7553 12.1856 47.6936 13.1271 46.6118 13.5077C47.934 13.9284 49.0758 15.0703 49.0758 16.9333C49.0758 19.4174 47.3931 21 44.1077 21H36.375ZM43.687 9.06045H39.0194V12.5462H43.687C45.2295 12.5462 45.9908 11.9652 45.9908 10.8033C45.9908 9.60133 45.2095 9.06045 43.687 9.06045ZM43.7872 14.8099H39.0194V18.7163H43.7872C45.53 18.7163 46.3313 18.0351 46.3313 16.753C46.3313 15.4509 45.49 14.8099 43.7872 14.8099ZM54.9644 11.7248H59.8724C63.2379 11.7248 65.0609 13.4877 65.0609 16.3925C65.0609 19.3773 63.2379 21 59.8724 21H52.28V6.77671H54.9644V11.7248ZM59.7322 14.1287H54.9644V18.6161H59.7322C61.4751 18.6161 62.2964 17.8148 62.2964 16.3724C62.2964 15.0102 61.4751 14.1287 59.7322 14.1287ZM67.0642 21V6.77671H69.7686V21H67.0642ZM73.7018 21V6.77671H76.3862V17.3941L84.3993 6.77671H87.0837V21H84.3993V10.3826L76.3862 21H73.7018ZM80.3928 3.77178C81.2542 3.77178 81.5947 3.1708 81.5947 2.50972V2.28936H83.618V2.54978C83.618 4.2726 82.5563 5.65487 80.3928 5.65487C78.2292 5.65487 77.1675 4.2726 77.1675 2.54978V2.28936H79.1908V2.50972C79.1908 3.15077 79.5313 3.77178 80.3928 3.77178ZM106.978 21L102.43 15.6713L97.8227 21H94.6575L100.828 13.8082L94.8178 6.77671H98.3436L102.57 11.7849L106.858 6.77671H110.103L104.153 13.668L110.363 21H106.978ZM118.854 21.2404C114.587 21.2404 111.402 18.1553 111.402 13.8884C111.402 9.62136 114.627 6.53631 118.854 6.53631C123.081 6.53631 126.306 9.62136 126.306 13.8884C126.306 18.1353 123.081 21.2404 118.854 21.2404ZM118.854 18.7964C121.679 18.7964 123.562 16.6128 123.562 13.8884C123.562 11.1839 121.679 8.98031 118.854 8.98031C116.03 8.98031 114.167 11.1839 114.167 13.8884C114.167 16.6328 116.01 18.7964 118.854 18.7964ZM133.611 9.18064L133.05 15.1304C132.629 19.157 131.828 21.1402 128.382 21.1402H127.961V18.4959H128.282C129.844 18.4959 130.285 17.5343 130.546 14.89L131.327 6.77671H142.265V21H139.58V9.18064H133.611ZM152.875 21.2404C148.608 21.2404 145.423 18.1553 145.423 13.8884C145.423 9.62136 148.648 6.53631 152.875 6.53631C157.102 6.53631 160.327 9.62136 160.327 13.8884C160.327 18.1353 157.102 21.2404 152.875 21.2404ZM152.875 18.7964C155.699 18.7964 157.582 16.6128 157.582 13.8884C157.582 11.1839 155.699 8.98031 152.875 8.98031C150.05 8.98031 148.187 11.1839 148.187 13.8884C148.187 16.6328 150.03 18.7964 152.875 18.7964ZM173.216 18.5961V9.18064H167.386L166.825 14.269C166.605 16.3324 166.284 17.7146 165.823 18.5961H173.216ZM165.122 6.77671H175.9V18.5961H178.023V24.2253H175.619V21H164.02V24.2253H161.597V18.5961H163.139C163.68 17.7146 164.081 16.2322 164.321 14.1287L165.122 6.77671ZM180.322 21V6.77671H183.006V17.3941L191.019 6.77671H193.704V21H191.019V10.3826L183.006 21H180.322ZM202.062 9.18064L201.502 15.1304C201.081 19.157 200.28 21.1402 196.834 21.1402H196.413V18.4959H196.734C198.296 18.4959 198.737 17.5343 198.997 14.89L199.779 6.77671H210.717V21H208.032V9.18064H202.062ZM217.32 11.7248H222.228C225.594 11.7248 227.417 13.4877 227.417 16.3925C227.417 19.3773 225.594 21 222.228 21H214.636V6.77671H217.32V11.7248ZM222.088 14.1287H217.32V18.6161H222.088C223.831 18.6161 224.652 17.8148 224.652 16.3724C224.652 15.0102 223.831 14.1287 222.088 14.1287ZM240.94 21V15.0503H233.127V21H230.443V6.77671H233.127V12.6463H240.94V6.77671H243.644V21H240.94ZM247.541 21V6.77671H250.226V17.3941L258.239 6.77671H260.923V21H258.239V10.3826L250.226 21H247.541ZM264.855 21V6.77671H267.539V13.1672L274.871 6.77671H278.477L270.524 13.688L278.818 21H275.071L267.539 14.4893V21H264.855ZM295.879 18.6562V21H285.362V19.2772L290.41 14.5094C291.712 13.2473 292.434 12.3859 292.434 11.1038C292.434 9.82169 291.652 8.92022 290.23 8.92022C288.848 8.92022 288.006 9.90182 288.006 11.2841V12.1255H285.402V11.224C285.402 8.57966 287.165 6.53631 290.23 6.53631C293.315 6.53631 295.118 8.39936 295.118 11.0437C295.118 13.2874 293.796 14.6095 292.033 16.2723L289.509 18.6562H295.879ZM303.61 6.51628C306.815 6.51628 308.838 8.49953 308.838 11.7849V15.9918C308.838 19.3573 306.775 21.2604 303.61 21.2604C300.444 21.2604 298.381 19.3573 298.381 15.9918V11.7849C298.381 8.49953 300.404 6.51628 303.61 6.51628ZM303.61 18.8565C305.312 18.8565 306.194 17.6345 306.194 15.9517V11.825C306.194 10.1422 305.312 8.92022 303.61 8.92022C301.867 8.92022 301.025 10.1422 301.025 11.825V15.9517C301.025 17.6345 301.867 18.8565 303.61 18.8565ZM322.427 18.6562V21H311.909V19.2772L316.958 14.5094C318.26 13.2473 318.981 12.3859 318.981 11.1038C318.981 9.82169 318.2 8.92022 316.777 8.92022C315.395 8.92022 314.554 9.90182 314.554 11.2841V12.1255H311.949V11.224C311.949 8.57966 313.712 6.53631 316.777 6.53631C319.862 6.53631 321.665 8.39936 321.665 11.0437C321.665 13.2874 320.343 14.6095 318.58 16.2723L316.056 18.6562H322.427ZM334.925 16.9934C334.925 19.5376 332.962 21.2404 329.576 21.2404C325.93 21.2404 324.388 18.9567 324.227 17.0335H326.892C327.052 17.8548 327.853 18.8765 329.576 18.8765C331.259 18.8765 332.24 18.1153 332.24 16.8332C332.24 15.5511 331.399 14.8499 329.937 14.8499H327.252V12.5261H329.856C331.078 12.5261 331.82 11.9051 331.82 10.7232C331.82 9.54123 330.918 8.86012 329.496 8.86012C327.973 8.86012 327.312 9.74156 327.152 10.603H324.528C324.588 8.69986 326.17 6.53631 329.476 6.53631C332.681 6.53631 334.484 8.1189 334.484 10.5429C334.484 12.2056 333.382 13.1471 332.541 13.4677C333.603 13.7882 334.925 14.8099 334.925 16.9934ZM219.586 34.8C217.643 34.8 216.621 35.4611 216.621 36.5028C216.621 37.4644 217.443 38.0253 218.945 38.2056C219.827 38.2857 220.488 38.3659 221.449 38.466C224.274 38.7264 226.477 39.8683 226.477 42.8332C226.477 45.3974 224.454 47.2604 220.428 47.2604C215.8 47.2604 213.977 44.8966 213.436 42.8732H216.301C216.681 43.7747 217.823 44.9767 220.428 44.9767C222.591 44.9767 223.733 44.1553 223.733 43.0135C223.733 41.6512 222.731 41.2105 221.269 41.0302L218.745 40.7698C215.92 40.5094 213.897 39.1271 213.897 36.5829C213.897 34.0388 216.201 32.5163 219.586 32.5163C224.053 32.5163 225.716 34.6398 226.137 36.4627H223.392C222.952 35.7616 221.93 34.8 219.586 34.8ZM228.047 35.1806V32.7767H242.03V35.1806H236.381V47H233.696V35.1806H228.047ZM244.744 47V32.7767H256.262V35.1005H247.428V38.3458H252.697V40.6897H247.428V44.6161H257.064V47H244.744ZM259.807 47V32.7767H271.326V35.1005H262.492V38.3458H267.76V40.6897H262.492V44.6161H272.128V47H259.807ZM286.35 44.576V47H274.871V32.7767H277.556V44.576H286.35ZM294.2 47V32.7767H305.719V35.1005H296.884V38.3458H302.153V40.6897H296.884V44.6161H306.52V47H294.2ZM309.263 47V32.7767H315.013C319.56 32.7767 322.625 35.401 322.625 39.8884C322.625 44.3156 319.58 47 315.013 47H309.263ZM314.973 35.1406H311.948V44.6361H314.973C317.938 44.6361 319.881 42.8332 319.881 39.8884C319.881 36.8634 317.938 35.1406 314.973 35.1406ZM325.834 47V32.7767H328.538V47H325.834ZM331.263 35.1806V32.7767H345.246V35.1806H339.597V47H336.912V35.1806H331.263ZM347.98 47V32.7767H350.684V47H347.98ZM361.322 47.2404C357.055 47.2404 353.869 44.1553 353.869 39.8884C353.869 35.6214 357.095 32.5363 361.322 32.5363C365.549 32.5363 368.774 35.6214 368.774 39.8884C368.774 44.1353 365.549 47.2404 361.322 47.2404ZM361.322 44.7964C364.146 44.7964 366.029 42.6128 366.029 39.8884C366.029 37.1839 364.146 34.9803 361.322 34.9803C358.497 34.9803 356.634 37.1839 356.634 39.8884C356.634 42.6328 358.477 44.7964 361.322 44.7964ZM385.286 32.7767V47.0601H383.183L374.548 36.1623V47H371.944V32.7767H375.069L382.702 42.5327V32.7767H385.286Z" fill="#FEFEFE"/>
<path d="M15.3451 38.5862V45.2571C14.5438 45.9583 12.3803 47.2604 8.99473 47.2604C4.12676 47.2604 1.04171 44.2956 1.04171 39.8082C1.04171 35.5412 4.08669 32.4762 8.43381 32.4762C12.841 32.4762 14.6039 35.0204 15.0246 36.623H11.4387C11.0781 36.2023 10.1566 35.4411 8.43381 35.4411C6.02988 35.4411 4.48735 37.3442 4.48735 39.8082C4.48735 42.4726 6.13004 44.3356 9.07486 44.3356C10.5974 44.3356 11.619 44.0151 12.0798 43.7146V41.3708H7.59243V38.5862H15.3451ZM18.4886 47V32.7767H26.8222C29.9674 32.7767 31.8905 34.2792 31.8905 37.244C31.8905 39.2473 30.8889 40.5895 29.1861 41.2105L32.3913 47H28.8055L25.8005 41.5911H21.8941V47H18.4886ZM26.4616 35.7015H21.8941V38.7264H26.4616C27.7638 38.7264 28.4048 38.2256 28.4048 37.244C28.4048 36.1422 27.7437 35.7015 26.4616 35.7015ZM45.7623 47L44.7005 44.536H37.9295L36.8677 47H33.4421L39.6723 32.7567H43.158L49.3682 47H45.7623ZM39.1515 41.6913H43.4785L41.315 36.6631L39.1515 41.6913ZM65.2758 32.7767V47.0401H62.5113L54.7586 37.204V47H51.4331V32.7767H55.2995L62.0305 41.491V32.7767H65.2758ZM68.7271 47V32.7767H74.6167C79.1642 32.7767 82.4095 35.2207 82.4095 39.8884C82.4095 44.4558 79.1642 47 74.6167 47H68.7271ZM74.5566 35.7015H72.1327V44.0752H74.5566C77.1809 44.0752 78.9438 42.5327 78.9438 39.8884C78.9438 37.1439 77.1809 35.7015 74.5566 35.7015ZM90.2672 47V32.7767H93.6728V47H90.2672ZM110.995 32.7767V47.0401H108.231L100.478 37.204V47H97.1525V32.7767H101.019L107.75 41.491V32.7767H110.995ZM128.77 32.7767L122.82 47.02H119.314L113.144 32.7767H117.031L121.157 42.8131L125.224 32.7767H128.77ZM130.899 47V32.7767H142.799V35.5813H134.305V38.1455H139.373V41.0102H134.305V44.0552H143.58V47H130.899ZM146.022 47V32.7767H154.355C157.5 32.7767 159.424 34.2792 159.424 37.244C159.424 39.2473 158.422 40.5895 156.719 41.2105L159.924 47H156.339L153.334 41.5911H149.427V47H146.022ZM153.995 35.7015H149.427V38.7264H153.995C155.297 38.7264 155.938 38.2256 155.938 37.244C155.938 36.1422 155.277 35.7015 153.995 35.7015ZM161.218 35.7416V32.7767H175.381V35.7416H169.992V47H166.607V35.7416H161.218ZM177.812 47V32.7767H189.711V35.5813H181.218V38.1455H186.286V41.0102H181.218V44.0552H190.493V47H177.812ZM192.934 47V32.7767H201.268C204.413 32.7767 206.336 34.2792 206.336 37.244C206.336 39.2473 205.335 40.5895 203.632 41.2105L206.837 47H203.251L200.246 41.5911H196.34V47H192.934ZM200.907 35.7015H196.34V38.7264H200.907C202.21 38.7264 202.851 38.2256 202.851 37.244C202.851 36.1422 202.19 35.7015 200.907 35.7015Z" fill="#59E9FF"/>
<path d="M5.02423 274.514C2.52413 274.514 0.721181 272.603 0.721181 270.103C0.721181 267.603 2.52413 265.692 5.02423 265.692C7.65654 265.692 8.77437 267.459 9.00274 268.456H7.34403C7.09161 268.012 6.39447 267.17 5.02423 267.17C3.42561 267.17 2.39192 268.505 2.39192 270.103C2.39192 271.702 3.42561 273.036 5.02423 273.036C6.50265 273.036 7.15171 272.183 7.36807 271.738H9.00274C8.81043 272.639 7.76472 274.514 5.02423 274.514ZM10.7063 274.37V265.836H18.4951V274.37H16.8845V267.279H12.317V274.37H10.7063ZM24.7423 274.514C22.1821 274.514 20.271 272.663 20.271 270.103C20.271 267.543 22.2062 265.692 24.7423 265.692C27.2785 265.692 29.2137 267.543 29.2137 270.103C29.2137 272.651 27.2785 274.514 24.7423 274.514ZM24.7423 273.048C26.4371 273.048 27.567 271.738 27.567 270.103C27.567 268.48 26.4371 267.158 24.7423 267.158C23.0476 267.158 21.9297 268.48 21.9297 270.103C21.9297 271.75 23.0355 273.048 24.7423 273.048ZM34.842 274.514C32.3419 274.514 30.5389 272.603 30.5389 270.103C30.5389 267.603 32.3419 265.692 34.842 265.692C37.4743 265.692 38.5921 267.459 38.8205 268.456H37.1618C36.9094 268.012 36.2122 267.17 34.842 267.17C33.2434 267.17 32.2097 268.505 32.2097 270.103C32.2097 271.702 33.2434 273.036 34.842 273.036C36.3204 273.036 36.9695 272.183 37.1858 271.738H38.8205C38.6282 272.639 37.5825 274.514 34.842 274.514ZM44.4213 274.514C41.8611 274.514 39.95 272.663 39.95 270.103C39.95 267.543 41.8851 265.692 44.4213 265.692C46.9574 265.692 48.8926 267.543 48.8926 270.103C48.8926 272.651 46.9574 274.514 44.4213 274.514ZM44.4213 273.048C46.1161 273.048 47.2459 271.738 47.2459 270.103C47.2459 268.48 46.1161 267.158 44.4213 267.158C42.7265 267.158 41.6087 268.48 41.6087 270.103C41.6087 271.75 42.7145 273.048 44.4213 273.048ZM52.2853 269.214H55.182C57.1893 269.214 58.2831 270.187 58.2831 271.786C58.2831 273.469 57.1893 274.37 55.182 274.37H50.6746V265.836H57.5859V267.279H52.2853V269.214ZM55.1459 270.584H52.2853V272.94H55.1459C56.1436 272.94 56.6244 272.531 56.6244 271.762C56.6244 271.053 56.1436 270.584 55.1459 270.584ZM66.3722 274.37V270.8H61.6846V274.37H60.0739V265.836H61.6846V269.358H66.3722V265.836H67.9949V274.37H66.3722ZM74.2273 274.514C71.6671 274.514 69.756 272.663 69.756 270.103C69.756 267.543 71.6911 265.692 74.2273 265.692C76.7634 265.692 78.6986 267.543 78.6986 270.103C78.6986 272.651 76.7634 274.514 74.2273 274.514ZM74.2273 273.048C75.9221 273.048 77.0519 271.738 77.0519 270.103C77.0519 268.48 75.9221 267.158 74.2273 267.158C72.5325 267.158 71.4147 268.48 71.4147 270.103C71.4147 271.75 72.5205 273.048 74.2273 273.048ZM84.3269 274.514C81.8268 274.514 80.0239 272.603 80.0239 270.103C80.0239 267.603 81.8268 265.692 84.3269 265.692C86.9592 265.692 88.0771 267.459 88.3054 268.456H86.6467C86.3943 268.012 85.6972 267.17 84.3269 267.17C82.7283 267.17 81.6946 268.505 81.6946 270.103C81.6946 271.702 82.7283 273.036 84.3269 273.036C85.8053 273.036 86.4544 272.183 86.6708 271.738H88.3054C88.1131 272.639 87.0674 274.514 84.3269 274.514ZM89.2758 267.279V265.836H97.6656V267.279H94.276V274.37H92.6654V267.279H89.2758ZM100.784 268.805H103.729C105.748 268.805 106.842 269.863 106.842 271.606C106.842 273.397 105.748 274.37 103.729 274.37H99.1736V265.836H100.784V268.805ZM103.645 270.247H100.784V272.94H103.645C104.691 272.94 105.183 272.459 105.183 271.594C105.183 270.776 104.691 270.247 103.645 270.247ZM111.516 274.37V265.836H116.228C118.151 265.836 119.209 266.75 119.209 268.444C119.209 270.091 118.151 271.101 116.228 271.101H113.127V274.37H111.516ZM116.144 267.279H113.127V269.658H116.144C117.093 269.658 117.55 269.19 117.55 268.468C117.55 267.699 117.105 267.279 116.144 267.279ZM126.599 274.37L125.818 272.615H121.515L120.734 274.37H119.111L122.945 265.8H124.472L128.318 274.37H126.599ZM122.128 271.221H125.205L123.666 267.771L122.128 271.221ZM131.28 269.214H134.177C136.184 269.214 137.278 270.187 137.278 271.786C137.278 273.469 136.184 274.37 134.177 274.37H129.669V265.836H136.581V267.279H131.28V269.214ZM134.141 270.584H131.28V272.94H134.141C135.138 272.94 135.619 272.531 135.619 271.762C135.619 271.053 135.138 270.584 134.141 270.584ZM143.083 274.514C140.523 274.514 138.612 272.663 138.612 270.103C138.612 267.543 140.547 265.692 143.083 265.692C145.619 265.692 147.555 267.543 147.555 270.103C147.555 272.651 145.619 274.514 143.083 274.514ZM143.083 273.048C144.778 273.048 145.908 271.738 145.908 270.103C145.908 268.48 144.778 267.158 143.083 267.158C141.388 267.158 140.271 268.48 140.271 270.103C140.271 271.75 141.376 273.048 143.083 273.048ZM148.298 267.279V265.836H156.688V267.279H153.298V274.37H151.688V267.279H148.298ZM159.807 268.805H162.751C164.771 268.805 165.864 269.863 165.864 271.606C165.864 273.397 164.771 274.37 162.751 274.37H158.196V265.836H159.807V268.805ZM162.667 270.247H159.807V272.94H162.667C163.713 272.94 164.206 272.459 164.206 271.594C164.206 270.776 163.713 270.247 162.667 270.247ZM167.066 274.37V265.836H168.689V274.37H167.066ZM173.907 274.37V265.836H181.696V274.37H180.086V267.279H175.518V274.37H173.907ZM183.929 274.37V265.836H188.641C190.564 265.836 191.621 266.75 191.621 268.444C191.621 270.091 190.564 271.101 188.641 271.101H185.539V274.37H183.929ZM188.556 267.279H185.539V269.658H188.556C189.506 269.658 189.963 269.19 189.963 268.468C189.963 267.699 189.518 267.279 188.556 267.279ZM193.305 274.37V265.836H194.915V272.207L199.723 265.836H201.334V274.37H199.723V268L194.915 274.37H193.305ZM212.849 274.37V270.8H208.162V274.37H206.551V265.836H208.162V269.358H212.849V265.836H214.472V274.37H212.849ZM216.69 274.37V265.836H218.301V272.207L223.108 265.836H224.719V274.37H223.108V268L218.301 274.37H216.69ZM230.492 265.692C232.968 265.692 234.158 266.69 234.158 268.072C234.158 269.081 233.497 269.755 232.787 269.947C233.605 270.163 234.362 270.776 234.362 271.786C234.362 273.481 233.004 274.514 230.516 274.514C227.727 274.514 226.585 272.928 226.453 271.798H228.088C228.304 272.399 229.001 273.06 230.516 273.06C231.958 273.06 232.715 272.591 232.715 271.762C232.715 271.089 232.138 270.716 230.84 270.716H229.566V269.346H230.84C231.982 269.346 232.499 268.961 232.499 268.228C232.499 267.519 231.862 267.146 230.468 267.146C229.109 267.146 228.424 267.699 228.136 268.264H226.489C226.705 267.122 227.823 265.692 230.492 265.692ZM236.169 274.37V265.836H237.78V269.67L242.179 265.836H244.343L239.571 269.983L244.547 274.37H242.299L237.78 270.464V274.37H236.169ZM249.102 274.514C246.542 274.514 244.631 272.663 244.631 270.103C244.631 267.543 246.566 265.692 249.102 265.692C251.638 265.692 253.573 267.543 253.573 270.103C253.573 272.651 251.638 274.514 249.102 274.514ZM249.102 273.048C250.797 273.048 251.927 271.738 251.927 270.103C251.927 268.48 250.797 267.158 249.102 267.158C247.407 267.158 246.289 268.48 246.289 270.103C246.289 271.75 247.395 273.048 249.102 273.048ZM257.771 265.836L260.319 272.05L262.88 265.836H265.199V274.37H263.637V267.375L260.776 274.406H259.682L256.846 267.435V274.37H255.355V265.836H257.771ZM276.696 274.37V270.8H272.008V274.37H270.398V265.836H272.008V269.358H276.696V265.836H278.319V274.37H276.696ZM287.147 274.37L286.366 272.615H282.063L281.282 274.37H279.659L283.493 265.8H285.02L288.866 274.37H287.147ZM282.676 271.221H285.753L284.215 267.771L282.676 271.221ZM290.218 274.37V265.836H298.006V274.37H296.396V267.279H291.828V274.37H290.218ZM300.239 274.37V265.836H304.951C306.874 265.836 307.932 266.75 307.932 268.444C307.932 270.091 306.874 271.101 304.951 271.101H301.85V274.37H300.239ZM304.867 267.279H301.85V269.658H304.867C305.816 269.658 306.273 269.19 306.273 268.468C306.273 267.699 305.828 267.279 304.867 267.279ZM310.794 274.37H309.051L311.155 270.884C309.965 270.56 309.316 269.743 309.316 268.505C309.316 266.738 310.373 265.836 312.261 265.836H317.008V274.37H315.398V271.089H312.753L310.794 274.37ZM312.393 269.694H315.398V267.254H312.393C311.431 267.254 310.974 267.639 310.974 268.505C310.974 269.298 311.443 269.694 312.393 269.694ZM318.095 274.37L322.566 270.019L318.239 265.836H320.246L324.177 269.67V265.836H325.739V269.682L329.67 265.836H331.665L327.374 269.971L331.882 274.37H329.79L325.739 270.452V274.37H324.177V270.464L320.126 274.37H318.095ZM332.968 274.37V265.836H339.879V267.23H334.578V269.178H337.74V270.584H334.578V272.94H340.36V274.37H332.968ZM348.184 274.37V270.8H343.496V274.37H341.886V265.836H343.496V269.358H348.184V265.836H349.807V274.37H348.184ZM352.025 274.37V265.836H353.635V272.207L358.443 265.836H360.054V274.37H358.443V268L353.635 274.37H352.025ZM362.292 274.37V265.836H363.903V272.207L368.711 265.836H370.322V274.37H368.711V268L363.903 274.37H362.292Z" fill="#FEFEFE"/>
</svg>
