<svg width="578" height="105" viewBox="0 0 578 105" fill="none" xmlns="http://www.w3.org/2000/svg">
<path fill-rule="evenodd" clip-rule="evenodd" d="M26.4453 60.4033H31.604V42.5186H26.4453V60.4033ZM49.0929 60.4033H53.4207V42.5186H48.489V52.0658L41.1912 42.5186H35.4286V60.4033H40.4868V49.4207L49.0929 60.4033ZM75.9677 42.5186H70.5828L66.0784 54.0049L61.549 42.5186H55.6103L63.2604 60.4033H68.6707L75.9681 42.5186H75.9677ZM78.1573 60.4033H94.5385V56.02H83.3156V53.2747H89.4053V49.0176H83.3156V46.675H93.5575V42.5186H78.1573V60.4033ZM97.2314 60.4033H102.39V54.1816H106.441L109.939 60.4033H115.374L111.499 53.5772C113.537 52.6953 114.745 50.9325 114.745 48.4132C114.745 44.5342 112.153 42.5186 108.177 42.5186H97.231V60.4033H97.2314ZM116.633 46.9519H123.1V60.4033H128.233V46.9519H134.7V42.5186H116.632V46.9519H116.633ZM137.393 60.4033H153.775V56.02H142.552V53.2747H148.641V49.0176H142.552V46.675H152.793V42.5186H137.393V60.4033ZM156.467 60.4033H161.626V54.1816H165.677L169.175 60.4033H174.611L170.736 53.5772C172.774 52.6953 173.982 50.9325 173.982 48.4132C173.982 44.5342 171.389 42.5186 167.414 42.5186H156.467V60.4033ZM166.759 46.8768C168.042 46.8768 168.697 47.3049 168.697 48.3881C168.697 49.3957 168.043 49.8999 166.759 49.8999H161.626V46.8768H166.759ZM107.523 46.8768C108.807 46.8768 109.461 47.3049 109.461 48.3881C109.461 49.3957 108.807 49.8999 107.523 49.8999H102.39V46.8768H107.523Z" fill="#FEFEFE"/>
<path d="M80.8528 68.0763H78.6641V66.779H84.3936V68.0763H82.2049V73.0527H80.8532V68.0763H80.8528ZM93.6951 73.0527H89.0217V66.7795H93.6851V68.0768H90.3658V69.0914H92.3217V70.3887H90.3658V71.7563H93.9816V73.0536H93.6946L93.6951 73.0527ZM102.693 72.6117C102.479 72.7776 102.223 72.918 101.922 73.0144C101.654 73.0994 101.352 73.1491 101.015 73.1491C100.61 73.1491 100.239 73.0659 99.9085 72.9137C99.5629 72.754 99.2636 72.52 99.0176 72.228C98.7688 71.9321 98.5762 71.5787 98.4464 71.185C98.3184 70.7965 98.2509 70.3674 98.2509 69.9161C98.2509 69.469 98.3189 69.0413 98.4478 68.6519C98.579 68.2573 98.7721 67.9028 99.0204 67.6079C99.2674 67.3145 99.5667 67.0791 99.9113 66.9199C100.241 66.7672 100.611 66.6836 101.015 66.6836C101.355 66.6836 101.658 66.7322 101.924 66.8149C102.225 66.9085 102.479 67.0465 102.692 67.2096C102.943 67.4033 103.135 67.632 103.276 67.866C103.447 68.1486 103.544 68.4402 103.582 68.685L103.634 69.0163H102.332L102.262 68.8286C102.227 68.7341 102.163 68.6061 102.061 68.477C101.986 68.3816 101.891 68.2861 101.773 68.2062C101.674 68.1391 101.558 68.082 101.425 68.0437C101.305 68.0092 101.169 67.9893 101.014 67.9893C100.807 67.9893 100.626 68.0328 100.471 68.1108C100.304 68.1944 100.162 68.3192 100.046 68.4737C99.916 68.6472 99.8164 68.8603 99.7484 69.099C99.6772 69.349 99.6417 69.6269 99.6417 69.9165C99.6417 70.2072 99.6772 70.4846 99.7484 70.7346C99.8164 70.9733 99.916 71.1864 100.046 71.3598C100.162 71.5149 100.304 71.6396 100.471 71.7233C100.626 71.8012 100.807 71.8442 101.014 71.8442C101.17 71.8442 101.308 71.8234 101.428 71.7885C101.563 71.7497 101.679 71.6916 101.779 71.6235C101.899 71.5418 101.996 71.444 102.073 71.3461C102.176 71.2143 102.243 71.0838 102.278 70.9884L102.347 70.8008H103.627L103.583 71.1254C103.55 71.3693 103.454 71.6614 103.284 71.9449C103.141 72.1807 102.947 72.4142 102.692 72.6117H102.693ZM113.402 73.0527H112.337V70.5404H109.76V73.0527H108.409V66.7795H109.76V69.2436H112.337V66.7795H113.689V73.0527H113.402ZM123.175 66.7795H124.208V73.0928H123.191L120.199 68.9487V73.0527H118.879V66.7795H120.243L122.888 70.4893V66.7795H123.175H123.175ZM133.996 72.2332C133.743 72.5252 133.434 72.7578 133.078 72.9156C132.738 73.0668 132.356 73.1491 131.938 73.1491C131.517 73.1491 131.132 73.0678 130.79 72.918C130.434 72.7615 130.125 72.5314 129.873 72.2403C129.62 71.9496 129.424 71.5976 129.292 71.2001C129.162 70.8097 129.094 70.3764 129.094 69.9156C129.094 69.46 129.163 69.03 129.294 68.641C129.429 68.2441 129.627 67.8906 129.881 67.5985C130.134 67.3069 130.443 67.0739 130.798 66.9165C131.139 66.7658 131.522 66.6831 131.938 66.6831C132.356 66.6831 132.738 66.7653 133.078 66.9165C133.434 67.0744 133.743 67.3069 133.996 67.599C134.25 67.892 134.449 68.2445 134.583 68.641C134.714 69.03 134.783 69.4605 134.783 69.9156C134.783 70.3712 134.713 70.8017 134.583 71.1907C134.449 71.5872 134.251 71.9397 133.996 72.2327V72.2332ZM130.89 71.3603C131.014 71.5177 131.166 71.6425 131.346 71.727C131.517 71.8079 131.715 71.8518 131.938 71.8518C132.161 71.8518 132.357 71.8074 132.527 71.7266C132.707 71.6415 132.86 71.5158 132.984 71.3584C133.12 71.1873 133.224 70.9756 133.296 70.7356C133.369 70.4889 133.407 70.2119 133.407 69.9161C133.407 69.6259 133.369 69.3504 133.295 69.1027C133.222 68.8627 133.117 68.6495 132.98 68.477C132.855 68.3187 132.702 68.1911 132.523 68.1056C132.354 68.0243 132.158 67.9803 131.938 67.9803C131.716 67.9803 131.519 68.0248 131.349 68.1056C131.17 68.1907 131.017 68.3164 130.893 68.4737C130.757 68.6448 130.653 68.857 130.581 69.0971C130.508 69.3438 130.47 69.6207 130.47 69.9161C130.47 70.2148 130.508 70.4931 130.58 70.7398C130.651 70.9794 130.755 71.1902 130.89 71.3608L130.89 71.3603ZM141.021 71.7474H144.468V73.0527H139.669V66.7795H141.021V71.7474ZM153.519 72.2332C153.266 72.5252 152.957 72.7578 152.601 72.9156C152.261 73.0668 151.879 73.1491 151.461 73.1491C151.04 73.1491 150.655 73.0678 150.313 72.918C149.957 72.762 149.648 72.5314 149.396 72.2407C149.144 71.9511 148.948 71.599 148.815 71.2006C148.685 70.8102 148.616 70.3769 148.616 69.9161C148.616 69.4605 148.686 69.0304 148.818 68.6415C148.951 68.245 149.149 67.8924 149.403 67.5994C149.657 67.3074 149.965 67.0749 150.321 66.917C150.663 66.7663 151.045 66.6836 151.461 66.6836C151.879 66.6836 152.261 66.7658 152.602 66.917C152.957 67.0749 153.265 67.3074 153.519 67.5994C153.773 67.8924 153.972 68.245 154.105 68.6415C154.236 69.0304 154.306 69.461 154.306 69.9161C154.306 70.3717 154.236 70.8022 154.105 71.1911C153.972 71.5876 153.773 71.9402 153.519 72.2332ZM150.412 71.3603C150.536 71.5177 150.689 71.6425 150.868 71.727C151.039 71.8079 151.238 71.8518 151.461 71.8518C151.683 71.8518 151.881 71.8074 152.051 71.7266C152.23 71.6415 152.383 71.5158 152.507 71.3584C152.643 71.1873 152.747 70.9756 152.819 70.7351C152.892 70.4884 152.931 70.2114 152.931 69.9161C152.931 69.6254 152.892 69.3494 152.818 69.1027C152.745 68.8631 152.64 68.6505 152.503 68.4775C152.378 68.3192 152.225 68.1916 152.046 68.1061C151.877 68.0248 151.682 67.9808 151.462 67.9808C151.24 67.9808 151.043 68.0252 150.873 68.1061C150.693 68.1911 150.54 68.3168 150.416 68.4742C150.28 68.6453 150.176 68.8575 150.105 69.0976C150.031 69.3442 149.993 69.6217 149.993 69.9165C149.993 70.2152 150.03 70.4936 150.104 70.7403C150.174 70.9799 150.278 71.1907 150.413 71.3613L150.412 71.3603ZM161.499 69.2837H164.4V72.2233L164.308 72.3088C164.178 72.4307 164.016 72.5569 163.82 72.6722C163.654 72.7705 163.462 72.8617 163.244 72.9373C163.052 73.004 162.84 73.0588 162.609 73.0957C162.395 73.1302 162.166 73.1491 161.924 73.1491C161.48 73.1491 161.072 73.0678 160.708 72.918C160.329 72.762 160 72.5319 159.73 72.2417C159.458 71.9496 159.245 71.5957 159.102 71.1963C158.962 70.805 158.887 70.3707 158.887 69.908C158.887 69.4596 158.96 69.0352 159.095 68.6505C159.233 68.2549 159.438 67.9024 159.697 67.6089C159.957 67.3149 160.272 67.0801 160.63 66.9208C160.975 66.7667 161.36 66.6826 161.773 66.6826C162.081 66.6826 162.36 66.7228 162.609 66.7913C162.89 66.8693 163.131 66.9832 163.336 67.1169C163.585 67.2795 163.781 67.4733 163.929 67.6661C164.126 67.9203 164.242 68.1769 164.293 68.3622L164.392 68.7256H163.062L162.977 68.5971C162.94 68.5413 162.891 68.4742 162.827 68.4057C162.764 68.3376 162.686 68.2672 162.591 68.2048C162.496 68.1415 162.383 68.0853 162.25 68.0446C162.116 68.004 161.958 67.9789 161.773 67.9789C161.547 67.9789 161.346 68.0238 161.171 68.1061C160.988 68.1921 160.829 68.3197 160.699 68.4803C160.559 68.6524 160.451 68.8627 160.378 69.1004C160.303 69.3433 160.263 69.6155 160.263 69.9071C160.263 70.2081 160.304 70.4832 160.383 70.7242C160.462 70.9657 160.577 71.1732 160.724 71.3419C160.867 71.5054 161.041 71.6335 161.244 71.7204C161.443 71.8055 161.671 71.8513 161.924 71.8513C162.072 71.8513 162.206 71.8433 162.327 71.8301C162.46 71.8154 162.581 71.7932 162.689 71.7667C162.794 71.7403 162.886 71.7105 162.965 71.6779C163.011 71.6595 163.051 71.6401 163.088 71.6202V70.556H161.212V69.2833H161.499L161.499 69.2837ZM174.319 67.2228L172.152 70.5531V73.0527H170.801V70.5631L168.292 66.779H169.943L171.497 69.1665L173.05 66.779H174.606L174.318 67.2223L174.319 67.2228Z" fill="#59E9FF"/>
<path fill-rule="evenodd" clip-rule="evenodd" d="M24.8557 27.0528C12.1724 31.6398 5.60494 45.6506 10.1877 58.3468C14.77 71.0429 28.7666 77.6166 41.4498 73.0302C46.2885 71.2802 50.2372 68.1582 53.0155 64.2608C50.0493 69.2405 45.4094 73.2627 39.5368 75.3865C26.0406 80.2674 11.148 73.2721 6.27156 59.7627C1.39609 46.2532 8.38377 31.3449 21.8795 26.464C27.752 24.3397 33.889 24.4649 39.3499 26.3964C34.7246 25.1771 29.6943 25.3023 24.8557 27.0523V27.0528Z" fill="#FEFEFE"/>
<path d="M42.7931 30.6488C46.5927 32.4333 49.6274 35.1871 51.7415 38.4777C50.0103 36.5321 47.8655 34.8979 45.36 33.7211C35.4462 29.0652 23.6392 33.335 18.9875 43.2589C14.3363 53.1829 18.6018 65.0023 28.5156 69.6588C31.0206 70.8355 33.6474 71.4418 36.2488 71.5312C32.3699 72.0066 28.314 71.4305 24.5145 69.646C13.757 64.5935 9.128 51.7674 14.1753 40.999C19.2226 30.2306 32.0357 25.5963 42.7931 30.6493V30.6488Z" fill="#59E9FF"/>
<path d="M300.572 33.1826C291.197 33.5828 282.084 38.4243 286.356 49.8585C284.433 40.5165 295.146 35.5994 295.146 35.5994C288.143 40.0743 287.746 45.909 288.412 49.6141C297.586 48.0553 297.79 40.9538 300.572 33.1826Z" fill="#59E9FF"/>
<path d="M295.156 35.5972C288.153 40.0721 287.756 45.9068 288.422 49.6119C289.37 49.4496 290.221 49.2282 290.99 48.9557C288.222 41.764 295.156 35.5967 295.156 35.5967V35.5972Z" fill="#59E9FF"/>
<path d="M266.468 6.03468C282.389 9.00241 296.784 19.4934 286.706 37.9835C292.259 22.4977 275.15 11.4863 275.15 11.4863C286.031 20.8363 285.291 30.899 283.251 37.0658C267.96 32.1737 269.336 19.9898 266.468 6.03418L266.468 6.03468Z" fill="#59E9FF"/>
<path fill-rule="evenodd" clip-rule="evenodd" d="M225.796 49.9427H236.105C239.918 49.9427 241.906 48.115 241.906 45.269C241.906 43.0711 240.658 41.7523 239.271 41.2429C240.38 40.757 241.467 39.6696 241.467 37.9807C241.467 35.32 239.548 33.5153 235.965 33.5153H225.796V49.9427ZM235.041 37.2173C236.035 37.2173 236.636 37.5414 236.636 38.4435C236.636 39.3456 236.035 39.6696 235.041 39.6696H230.441V37.2173H235.041ZM235.11 43.3717C236.381 43.3717 237.052 43.8114 237.052 44.8062C237.052 45.8009 236.381 46.2407 235.11 46.2407H230.441V43.3717H235.11ZM246.265 49.9427H251.003V33.5153H246.265V49.9427ZM264.215 50.2202C269.139 50.2202 273.022 46.8192 273.022 41.7288C273.022 36.5461 269.138 33.2373 264.215 33.2373C259.292 33.2373 255.409 36.5456 255.409 41.7288C255.409 46.8187 259.246 50.2202 264.215 50.2202ZM264.215 46.0093C261.719 46.0093 260.217 44.135 260.217 41.7288C260.217 39.3225 261.742 37.4482 264.215 37.4482C266.711 37.4482 268.214 39.3225 268.214 41.7288C268.214 44.135 266.711 46.0093 264.215 46.0093Z" fill="#FEFEFE"/>
<path fill-rule="evenodd" clip-rule="evenodd" d="M225.796 72.668H230.534V66.4671H236.313V62.6268H230.534V60.0813H240.774V56.2411H225.796V72.668H225.796ZM244.856 72.668H249.594V66.9529H253.315L256.528 72.668H261.52L257.961 66.3979C259.834 65.588 260.943 63.9682 260.943 61.6551C260.943 58.0918 258.562 56.2411 254.911 56.2411H244.857V72.668H244.856ZM254.309 60.2436C255.488 60.2436 256.089 60.6368 256.089 61.6316C256.089 62.5572 255.488 63.02 254.309 63.02H249.594V60.2436H254.309ZM265.395 72.668H280.442V68.6419H270.133V66.1205H275.727V62.2101H270.133V60.0583H279.54V56.2411H265.395V72.668ZM291.042 59.6185C292.96 59.6185 293.954 60.2662 294.232 60.6598H298.97C298.461 58.5546 296.682 55.917 291.042 55.917C286.858 55.917 283.808 57.5599 283.808 60.9604C283.808 64.1535 286.234 65.9116 290.21 66.2822C291.019 66.3514 291.666 66.398 292.498 66.4906C293.7 66.6524 294.416 66.9304 294.416 67.8325C294.416 68.7346 293.654 69.267 291.805 69.267C289.748 69.267 288.639 68.4571 288.384 67.7398H283.392C283.831 70.0303 285.958 72.9685 291.805 72.9685C296.774 72.9685 299.363 71.0021 299.363 67.4854C299.363 63.8991 296.982 62.3949 292.752 62.0944L290.487 61.909C289.308 61.8164 288.684 61.4462 288.684 60.729C288.684 59.9887 289.562 59.6185 291.042 59.6185ZM315.441 72.668H320.179V56.2411H315.441V62.3954H308.437V56.2411H303.699V72.668H308.437V66.5137H315.441V72.668Z" fill="#FEFEFE"/>
<path fill-rule="evenodd" clip-rule="evenodd" d="M402.13 51.7536C403.855 52.4027 405.357 53.4158 406.569 54.8478C407.998 56.535 408.646 58.5336 408.646 60.7393C408.646 63.8206 407.665 66.5416 405.281 68.5488C402.963 70.5004 400.204 71.3407 397.189 71.3407C394.829 71.3407 392.573 70.8216 390.527 69.6309C388.494 68.4481 387.076 66.712 386.208 64.5277L386.006 64.0184L392.27 60.4046L392.509 61.1521C393.229 63.3986 394.909 64.2224 397.189 64.2224C398.296 64.2224 399.483 64.0184 400.346 63.271C401.111 62.6085 401.405 61.7395 401.405 60.7387C401.405 59.7403 401.095 58.8896 400.341 58.224C399.482 57.465 398.3 57.2555 397.189 57.2555H395.549L392.817 53.1276L398.287 45.9867H387.073V39.1279H407.39V44.9181L402.129 51.753L402.13 51.7536ZM413.218 39.1285H422.828C426.008 39.1285 429.144 39.6928 432.007 41.1174C434.617 42.4163 436.744 44.2793 438.27 46.7677C438.497 47.1396 438.706 47.5176 438.897 47.9011C438.369 47.8388 437.848 48.069 437.539 48.5068C437.219 48.9611 437.184 49.5559 437.45 50.0438L440.501 55.6416C440.444 58.4988 439.777 61.24 438.27 63.6979C436.744 66.1862 434.617 68.0493 432.008 69.3481C429.145 70.7722 426.008 71.337 422.829 71.337H413.219V39.1292L413.218 39.1285ZM420.07 44.7031C420.07 51.7225 420.068 58.7425 420.068 65.7624H422.475C425.454 65.7624 428.296 64.9991 430.511 62.9236C432.698 60.8748 433.568 58.1807 433.568 55.2325C433.568 52.2843 432.698 49.5901 430.511 47.542C428.296 45.4664 425.453 44.7031 422.475 44.7031H420.07Z" fill="#FEFEFE"/>
<path fill-rule="evenodd" clip-rule="evenodd" d="M402.429 73.4478C390.543 79.5995 374.252 72.5031 376.036 56.6154C376.06 56.4004 375.924 56.2032 375.713 56.1507C375.246 56.0334 374.399 55.8215 373.589 55.6194C373.431 55.5797 373.315 55.4631 373.276 55.3037C373.238 55.1443 373.287 54.988 373.41 54.8793L382.25 47.1107C382.361 47.0136 382.5 46.9806 382.642 47.0179C382.784 47.0551 382.889 47.1522 382.939 47.2908L386.949 58.691C387.004 58.8491 386.968 59.0146 386.85 59.1343C386.732 59.254 386.568 59.2943 386.408 59.2412L384.777 58.6989C384.65 58.6568 384.523 58.6726 384.411 58.7447C384.298 58.8168 384.259 58.9309 384.215 59.0567C381.357 67.1154 389.346 74.6746 402.428 73.4472L402.429 73.4478Z" fill="#59E9FF"/>
<path fill-rule="evenodd" clip-rule="evenodd" d="M421.381 36.945C434.795 29.9769 449.571 37.9532 449.457 49.8504C449.454 50.0666 449.633 50.2394 449.849 50.2577C450.33 50.2986 451.199 50.3719 452.031 50.4421C452.194 50.4562 452.327 50.5526 452.39 50.7035C452.453 50.8549 452.43 51.0167 452.326 51.1437L444.842 60.2289C444.748 60.3425 444.616 60.3975 444.47 60.3834C444.323 60.3694 444.204 60.2906 444.134 60.1618L438.351 49.5512C438.271 49.404 438.281 49.2349 438.377 49.0975C438.474 48.9601 438.63 48.8947 438.796 48.9216L440.494 49.1952C440.625 49.2159 440.747 49.1805 440.847 49.092C440.947 49.0028 440.989 48.8856 440.991 48.7525C441.814 42.1251 431.67 35.2425 421.381 36.9462L421.381 36.945Z" fill="#59E9FF"/>
<path fill-rule="evenodd" clip-rule="evenodd" d="M461.679 72.9565C463.877 72.9565 465.528 71.3603 465.528 68.7724C465.528 66.1735 463.877 64.5889 461.679 64.5889C459.459 64.5889 457.818 66.1735 457.818 68.7724C457.818 71.3603 459.458 72.9565 461.679 72.9565ZM543.069 72.8198L544.743 69.9467H546.44V72.8198H548.376V64.7257H544.299C542.466 64.7257 541.384 65.6148 541.384 67.3588C541.384 68.453 541.908 69.2511 542.864 69.6157L540.985 72.8191H543.069L543.069 72.8198ZM544.504 68.3285C543.741 68.3285 543.365 68.0091 543.365 67.3594C543.365 66.7096 543.741 66.3903 544.504 66.3903H546.44V68.3285H544.504ZM532.159 72.8198H534.095L537.603 67.5987V72.8198H539.538V64.7257H537.603L534.095 69.9583V64.7257H532.159V72.8198ZM528.264 72.8198H530.201V64.7257H528.264V67.9059H524.871V64.7257H522.935V72.8198H524.871V69.6163H528.264V72.8198ZM514.872 72.8198H521.545V71.1441H516.808V69.4111H519.37V67.7807H516.808V66.3213H521.158V64.725H514.871V72.8191L514.872 72.8198ZM510.704 71.1209H507.56C507.799 70.6306 507.948 69.9125 508.073 68.6472L508.266 66.4245H510.703V71.1209H510.704ZM506.604 64.7257L506.274 68.5672C506.149 69.8557 505.966 70.6306 505.681 71.1209H504.827V74.6663H506.57V72.8198H512.07V74.6663H513.812V71.1209H512.639V64.7257H506.604ZM492.415 72.8198H494.738L497.505 69.3085V72.8198H499.361V69.2976L502.14 72.8198H504.542L501.195 68.5788L504.349 64.7257H502.117L499.361 68.1227V64.7257H497.505V68.1117L494.76 64.7257H492.482L495.705 68.6472L492.414 72.8198H492.415ZM488.326 72.9565C490.524 72.9565 492.175 71.3603 492.175 68.7724C492.175 66.1735 490.524 64.5889 488.326 64.5889C486.106 64.5889 484.465 66.1735 484.465 68.7724C484.465 71.3603 486.105 72.9565 488.326 72.9565ZM488.326 71.2235C487.107 71.2235 486.436 70.175 486.436 68.7724C486.436 67.382 487.107 66.3213 488.326 66.3213C489.544 66.3213 490.217 67.3813 490.217 68.7724C490.217 70.1744 489.545 71.2235 488.326 71.2235ZM478.567 66.4245H480.947V72.8198H482.883V64.7257H476.904L476.506 69.3085C476.381 70.5396 476.096 70.9842 475.242 70.9842H475.128V72.9223H475.481C477.417 72.9223 478.089 71.7939 478.305 69.4569L478.567 66.4245ZM472.292 72.8198H474.684L471.495 68.5904L474.501 64.7257H472.189L470.356 67.0852L468.58 64.7257H466.063L469.115 68.6924L465.915 72.8191H468.203L470.254 70.1744L472.292 72.8191V72.8198ZM461.679 71.2235C460.46 71.2235 459.788 70.175 459.788 68.7724C459.788 67.382 460.46 66.3213 461.679 66.3213C462.897 66.3213 463.569 67.3813 463.569 68.7724C463.569 70.1744 462.897 71.2235 461.679 71.2235Z" fill="#59E9FF"/>
<path fill-rule="evenodd" clip-rule="evenodd" d="M461.554 44.1675C464.013 44.1675 464.856 42.3893 464.947 41.4312H463.091C462.966 41.7963 462.544 42.4229 461.554 42.4229C460.426 42.4229 459.811 41.3628 459.811 39.9833C459.811 38.6039 460.426 37.5438 461.554 37.5438C462.521 37.5438 462.954 38.1709 463.079 38.5355H464.947C464.856 37.4412 463.888 35.7998 461.554 35.7998C459.321 35.7998 457.818 37.487 457.818 39.9833C457.818 42.4913 459.333 44.1675 461.554 44.1675ZM558.181 58.8162C560.379 58.8162 562.03 57.22 562.03 54.6321C562.03 52.0332 560.379 50.4486 558.181 50.4486C555.96 50.4486 554.32 52.0332 554.32 54.6321C554.32 57.22 555.96 58.8162 558.181 58.8162ZM558.181 57.0832C556.962 57.0832 556.29 56.0348 556.29 54.6321C556.29 53.2417 556.962 52.181 558.181 52.181C559.399 52.181 560.071 53.2411 560.071 54.6321C560.071 56.0341 559.399 57.0832 558.181 57.0832ZM547.078 58.6795H549.013V52.2726H553.557V50.5854H547.078V58.6795ZM541.645 58.8162C543.843 58.8162 545.495 57.22 545.495 54.6321C545.495 52.0332 543.843 50.4486 541.645 50.4486C539.424 50.4486 537.785 52.0332 537.785 54.6321C537.785 57.22 539.424 58.8162 541.645 58.8162ZM541.645 57.0832C540.427 57.0832 539.755 56.0348 539.755 54.6321C539.755 53.2417 540.427 52.181 541.645 52.181C542.864 52.181 543.536 53.2411 543.536 54.6321C543.536 56.0341 542.864 57.0832 541.645 57.0832ZM534.266 58.6795H536.202V50.5854H534.266V53.7656H530.872V50.5854H528.937V58.6795H530.872V55.476H534.266V58.6795ZM520.441 58.6795H522.366V55.7838H524.541C526.374 55.7838 527.445 54.8605 527.445 53.1733C527.445 51.4745 526.374 50.5854 524.541 50.5854H520.442V58.6795H520.441ZM524.347 52.2726C525.087 52.2726 525.463 52.5803 525.463 53.1843C525.463 53.743 525.109 54.0966 524.347 54.0966H522.366V52.2726H524.347ZM512.378 58.6795H519.051V57.0039H514.314V55.2708H516.876V53.6404H514.314V52.181H518.664V50.5847H512.378V58.6789L512.378 58.6795ZM504.293 50.5854H501.4V58.6795H503.188V52.7061L505.215 58.6795H506.503L508.541 52.6469V58.6795H510.409V50.5854H507.63L505.968 55.5212L504.294 50.5854H504.293ZM495.969 58.8162C498.167 58.8162 499.818 57.22 499.818 54.6321C499.818 52.0332 498.167 50.4486 495.969 50.4486C493.748 50.4486 492.108 52.0332 492.108 54.6321C492.108 57.22 493.748 58.8162 495.969 58.8162ZM495.969 57.0832C494.75 57.0832 494.078 56.0348 494.078 54.6321C494.078 53.2417 494.75 52.181 495.969 52.181C497.187 52.181 497.859 53.2411 497.859 54.6321C497.859 56.0341 497.187 57.0832 495.969 57.0832ZM488.589 58.6795H490.525V50.5854H488.589V53.7656H485.196V50.5854H483.26V58.6795H485.196V55.476H488.589V58.6795ZM474.559 58.6795H478.853C480.72 58.6795 481.688 57.7672 481.688 56.3651C481.688 55.2366 480.993 54.6211 480.219 54.4043C480.822 54.2218 481.483 53.6746 481.483 52.7513C481.483 51.4403 480.583 50.5854 478.887 50.5854H474.559V58.6795ZM478.568 52.1474C479.148 52.1474 479.513 52.3868 479.513 52.9455C479.513 53.481 479.148 53.7436 478.568 53.7436H476.461V52.1474H478.568ZM478.511 55.305C479.32 55.305 479.718 55.6128 479.718 56.1941C479.718 56.8097 479.32 57.1174 478.511 57.1174H476.461V55.305H478.511ZM471.359 58.6795H473.386L470.266 50.5854H468.159L465.061 58.6795H466.986L467.51 57.2774H470.835L471.359 58.6795ZM468.113 55.6586L469.172 52.816L470.231 55.6586H468.113ZM458.194 58.6795H460.119V55.7838H462.294C464.127 55.7838 465.198 54.8605 465.198 53.1733C465.198 51.4745 464.127 50.5854 462.294 50.5854H458.195V58.6795H458.194ZM462.1 52.2726C462.841 52.2726 463.216 52.5803 463.216 53.1843C463.216 53.743 462.863 54.0966 462.1 54.0966H460.119V52.2726H462.1ZM516.808 44.0301H518.835L515.715 35.936H513.608L510.51 44.0301H512.435L512.959 42.628H516.284L516.808 44.0301ZM513.562 41.0092L514.621 38.1667L515.68 41.0092H513.562ZM503.199 35.9366H500.307V44.0307H502.094V38.0574L504.122 44.0307H505.409L507.447 37.9981V44.0307H509.315V35.9366H506.536L504.874 40.8724L503.2 35.9366H503.199ZM492.244 44.0307H498.917V42.3551H494.179V40.6221H496.742V38.9916H494.179V37.5322H498.529V35.936H492.243V44.0301L492.244 44.0307ZM483.406 37.6238H486.173V44.0307H488.098V37.6238H490.865V35.9366H483.406V37.6238ZM479.147 44.1675C481.607 44.1675 482.45 42.3893 482.541 41.4312H480.684C480.559 41.7963 480.138 42.4229 479.147 42.4229C478.02 42.4229 477.405 41.3628 477.405 39.9833C477.405 38.6039 478.02 37.5438 479.147 37.5438C480.115 37.5438 480.548 38.1709 480.673 38.5355H482.541C482.45 37.4412 481.482 35.7998 479.147 35.7998C476.915 35.7998 475.412 37.487 475.412 39.9833C475.412 42.4913 476.927 44.1675 479.147 44.1675ZM466.45 44.0307H468.385L471.893 38.8097V44.0307H473.828V35.9366H471.893L468.385 41.1692V35.9366H466.45V44.0307Z" fill="#FEFEFE"/>
</svg>
