<svg width="707" height="477" viewBox="0 0 707 477" fill="none" xmlns="http://www.w3.org/2000/svg">
<path d="M17.472 43.504C8.526 43.504 2.184 36.994 2.184 28.09C2.184 19.186 8.526 12.676 17.472 12.676C27.132 12.676 30.912 19.354 31.584 22.756H24.318C23.646 21.622 21.588 19.102 17.472 19.102C12.516 19.102 9.492 23.176 9.492 28.09C9.492 33.004 12.516 37.078 17.472 37.078C21.882 37.078 23.688 34.558 24.36 33.424H31.584C31.038 36.406 27.51 43.504 17.472 43.504ZM37.1218 43V13.18H65.5138V43H58.3738V19.438H44.2618V43H37.1218ZM87.1703 43.504C78.2243 43.504 71.3363 37.162 71.3363 28.09C71.3363 18.892 78.2243 12.676 87.1703 12.676C96.0743 12.676 102.962 18.892 102.962 28.09C102.962 37.162 96.0743 43.504 87.1703 43.504ZM87.1703 37.12C92.4203 37.12 95.6963 33.13 95.6963 28.09C95.6963 23.092 92.4203 19.06 87.1703 19.06C81.9623 19.06 78.6023 23.05 78.6023 28.09C78.6023 33.172 81.9623 37.12 87.1703 37.12ZM122.636 43.504C113.69 43.504 107.348 36.994 107.348 28.09C107.348 19.186 113.69 12.676 122.636 12.676C132.296 12.676 136.076 19.354 136.748 22.756H129.482C128.81 21.622 126.752 19.102 122.636 19.102C117.68 19.102 114.656 23.176 114.656 28.09C114.656 33.004 117.68 37.078 122.636 37.078C127.046 37.078 128.852 34.558 129.524 33.424H136.748C136.202 36.406 132.674 43.504 122.636 43.504ZM156.282 43.504C147.336 43.504 140.448 37.162 140.448 28.09C140.448 18.892 147.336 12.676 156.282 12.676C165.186 12.676 172.074 18.892 172.074 28.09C172.074 37.162 165.186 43.504 156.282 43.504ZM156.282 37.12C161.532 37.12 164.808 33.13 164.808 28.09C164.808 23.092 161.532 19.06 156.282 19.06C151.074 19.06 147.714 23.05 147.714 28.09C147.714 33.172 151.074 37.12 156.282 37.12ZM185.027 24.604H194.687C201.743 24.604 205.775 27.796 205.775 33.634C205.775 39.808 201.743 43 194.687 43H177.887V13.18H203.213V19.396H185.027V24.604ZM194.267 30.4H185.027V36.784H194.267C197.081 36.784 198.467 35.734 198.467 33.592C198.467 31.618 197.123 30.4 194.267 30.4ZM233.316 43V31.198H218.742V43H211.602V13.18H218.742V24.898H233.316V13.18H240.414V43H233.316ZM262.102 43.504C253.156 43.504 246.268 37.162 246.268 28.09C246.268 18.892 253.156 12.676 262.102 12.676C271.006 12.676 277.894 18.892 277.894 28.09C277.894 37.162 271.006 43.504 262.102 43.504ZM262.102 37.12C267.352 37.12 270.628 33.13 270.628 28.09C270.628 23.092 267.352 19.06 262.102 19.06C256.894 19.06 253.534 23.05 253.534 28.09C253.534 33.172 256.894 37.12 262.102 37.12ZM297.568 43.504C288.622 43.504 282.28 36.994 282.28 28.09C282.28 19.186 288.622 12.676 297.568 12.676C307.228 12.676 311.008 19.354 311.68 22.756H304.414C303.742 21.622 301.684 19.102 297.568 19.102C292.612 19.102 289.588 23.176 289.588 28.09C289.588 33.004 292.612 37.078 297.568 37.078C301.978 37.078 303.784 34.558 304.456 33.424H311.68C311.134 36.406 307.606 43.504 297.568 43.504ZM314.87 19.396V13.18H344.564V19.396H333.266V43H326.168V19.396H314.87ZM356.801 22.714H366.461C373.643 22.714 377.675 26.284 377.675 32.878C377.675 39.556 373.643 43 366.461 43H349.661V13.18H356.801V22.714ZM365.747 28.972H356.801V36.784H365.747C368.813 36.784 370.325 35.482 370.325 32.878C370.325 30.484 368.897 28.972 365.747 28.972ZM393.753 43V13.18H411.183C417.945 13.18 421.893 16.54 421.893 22.798C421.893 29.014 417.945 32.5 411.183 32.5H400.851V43H393.753ZM410.511 19.396H400.851V26.284H410.511C413.241 26.284 414.585 24.982 414.585 22.84C414.585 20.53 413.241 19.396 410.511 19.396ZM447.037 43L444.811 37.834H430.615L428.389 43H421.207L434.269 13.138H441.577L454.597 43H447.037ZM433.177 31.87H442.249L437.713 21.328L433.177 31.87ZM466.066 24.604H475.726C482.782 24.604 486.814 27.796 486.814 33.634C486.814 39.808 482.782 43 475.726 43H458.926V13.18H484.252V19.396H466.066V24.604ZM475.306 30.4H466.066V36.784H475.306C478.12 36.784 479.506 35.734 479.506 33.592C479.506 31.618 478.162 30.4 475.306 30.4ZM507.047 43.504C498.101 43.504 491.213 37.162 491.213 28.09C491.213 18.892 498.101 12.676 507.047 12.676C515.951 12.676 522.839 18.892 522.839 28.09C522.839 37.162 515.951 43.504 507.047 43.504ZM507.047 37.12C512.297 37.12 515.573 33.13 515.573 28.09C515.573 23.092 512.297 19.06 507.047 19.06C501.839 19.06 498.479 23.05 498.479 28.09C498.479 33.172 501.839 37.12 507.047 37.12ZM525.445 19.396V13.18H555.139V19.396H543.841V43H536.743V19.396H525.445ZM567.375 22.714H577.035C584.217 22.714 588.249 26.284 588.249 32.878C588.249 39.556 584.217 43 577.035 43H560.235V13.18H567.375V22.714ZM576.321 28.972H567.375V36.784H576.321C579.387 36.784 580.899 35.482 580.899 32.878C580.899 30.484 579.471 28.972 576.321 28.972ZM591.693 43V13.18H598.833V43H591.693ZM3.612 98V68.18H32.004V98H24.864V74.438H10.752V98H3.612ZM39.2546 98V68.18H56.6846C63.4466 68.18 67.3946 71.54 67.3946 77.798C67.3946 84.014 63.4466 87.5 56.6846 87.5H46.3526V98H39.2546ZM56.0126 74.396H46.3526V81.284H56.0126C58.7426 81.284 60.0866 79.982 60.0866 77.84C60.0866 75.53 58.7426 74.396 56.0126 74.396ZM72.9284 98V68.18H80.0684V88.256L95.0204 68.18H102.16V98H95.0204V77.924L80.0684 98H72.9284ZM141.687 98V86.198H127.113V98H119.973V68.18H127.113V79.898H141.687V68.18H148.785V98H141.687ZM156.067 98V68.18H163.207V88.256L178.159 68.18H185.299V98H178.159V77.924L163.207 98H156.067ZM205.424 67.676C214.622 67.676 218.654 71.372 218.654 76.076C218.654 79.394 216.47 81.746 213.992 82.544C216.848 83.342 219.41 85.484 219.41 88.844C219.41 94.934 214.496 98.504 205.466 98.504C195.008 98.504 191.228 92.288 190.892 88.592H198.032C198.704 90.398 200.72 92.204 205.424 92.204C209.792 92.204 212.102 90.986 212.102 88.592C212.102 86.744 210.422 85.736 206.558 85.736H202.064V79.982H206.432C209.792 79.982 211.346 78.89 211.346 77C211.346 74.942 209.246 73.976 205.34 73.976C201.056 73.976 199.124 75.404 198.242 76.958H191.06C191.732 72.464 196.058 67.676 205.424 67.676ZM225.219 98V68.18H232.359V81.074L246.009 68.18H255.291L240.129 82.544L255.963 98H246.219L232.359 84.602V98H225.219ZM271.946 98.504C263 98.504 256.112 92.162 256.112 83.09C256.112 73.892 263 67.676 271.946 67.676C280.85 67.676 287.738 73.892 287.738 83.09C287.738 92.162 280.85 98.504 271.946 98.504ZM271.946 92.12C277.196 92.12 280.472 88.13 280.472 83.09C280.472 78.092 277.196 74.06 271.946 74.06C266.738 74.06 263.378 78.05 263.378 83.09C263.378 88.172 266.738 92.12 271.946 92.12ZM304.009 68.18L311.569 87.416L319.129 68.18H329.125V98H322.237V75.446L313.501 98.042H308.713L300.103 75.614V98H293.551V68.18H304.009ZM368.668 98V86.198H354.094V98H346.954V68.18H354.094V79.898H368.668V68.18H375.766V98H368.668ZM406.022 98L403.796 92.834H389.6L387.374 98H380.192L393.254 68.138H400.562L413.582 98H406.022ZM392.162 86.87H401.234L396.698 76.328L392.162 86.87ZM417.911 98V68.18H446.303V98H439.163V74.438H425.051V98H417.911ZM453.553 98V68.18H470.983C477.745 68.18 481.693 71.54 481.693 77.798C481.693 84.014 477.745 87.5 470.983 87.5H460.651V98H453.553ZM470.311 74.396H460.651V81.284H470.311C473.041 81.284 474.385 79.982 474.385 77.84C474.385 75.53 473.041 74.396 470.311 74.396ZM493.028 98H485.426L492.356 86.156C488.366 84.98 486.098 82.082 486.098 77.756C486.098 71.414 490.088 68.18 496.766 68.18H514.196V98H507.056V87.08H499.328L493.028 98ZM497.522 81.074H507.056V74.312H497.522C494.792 74.312 493.448 75.362 493.448 77.714C493.448 79.94 494.792 81.074 497.522 81.074ZM517.654 98L531.724 82.67L517.906 68.18H526.306L538.402 80.99V68.18H545.248V81.032L557.344 68.18H565.618L552.094 82.418L566.29 98H557.428L545.248 84.728V98H538.402V84.77L526.222 98H517.654ZM569.792 98V68.18H594.74V74.06H576.932V79.436H587.558V85.442H576.932V91.826H596.378V98H569.792ZM623.211 98V86.198H608.637V98H601.497V68.18H608.637V79.898H623.211V68.18H630.309V98H623.211ZM637.591 98V68.18H644.731V88.256L659.683 68.18H666.823V98H659.683V77.924L644.731 98H637.591ZM674.053 98V68.18H681.193V88.256L696.145 68.18H703.285V98H696.145V77.924L681.193 98H674.053Z" fill="white"/>
<g clip-path="url(#clip0_55_183)">
<path d="M0.140625 121.152V292.784H39.5768V121.152H0.140625Z" fill="#FEFEFE"/>
<path d="M194.875 234.331C194.875 201.542 174.445 178.976 143.08 178.976C132.625 178.976 125.498 181.832 120.034 185.392L168.261 124.094H124.546L89.3811 168.993C72.2787 191.327 61.3438 207.718 61.3438 234.563C61.3438 269.96 87.0053 295.621 128.105 295.621C169.205 295.621 194.867 269.488 194.867 234.323L194.875 234.331ZM155.439 234.331C155.439 249.538 145.224 260.937 128.113 260.937C111.011 260.937 100.796 249.77 100.796 234.563C100.796 218.645 111.723 207.478 128.113 207.478C145.216 207.478 155.439 218.885 155.439 234.323V234.331Z" fill="#FEFEFE"/>
<path d="M277.241 121.012C237.092 121.012 212.383 145.009 212.383 183.974V232.913C212.383 272.349 237.324 295.867 277.241 295.867C317.389 295.867 342.098 272.349 342.098 232.913V183.974C342.098 145.009 317.629 121.012 277.241 121.012ZM277.241 260.23C260.138 260.23 251.819 248.591 251.819 231.721V185.158C251.819 168.287 260.138 156.648 277.241 156.648C294.343 156.648 302.662 168.287 302.662 185.158V231.721C302.662 248.591 294.351 260.23 277.241 260.23Z" fill="#FEFEFE"/>
<path d="M507.994 128.762H472.709L432.233 242.359L391.157 128.762H352.48L413.891 289.97H448.783L507.994 128.762Z" fill="#59E9FF"/>
<path d="M0.00390625 369.842H29.961V364.938H5.2354V331.589H0.0119055V369.842H0.00390625ZM55.3106 370.49C66.5735 370.49 75.0847 361.866 75.0847 350.716C75.0847 339.565 66.5735 330.941 55.3106 330.941C43.9997 330.941 35.5365 339.565 35.5365 350.716C35.5365 361.978 43.8877 370.49 55.3106 370.49ZM55.3106 365.642C46.6874 365.642 40.928 359.067 40.928 350.716C40.928 342.524 46.6954 335.789 55.3106 335.789C63.9338 335.789 69.6932 342.58 69.6932 350.716C69.6932 358.963 63.9258 365.642 55.3106 365.642ZM111.961 331.373H107.594L97.0346 361.594L87.1235 331.589H81.4681L94.6108 370.058H98.8664L109.641 339.781L120.36 370.058H124.888L137.655 331.589H132.591L122.568 361.866L111.953 331.373H111.961Z" fill="#FEFEFE"/>
<path d="M200.777 331.589H191.242L180.307 358.547L169.212 331.589H158.765L175.356 369.842H184.787L200.785 331.589H200.777ZM224.711 370.489C236.134 370.489 244.965 362.354 244.965 350.715C244.965 338.916 236.126 330.941 224.711 330.941C213.232 330.941 204.401 338.916 204.401 350.715C204.401 362.354 213.232 370.489 224.711 370.489ZM224.711 362.298C218.032 362.298 213.72 357.235 213.72 350.715C213.72 344.252 218.032 339.132 224.711 339.132C231.446 339.132 235.646 344.308 235.646 350.715C235.646 357.179 231.446 362.298 224.711 362.298ZM285.489 361.762H262.915V331.589H253.756V369.842H285.489V361.762ZM283.289 339.564H297.784V369.842H306.887V339.564H321.382V331.589H283.289V339.564ZM354.147 369.842H363.842L347.139 331.589H337.764L321.006 369.842H330.221L333.077 363.218H351.283L354.139 369.842H354.147ZM336.364 355.563L342.18 342.076L347.995 355.563H336.356H336.364ZM405.494 347.212H384.648V354.699H396.719V361.002C395.479 361.81 392.735 362.674 388.639 362.674C380.72 362.674 376.304 357.667 376.304 350.499C376.304 343.868 380.456 338.756 386.919 338.756C391.551 338.756 394.031 340.804 394.999 341.932H404.646C403.518 337.621 398.774 330.781 386.919 330.781C375.225 330.781 367.041 339.02 367.041 350.499C367.041 362.57 375.337 370.537 388.431 370.537C397.534 370.537 403.358 367.034 405.51 365.146V347.204L405.494 347.212ZM415.309 369.842H449.409V361.922H424.468V353.731H438.099V346.028H424.468V339.132H447.314V331.589H415.309V369.842Z" fill="#59E9FF"/>
</g>
<path d="M2.64 434.536V417.496H4.968V424.864H15.432V417.496H17.76V434.536H15.432V427.024H4.968V434.536H2.64ZM30.8546 434.824C25.7666 434.824 22.0466 431.032 22.0466 426.016C22.0466 421.048 25.8146 417.208 30.8546 417.208C35.8706 417.208 39.6626 421.048 39.6626 426.016C39.6626 430.984 35.8706 434.824 30.8546 434.824ZM30.8546 432.664C34.6946 432.664 37.2626 429.688 37.2626 426.016C37.2626 422.392 34.6946 419.368 30.8546 419.368C27.0146 419.368 24.4466 422.368 24.4466 426.016C24.4466 429.736 27.0146 432.664 30.8546 432.664ZM43.9603 434.536V417.496H52.3123C56.0083 417.496 58.0243 419.176 58.0243 422.104C58.0243 423.952 56.6563 425.176 55.2883 425.584C56.9683 426.016 58.3843 427.456 58.3843 429.64C58.3843 432.64 56.3923 434.536 52.4803 434.536H43.9603ZM52.2643 419.632H46.2643V424.672H52.2643C54.4963 424.672 55.6243 423.784 55.6243 422.152C55.6243 420.448 54.5203 419.632 52.2643 419.632ZM52.4323 426.808H46.2643V432.4H52.4323C54.9043 432.4 56.0323 431.344 56.0323 429.592C56.0323 427.816 54.8803 426.808 52.4323 426.808ZM71.3726 423.928C75.3326 423.928 77.3966 426.088 77.3966 429.28C77.3966 432.592 75.3326 434.536 71.3726 434.536H62.7806V417.496H65.1086V423.928H71.3726ZM80.2526 434.536V417.496H82.5806V434.536H80.2526ZM71.4446 426.088H65.1086V432.376H71.4446C73.8206 432.376 74.9966 431.224 74.9966 429.232C74.9966 427.384 73.8206 426.088 71.4446 426.088ZM95.5148 414.304C96.6428 414.304 97.1708 413.44 97.1708 412.504V412.192H98.9948V412.552C98.9948 414.52 97.7948 416.032 95.5148 416.032C93.2348 416.032 92.0348 414.52 92.0348 412.552V412.192H93.8588V412.504C93.8588 413.416 94.3868 414.304 95.5148 414.304ZM87.8588 434.536V417.496H90.1868V431.416L100.867 417.496H103.195V434.536H100.867V420.568L90.1868 434.536H87.8588ZM115.795 434.536H113.011L120.451 425.896L113.155 417.496H116.227L121.963 424.168L127.723 417.496H130.579L123.379 425.8L130.891 434.536H127.963L121.867 427.528L115.795 434.536ZM141.573 434.824C136.485 434.824 132.765 431.032 132.765 426.016C132.765 421.048 136.533 417.208 141.573 417.208C146.589 417.208 150.381 421.048 150.381 426.016C150.381 430.984 146.589 434.824 141.573 434.824ZM141.573 432.664C145.413 432.664 147.981 429.688 147.981 426.016C147.981 422.392 145.413 419.368 141.573 419.368C137.733 419.368 135.165 422.368 135.165 426.016C135.165 429.736 137.733 432.664 141.573 432.664ZM158.144 427.528C157.688 432.28 156.776 434.68 153.224 434.68H152.648V432.4H153.056C155.048 432.4 155.6 431.056 155.96 427.264L156.872 417.496H169.376V434.536H167.048V419.656H158.888L158.144 427.528ZM182.472 434.824C177.384 434.824 173.664 431.032 173.664 426.016C173.664 421.048 177.432 417.208 182.472 417.208C187.488 417.208 191.28 421.048 191.28 426.016C191.28 430.984 187.488 434.824 182.472 434.824ZM182.472 432.664C186.312 432.664 188.88 429.688 188.88 426.016C188.88 422.392 186.312 419.368 182.472 419.368C178.632 419.368 176.064 422.368 176.064 426.016C176.064 429.736 178.632 432.664 182.472 432.664ZM197.38 417.496H209.788V432.376H212.428V438.4H210.34V434.536H195.148V438.4H193.06V432.376H194.956C195.676 431.272 196.132 429.328 196.372 427.024L197.38 417.496ZM207.46 432.376V419.656H199.372L198.58 427.192C198.34 429.424 197.932 431.32 197.404 432.376H207.46ZM215.546 434.536V417.496H217.874V431.416L228.554 417.496H230.882V434.536H228.554V420.568L217.874 434.536H215.546ZM239.987 427.528C239.531 432.28 238.619 434.68 235.067 434.68H234.491V432.4H234.899C236.891 432.4 237.443 431.056 237.803 427.264L238.715 417.496H251.219V434.536H248.891V419.656H240.731L239.987 427.528ZM265.084 423.928C269.044 423.928 271.108 426.088 271.108 429.28C271.108 432.592 269.044 434.536 265.084 434.536H256.492V417.496H258.82V423.928H265.084ZM265.156 426.088H258.82V432.376H265.156C267.532 432.376 268.708 431.224 268.708 429.232C268.708 427.384 267.532 426.088 265.156 426.088ZM275.195 434.536V417.496H277.523V424.864H287.987V417.496H290.315V434.536H287.987V427.024H277.523V434.536H275.195ZM295.585 434.536V417.496H297.913V431.416L308.593 417.496H310.921V434.536H308.593V420.568L297.913 434.536H295.585ZM316.21 434.536V417.496H318.538V425.368L328.354 417.496H331.642L321.202 425.848L332.074 434.536H328.738L318.538 426.616V434.536H316.21ZM352.424 432.424V434.536H340.448V433.096L346.208 427.408C348.056 425.56 349.112 424.312 349.112 422.464C349.112 420.592 347.912 419.32 345.944 419.32C343.976 419.32 342.776 420.712 342.776 422.656V423.76H340.496V422.632C340.496 419.512 342.56 417.208 345.944 417.208C349.352 417.208 351.44 419.464 351.44 422.464C351.44 425.176 349.808 426.856 347.72 428.896L344.12 432.424H352.424ZM361.788 417.208C365.388 417.208 367.74 419.512 367.74 423.424V428.608C367.74 432.688 365.316 434.824 361.788 434.824C358.26 434.824 355.836 432.688 355.836 428.608V423.424C355.836 419.512 358.188 417.208 361.788 417.208ZM361.788 432.712C364.212 432.712 365.436 430.96 365.436 428.584V423.448C365.436 421.072 364.212 419.32 361.788 419.32C359.364 419.32 358.14 421.072 358.14 423.448V428.584C358.14 430.96 359.364 432.712 361.788 432.712ZM383.878 432.424V434.536H371.902V433.096L377.662 427.408C379.51 425.56 380.566 424.312 380.566 422.464C380.566 420.592 379.366 419.32 377.398 419.32C375.43 419.32 374.23 420.712 374.23 422.656V423.76H371.95V422.632C371.95 419.512 374.014 417.208 377.398 417.208C380.806 417.208 382.894 419.464 382.894 422.464C382.894 425.176 381.262 426.856 379.174 428.896L375.574 432.424H383.878ZM392.546 432.712C394.802 432.712 396.266 431.608 396.266 429.736C396.266 427.84 394.994 426.784 392.786 426.784H389.786V424.672H392.858C394.658 424.672 395.762 423.712 395.762 421.984C395.762 420.304 394.418 419.296 392.498 419.296C390.482 419.296 389.498 420.448 389.258 421.864H386.954C387.074 419.68 388.778 417.208 392.474 417.208C396.05 417.208 398.066 419.176 398.066 421.888C398.066 424 396.698 425.152 395.69 425.584C396.962 425.944 398.618 427.192 398.618 429.88C398.618 432.808 396.362 434.824 392.546 434.824C388.49 434.824 386.714 432.328 386.498 430.024H388.826C389.09 431.344 390.218 432.712 392.546 432.712Z" fill="white"/>
<path d="M18.288 460.72V468.328C17.136 469.36 14.688 470.848 10.776 470.848C5.112 470.848 1.44 467.224 1.44 461.968C1.44 456.88 5.088 453.184 10.2 453.184C15.216 453.184 17.304 456.04 17.88 457.864H14.472C13.968 457.24 12.72 456.04 10.2 456.04C6.84 456.04 4.728 458.608 4.728 461.968C4.728 465.52 7.056 467.992 10.8 467.992C13.008 467.992 14.496 467.416 15.192 466.936V463.456H9.192V460.72H18.288ZM22.5551 470.536V453.496H32.0831C35.8271 453.496 37.9151 455.224 37.9151 458.584C37.9151 460.888 36.7391 462.52 34.5551 463.192L38.5631 470.536H35.1551L31.2911 463.528H25.7711V470.536H22.5551ZM31.8191 456.352H25.7711V460.72H31.8191C33.6671 460.72 34.6031 460 34.6031 458.584C34.6031 457.024 33.6671 456.352 31.8191 456.352ZM55.1614 470.536L53.6014 467.032H45.0094L43.4494 470.536H40.2094L47.8654 453.424H50.9134L58.5934 470.536H55.1614ZM46.2334 464.248H52.3774L49.3054 457.36L46.2334 464.248ZM77.5391 453.496V470.608H75.0191L64.6751 457.552V470.536H61.5551V453.496H65.2991L74.4431 465.184V453.496H77.5391ZM82.2504 470.536V453.496H89.1384C94.5864 453.496 98.2584 456.64 98.2584 462.016C98.2584 467.32 94.6104 470.536 89.1384 470.536H82.2504ZM89.0904 456.328H85.4664V467.704H89.0904C92.6424 467.704 94.9704 465.544 94.9704 462.016C94.9704 458.392 92.6424 456.328 89.0904 456.328ZM108.29 470.536V453.496H111.53V470.536H108.29ZM132.242 453.496V470.608H129.722L119.378 457.552V470.536H116.258V453.496H120.002L129.146 465.184V453.496H132.242ZM153.322 453.496L146.026 470.584H142.81L135.298 453.496H138.994L144.49 466.552L150.01 453.496H153.322ZM156.36 470.536V453.496H170.16V456.28H159.576V460.168H165.888V462.976H159.576V467.68H171.12V470.536H156.36ZM174.407 470.536V453.496H183.935C187.679 453.496 189.767 455.224 189.767 458.584C189.767 460.888 188.591 462.52 186.407 463.192L190.415 470.536H187.007L183.143 463.528H177.623V470.536H174.407ZM183.671 456.352H177.623V460.72H183.671C185.519 460.72 186.455 460 186.455 458.584C186.455 457.024 185.519 456.352 183.671 456.352ZM192.232 456.376V453.496H208.984V456.376H202.216V470.536H199V456.376H192.232ZM212.235 470.536V453.496H226.035V456.28H215.451V460.168H221.763V462.976H215.451V467.68H226.995V470.536H212.235ZM230.282 470.536V453.496H239.81C243.554 453.496 245.642 455.224 245.642 458.584C245.642 460.888 244.466 462.52 242.282 463.192L246.29 470.536H242.882L239.018 463.528H233.498V470.536H230.282ZM239.546 456.352H233.498V460.72H239.546C241.394 460.72 242.33 460 242.33 458.584C242.33 457.024 241.394 456.352 239.546 456.352Z" fill="#59E9FF"/>
<path d="M261.923 455.92C259.595 455.92 258.371 456.712 258.371 457.96C258.371 459.112 259.355 459.784 261.155 460C262.211 460.096 263.003 460.192 264.155 460.312C267.539 460.624 270.179 461.992 270.179 465.544C270.179 468.616 267.755 470.848 262.931 470.848C257.387 470.848 255.203 468.016 254.555 465.592H257.987C258.443 466.672 259.811 468.112 262.931 468.112C265.523 468.112 266.891 467.128 266.891 465.76C266.891 464.128 265.691 463.6 263.939 463.384L260.915 463.072C257.531 462.76 255.107 461.104 255.107 458.056C255.107 455.008 257.867 453.184 261.923 453.184C267.275 453.184 269.267 455.728 269.771 457.912H266.483C265.955 457.072 264.731 455.92 261.923 455.92ZM272.06 456.376V453.496H288.812V456.376H282.044V470.536H278.828V456.376H272.06ZM292.063 470.536V453.496H305.863V456.28H295.279V460.168H301.591V462.976H295.279V467.68H306.823V470.536H292.063ZM310.11 470.536V453.496H323.91V456.28H313.326V460.168H319.638V462.976H313.326V467.68H324.87V470.536H310.11ZM341.909 467.632V470.536H328.157V453.496H331.373V467.632H341.909ZM351.313 470.536V453.496H365.113V456.28H354.529V460.168H360.841V462.976H354.529V467.68H366.073V470.536H351.313ZM369.36 470.536V453.496H376.248C381.696 453.496 385.368 456.64 385.368 462.016C385.368 467.32 381.72 470.536 376.248 470.536H369.36ZM376.2 456.328H372.576V467.704H376.2C379.752 467.704 382.08 465.544 382.08 462.016C382.08 458.392 379.752 456.328 376.2 456.328ZM389.212 470.536V453.496H392.452V470.536H389.212ZM395.716 456.376V453.496H412.468V456.376H405.7V470.536H402.484V456.376H395.716ZM415.743 470.536V453.496H418.983V470.536H415.743ZM431.727 470.824C426.615 470.824 422.799 467.128 422.799 462.016C422.799 456.904 426.663 453.208 431.727 453.208C436.791 453.208 440.655 456.904 440.655 462.016C440.655 467.104 436.791 470.824 431.727 470.824ZM431.727 467.896C435.111 467.896 437.367 465.28 437.367 462.016C437.367 458.776 435.111 456.136 431.727 456.136C428.343 456.136 426.111 458.776 426.111 462.016C426.111 465.304 428.319 467.896 431.727 467.896ZM460.438 453.496V470.608H457.918L447.574 457.552V470.536H444.454V453.496H448.198L457.342 465.184V453.496H460.438Z" fill="white"/>
<defs>
<clipPath id="clip0_55_183">
<rect width="508" height="249.536" fill="white" transform="translate(0 121)"/>
</clipPath>
</defs>
</svg>
