<svg width="618" height="378" viewBox="0 0 618 378" fill="none" xmlns="http://www.w3.org/2000/svg">
<path d="M21.6561 109.48H46.2658V168.554H68.3217V30.7235H46.2658V89.7972H21.6561V30.7235H0V168.554H21.6561V109.48ZM103.959 62.4272C103.959 52.5859 108.293 48.8454 115.181 48.8454C122.068 48.8454 126.402 52.5859 126.402 62.4272V136.85C126.402 146.691 122.068 150.432 115.181 150.432C108.293 150.432 103.959 146.691 103.959 136.85V62.4272ZM82.3033 135.47C82.3033 157.526 93.9246 170.127 115.181 170.127C136.45 170.127 148.058 157.526 148.058 135.47V63.7944C148.058 41.7385 136.437 29.137 115.181 29.137C93.9117 29.137 82.3033 41.7385 82.3033 63.7944V135.47ZM194.724 30.7235H162.04V168.554H196.104C217.76 168.554 228.982 157.139 228.982 135.87V124.648C228.982 110.073 224.454 99.6385 212.833 95.1112C222.481 90.584 226.815 81.5294 226.815 67.3543V62.4272C226.815 41.1581 217.167 30.7235 194.724 30.7235ZM193.344 106.526C203.185 106.526 207.326 110.46 207.326 123.268V135.276C207.326 145.517 203.392 148.858 196.104 148.858H183.696V106.526H193.344ZM194.131 50.4061C201.805 50.4061 205.159 54.7399 205.159 64.5812V72.2557C205.159 83.2836 200.231 86.8306 192.17 86.8306H183.709V50.4061H194.144H194.131ZM273.867 168.541C295.523 168.541 306.164 156.532 306.164 134.477V116.561C306.164 94.505 295.523 82.4968 273.867 82.4968H263.626V30.7106H241.97V168.541H273.867ZM263.626 148.845V102.179H273.867C280.755 102.179 284.495 105.327 284.495 115.168V135.844C284.495 145.685 280.755 148.832 273.867 148.832H263.626V148.845ZM340.216 168.541V30.7106H318.559V168.541H340.216ZM378.214 168.541H355.964V30.7106H375.26V117.941L383.141 87.6174L400.863 30.7106H424.686V168.541H405.197V71.4689L396.336 105.34L378.226 168.541H378.214ZM400.463 0C399.87 7.28748 396.529 9.05453 390.622 9.05453C384.908 9.05453 381.954 7.28748 381.361 0H367.972C368.372 13.3883 375.453 21.8624 390.622 21.8624C405.983 21.8624 413.658 13.4012 413.658 0H400.463Z" fill="#FEFEFE"/>
<path d="M482.773 82.3105V69.7734H479.639V30.4469H459.517L457.879 63.8274C457.75 66.5102 457.351 68.1998 456.112 69.7734H453.301V82.3105H460.291V76.1709H475.64V82.3105H482.76H482.773ZM466.25 36.9733H472.325V69.7605H462.923C464.096 68.6513 464.754 67.1422 464.948 63.6855L466.25 36.9733ZM500.147 55.1985L503.088 43.9642V76.1709H509.55V30.4469H501.643L495.761 49.3298L493.143 59.3904V30.4598H486.746V76.1838H494.123L500.134 55.2114L500.147 55.1985ZM528.497 44.2221C528.497 47.8852 526.859 49.0589 524.189 49.0589H522.035V55.5854H523.802C527.065 55.5854 528.51 57.159 528.51 61.4025V64.9882C528.51 69.0382 527.078 70.1475 524.782 70.1475C522.499 70.1475 521.055 68.9093 521.055 65.646V60.1514H514.257V65.1817C514.257 72.4949 517.92 76.674 524.976 76.674C532.031 76.674 535.681 72.4949 535.681 65.1817V61.596C535.681 56.9526 534.25 53.5604 530.651 51.9997C534.108 50.5551 535.681 47.4983 535.681 42.5969V41.4232C535.681 34.1099 532.018 29.9309 524.976 29.9309C517.92 29.9309 514.399 33.981 514.399 41.2942V44.6865H521.003V40.9589C521.003 37.6956 522.512 36.4574 524.795 36.4574C527.078 36.4574 528.523 37.5667 528.523 41.6812V44.235L528.497 44.2221ZM556.447 30.434H545.935L538.622 76.158H545.226L546.464 67.8645H555.286L556.525 76.158H563.774L556.46 30.434H556.447ZM550.837 38.534L554.293 61.6605H547.367L550.824 38.534H550.837ZM574.479 76.158H567.101V30.434H573.499V59.3646L576.117 49.304L581.999 30.4211H589.905V76.1451H583.443V43.9384L580.502 55.1727L574.492 76.1451L574.479 76.158ZM581.857 20.2444C581.663 22.6563 580.554 23.2497 578.594 23.2497C576.697 23.2497 575.717 22.6563 575.524 20.2444H571.087C571.216 24.6814 573.563 27.4932 578.594 27.4932C583.688 27.4932 586.229 24.6814 586.229 20.2444H581.857ZM602.3 56.5657H610.465V76.158H617.778V30.434H610.465V50.0263H602.3V30.434H595.116V76.158H602.3V56.5657Z" fill="#59E9FF"/>
<path d="M478.632 110.797C478.632 132.557 455.157 136.22 455.157 158.405V167.665H489.415V156.895H467.01C466.907 156.354 466.907 155.812 466.907 155.283C466.907 142.901 490.498 134.066 490.498 110.372C490.498 98.3119 484.462 91.4113 472.84 91.4113C461.206 91.4113 455.17 98.299 455.17 110.372V117.698H466.365V109.624C466.365 104.232 468.739 102.194 472.505 102.194C476.271 102.194 478.645 104.026 478.645 110.81L478.632 110.797ZM508.684 109.611C508.684 104.219 511.058 102.181 514.824 102.181C518.59 102.181 520.964 104.232 520.964 109.611V150.317C520.964 155.709 518.59 157.747 514.824 157.747C511.058 157.747 508.684 155.696 508.684 150.317V109.611ZM496.831 149.569C496.831 161.629 503.19 168.53 514.824 168.53C526.458 168.53 532.804 161.642 532.804 149.569V110.359C532.804 98.299 526.445 91.3984 514.824 91.3984C503.19 91.3984 496.831 98.2861 496.831 110.359V149.569ZM563.927 110.797C563.927 132.557 540.453 136.22 540.453 158.405V167.665H574.71V156.895H552.306C552.203 156.354 552.203 155.812 552.203 155.283C552.203 142.901 575.794 134.066 575.794 110.372C575.794 98.3119 569.757 91.4113 558.123 91.4113C546.489 91.4113 540.466 98.299 540.466 110.372V117.698H551.661V109.624C551.661 104.232 554.034 102.194 557.801 102.194C561.567 102.194 563.94 104.026 563.94 110.81L563.927 110.797ZM605.937 115.002C605.937 121.038 603.241 122.973 598.83 122.973H594.199V133.743H598.185C603.576 133.743 605.937 136.323 605.937 143.327V149.247C605.937 155.928 603.564 157.76 599.797 157.76C596.031 157.76 593.658 155.709 593.658 150.33V143.327H582.462V149.569C582.462 161.629 588.498 168.53 600.12 168.53C611.754 168.53 617.79 161.642 617.79 149.569V143.649C617.79 136 615.417 130.403 609.497 127.81C615.211 125.437 617.79 120.381 617.79 112.306V110.372C617.79 98.3119 611.754 91.4113 600.12 91.4113C588.486 91.4113 582.462 98.299 582.462 110.372V114.46H593.658V109.611C593.658 104.219 596.031 102.181 599.797 102.181C603.564 102.181 605.937 104.013 605.937 110.797V115.002Z" fill="#FEFEFE"/>
<path fill-rule="evenodd" clip-rule="evenodd" d="M56.9331 226.264C60.33 227.541 63.2962 229.519 65.6848 232.335C68.5042 235.639 69.7768 239.566 69.7768 243.893C69.7768 249.935 67.8385 255.275 63.1396 259.212C58.568 263.041 53.1251 264.688 47.1829 264.688C42.533 264.688 38.0788 263.675 34.0456 261.336C30.0319 259.017 27.2419 255.616 25.5288 251.328L25.1274 250.334L37.4816 243.25L37.9515 244.711C39.371 249.116 42.6896 250.734 47.1829 250.734C49.3659 250.734 51.7056 250.334 53.409 248.872C54.9165 247.576 55.4941 245.871 55.4941 243.902C55.4941 241.944 54.8774 240.277 53.3992 238.971C51.7056 237.481 49.3757 237.071 47.1829 237.071H43.9524L38.5683 228.973L49.3561 214.97H27.2419V201.522H67.3099V212.875L56.9331 226.284V226.264ZM78.8026 201.502H97.7548C104.03 201.502 110.207 202.613 115.855 205.4C121.005 207.944 125.194 211.598 128.21 216.48C128.66 217.211 129.071 217.952 129.443 218.702C128.405 218.575 127.377 219.033 126.771 219.891C126.134 220.778 126.075 221.947 126.594 222.902L132.605 233.875C132.488 239.478 131.176 244.857 128.21 249.671C125.204 254.554 121.005 258.208 115.855 260.751C110.207 263.548 104.02 264.649 97.7548 264.649H78.8026V201.483V201.502ZM92.3119 212.436C92.3119 226.206 92.3119 239.965 92.3119 253.735H97.0598C102.933 253.735 108.543 252.244 112.909 248.171C117.216 244.156 118.939 238.874 118.939 233.086C118.939 227.307 117.226 222.015 112.909 218C108.543 213.927 102.933 212.436 97.0598 212.436H92.3217H92.3119Z" fill="#FEFEFE"/>
<path fill-rule="evenodd" clip-rule="evenodd" d="M57.5195 268.809C34.0739 280.873 1.95494 266.957 5.46933 235.803C5.51828 235.384 5.24417 234.994 4.83302 234.887C3.91282 234.653 2.23884 234.243 0.643167 233.844C0.329907 233.766 0.104752 233.542 0.0264366 233.22C-0.0518784 232.908 0.0460154 232.596 0.29075 232.392L17.7256 217.151C17.941 216.966 18.2151 216.897 18.499 216.966C18.7829 217.044 18.9885 217.229 19.0864 217.502L26.9962 239.856C27.1039 240.168 27.0353 240.49 26.8004 240.724C26.5654 240.958 26.2424 241.036 25.9291 240.938L22.7084 239.876C22.4539 239.798 22.2092 239.827 21.984 239.964C21.7589 240.1 21.6805 240.334 21.5924 240.578C15.9538 256.384 31.7147 271.206 57.5097 268.799L57.5195 268.809Z" fill="#59E9FF"/>
<path fill-rule="evenodd" clip-rule="evenodd" d="M94.8926 197.222C121.344 183.559 150.486 199.2 150.261 222.529C150.252 222.948 150.614 223.289 151.035 223.328C151.984 223.406 153.697 223.552 155.342 223.689C155.665 223.718 155.929 223.903 156.047 224.205C156.174 224.498 156.125 224.819 155.92 225.073L141.157 242.886C140.971 243.11 140.717 243.218 140.423 243.188C140.139 243.159 139.904 243.003 139.757 242.75L128.353 221.944C128.196 221.652 128.216 221.321 128.402 221.058C128.597 220.785 128.901 220.658 129.224 220.707L132.572 221.243C132.826 221.282 133.071 221.214 133.267 221.038C133.463 220.863 133.541 220.629 133.551 220.376C135.176 207.376 115.166 193.879 94.8828 197.222H94.8926Z" fill="#59E9FF"/>
<path d="M164.437 264.665H172.582V249.444L188.401 264.665H199.522L181.451 247.105L198.749 230.792H188.157L172.582 245.439V230.792H164.437V264.665ZM217.73 265.24C227.892 265.24 235.753 258.039 235.753 247.729C235.753 237.282 227.892 230.217 217.73 230.217C207.52 230.217 199.659 237.282 199.659 247.729C199.659 258.029 207.52 265.24 217.73 265.24ZM217.73 257.99C211.788 257.99 207.951 253.507 207.951 247.729C207.951 242.008 211.788 237.467 217.73 237.467C223.721 237.467 227.461 242.047 227.461 247.729C227.461 253.459 223.721 257.99 217.73 257.99ZM267.147 264.665H275.243V230.792H267.147V244.104H250.515V230.792H242.37V264.665H250.515V251.256H267.147V264.665ZM283.535 264.665H303.524C311.385 264.665 315.458 260.845 315.458 254.979C315.458 250.448 312.775 247.826 309.799 246.774C312.247 245.867 314.596 243.48 314.596 240.001C314.596 234.417 310.671 230.792 303.192 230.792H283.544V264.665H283.535ZM301.89 237.331C304.768 237.331 306.295 238.335 306.295 240.673C306.295 242.963 304.709 244.016 301.89 244.016H291.542V237.341H301.89V237.331ZM302.085 250.545C305.492 250.545 307.166 251.783 307.166 254.316C307.166 256.84 305.492 258.136 302.085 258.136H291.542V250.545H302.085ZM322.075 264.665H352.413V257.649H330.22V250.399H342.349V243.577H330.22V237.467H350.543V230.792H322.075V264.665ZM358.257 264.665H366.402V249.444L382.221 264.665H393.342L375.271 247.105L392.569 230.792H381.977L366.402 245.439V230.792H358.257V264.665ZM421.516 257.561H405.412V230.792H397.268V264.665H427.272V272.393H434.653V257.552H429.67V230.782H421.526V257.552L421.516 257.561ZM439.391 264.665H447.536L464.599 241.862V264.665H472.744V230.792H464.599L447.536 253.595V230.792H439.391V264.665ZM487.849 264.665L495.034 252.26H503.854V264.665H511.999V230.792H492.107C484.481 230.792 479.929 234.466 479.929 241.667C479.929 246.579 482.513 249.873 487.075 251.208L479.166 264.665H487.839H487.849ZM492.978 245.439C489.865 245.439 488.328 244.152 488.328 241.619C488.328 238.949 489.865 237.76 492.978 237.76H503.854V245.439H492.978Z" fill="#59E9FF"/>
<path d="M7.176 323.086L12.264 335.494L17.376 323.086H22.008V340.126H18.888V326.158L13.176 340.198H10.992L5.328 326.278V340.126H2.352V323.086H7.176ZM32.4641 340.126H29.0561L32.4881 334.702L24.8081 323.086H28.5761L34.3121 331.774L39.8081 323.086H43.1921L32.4641 340.126ZM49.4685 325.966L48.7965 333.094C48.2925 337.918 47.3325 340.294 43.2045 340.294H42.7005V337.126H43.0845C44.9565 337.126 45.4845 335.974 45.7965 332.806L46.7325 323.086H59.8365V340.126H56.6205V325.966H49.4685ZM67.7477 329.014H73.6277C77.6597 329.014 79.8437 331.126 79.8437 334.606C79.8437 338.182 77.6597 340.126 73.6277 340.126H64.5317V323.086H67.7477V329.014ZM73.4597 331.894H67.7477V337.27H73.4597C75.5477 337.27 76.5317 336.31 76.5317 334.582C76.5317 332.95 75.5477 331.894 73.4597 331.894ZM80.9271 325.966V323.086H97.6791V325.966H90.9111V340.126H87.6951V325.966H80.9271ZM100.93 340.126V323.086H104.146V335.806L113.746 323.086H116.962V340.126H113.746V327.406L104.146 340.126H100.93ZM127.86 340.126V323.086H143.412V340.126H140.196V325.966H131.076V340.126H127.86ZM153.414 325.966L152.742 333.094C152.238 337.918 151.278 340.294 147.15 340.294H146.646V337.126H147.03C148.902 337.126 149.43 335.974 149.742 332.806L150.678 323.086H163.782V340.126H160.566V325.966H153.414ZM168.477 340.126V323.086H171.693V335.806L181.293 323.086H184.509V340.126H181.293V327.406L171.693 340.126H168.477ZM187.755 325.966V323.086H204.507V325.966H197.739V340.126H194.523V325.966H187.755ZM219.036 340.126L217.476 336.622H208.884L207.324 340.126H204.084L211.74 323.014H214.788L222.468 340.126H219.036ZM210.108 333.838H216.252L213.18 326.95L210.108 333.838ZM359.61 353.774C363.45 353.774 365.874 356.15 365.874 360.086V365.126C365.874 369.158 363.402 371.438 359.61 371.438C355.818 371.438 353.346 369.158 353.346 365.126V360.086C353.346 356.15 355.77 353.774 359.61 353.774ZM359.61 368.558C361.65 368.558 362.706 367.094 362.706 365.078V360.134C362.706 358.118 361.65 356.654 359.61 356.654C357.522 356.654 356.514 358.118 356.514 360.134V365.078C356.514 367.094 357.522 368.558 359.61 368.558ZM384.001 366.206H380.545V371.126H377.449V366.206H368.905V364.262L376.945 354.086H380.545V363.494H384.001V366.206ZM372.577 363.494H377.449V357.206L372.577 363.494ZM386.764 365.39V362.558H394.756V365.39H386.764Z" fill="white"/>
<path d="M15.552 371.126L13.992 367.622H5.4L3.84 371.126H0.6L8.256 354.014H11.304L18.984 371.126H15.552ZM6.624 364.838H12.768L9.696 357.95L6.624 364.838ZM21.9458 371.126V354.086H31.4738C35.2178 354.086 37.3058 355.814 37.3058 359.174C37.3058 361.478 36.1298 363.11 33.9458 363.782L37.9538 371.126H34.5458L30.6818 364.118H25.1618V371.126H21.9458ZM31.2098 356.942H25.1618V361.31H31.2098C33.0578 361.31 33.9938 360.59 33.9938 359.174C33.9938 357.614 33.0578 356.942 31.2098 356.942ZM39.7708 356.966V354.086H56.5228V356.966H49.7548V371.126H46.5388V356.966H39.7708ZM59.7739 371.126V354.086H73.5739V356.87H62.9899V360.758H69.3019V363.566H62.9899V368.27H74.5339V371.126H59.7739ZM91.5728 368.222V371.126H77.8208V354.086H81.0368V368.222H91.5728ZM116.913 361.31V368.918C115.761 369.95 113.313 371.438 109.401 371.438C103.737 371.438 100.065 367.814 100.065 362.558C100.065 357.47 103.713 353.774 108.825 353.774C113.841 353.774 115.929 356.63 116.505 358.454H113.097C112.593 357.83 111.345 356.63 108.825 356.63C105.465 356.63 103.353 359.198 103.353 362.558C103.353 366.11 105.681 368.582 109.425 368.582C111.633 368.582 113.121 368.006 113.817 367.526V364.046H107.817V361.31H116.913ZM121.18 371.126V354.086H130.708C134.452 354.086 136.54 355.814 136.54 359.174C136.54 361.478 135.364 363.11 133.18 363.782L137.188 371.126H133.78L129.916 364.118H124.396V371.126H121.18ZM130.444 356.942H124.396V361.31H130.444C132.292 361.31 133.228 360.59 133.228 359.174C133.228 357.614 132.292 356.942 130.444 356.942ZM153.786 371.126L152.226 367.622H143.634L142.074 371.126H138.834L146.49 354.014H149.538L157.218 371.126H153.786ZM144.858 364.838H151.002L147.93 357.95L144.858 364.838ZM176.164 354.086V371.198H173.644L163.3 358.142V371.126H160.18V354.086H163.924L173.068 365.774V354.086H176.164ZM180.875 371.126V354.086H187.763C193.211 354.086 196.883 357.23 196.883 362.606C196.883 367.91 193.235 371.126 187.763 371.126H180.875ZM187.715 356.918H184.091V368.294H187.715C191.267 368.294 193.595 366.134 193.595 362.606C193.595 358.982 191.267 356.918 187.715 356.918ZM220.091 371.126L218.531 367.622H209.939L208.379 371.126H205.139L212.795 354.014H215.843L223.523 371.126H220.091ZM211.163 364.838H217.307L214.235 357.95L211.163 364.838ZM226.485 371.126V354.086H235.893C239.733 354.086 241.845 355.91 241.845 359.294C241.845 362.582 239.733 364.598 235.893 364.598H229.701V371.126H226.485ZM235.725 356.966H229.701V361.718H235.725C237.621 361.718 238.533 360.782 238.533 359.342C238.533 357.806 237.645 356.966 235.725 356.966ZM245.446 371.126V354.086H254.854C258.694 354.086 260.806 355.91 260.806 359.294C260.806 362.582 258.694 364.598 254.854 364.598H248.662V371.126H245.446ZM254.686 356.966H248.662V361.718H254.686C256.582 361.718 257.494 360.782 257.494 359.342C257.494 357.806 256.606 356.966 254.686 356.966ZM264.407 371.126V354.086H278.207V356.87H267.623V360.758H273.935V363.566H267.623V368.27H279.167V371.126H264.407ZM280.755 356.966V354.086H297.507V356.966H290.739V371.126H287.523V356.966H280.755ZM300.782 371.126V354.086H304.022V371.126H300.782ZM307.286 356.966V354.086H324.038V356.966H317.27V371.126H314.054V356.966H307.286ZM334.696 371.414C329.584 371.414 325.768 367.718 325.768 362.606C325.768 357.494 329.632 353.798 334.696 353.798C339.76 353.798 343.624 357.494 343.624 362.606C343.624 367.694 339.76 371.414 334.696 371.414ZM334.696 368.486C338.08 368.486 340.336 365.87 340.336 362.606C340.336 359.366 338.08 356.726 334.696 356.726C331.312 356.726 329.08 359.366 329.08 362.606C329.08 365.894 331.288 368.486 334.696 368.486ZM399.032 371.126V354.086H412.832V356.87H402.248V360.758H408.56V363.566H402.248V368.27H413.792V371.126H399.032Z" fill="#59E9FF"/>
</svg>
