<svg width="638" height="341" viewBox="0 0 638 341" fill="none" xmlns="http://www.w3.org/2000/svg">
<path d="M14.928 25V17.872H5.568V25H2.352V7.96H5.568V14.992H14.928V7.96H18.168V25H14.928ZM30.8524 25.288C25.7404 25.288 21.9244 21.592 21.9244 16.48C21.9244 11.368 25.7884 7.672 30.8524 7.672C35.9164 7.672 39.7804 11.368 39.7804 16.48C39.7804 21.568 35.9164 25.288 30.8524 25.288ZM30.8524 22.36C34.2364 22.36 36.4924 19.744 36.4924 16.48C36.4924 13.24 34.2364 10.6 30.8524 10.6C27.4684 10.6 25.2364 13.24 25.2364 16.48C25.2364 19.768 27.4444 22.36 30.8524 22.36ZM43.5786 25V7.96H52.6986C56.4186 7.96 58.4106 9.688 58.4106 12.568C58.4106 14.44 57.1386 15.568 55.8426 16.024C57.4266 16.528 58.7946 17.896 58.7946 20.128C58.7946 23.104 56.7786 25 52.8426 25H43.5786ZM52.3386 10.696H46.7466V14.872H52.3386C54.1866 14.872 55.0986 14.176 55.0986 12.784C55.0986 11.344 54.1626 10.696 52.3386 10.696ZM52.4586 17.584H46.7466V22.264H52.4586C54.5466 22.264 55.5066 21.448 55.5066 19.912C55.5066 18.352 54.4986 17.584 52.4586 17.584ZM65.8493 13.888H71.7293C75.7613 13.888 77.9453 16 77.9453 19.48C77.9453 23.056 75.7613 25 71.7293 25H62.6333V7.96H65.8493V13.888ZM71.5613 16.768H65.8493V22.144H71.5613C73.6493 22.144 74.6333 21.184 74.6333 19.456C74.6333 17.824 73.6493 16.768 71.5613 16.768ZM80.3453 25V7.96H83.5853V25H80.3453ZM88.2973 25V7.96H91.5133V20.68L101.113 7.96H104.329V25H101.113V12.28L91.5133 25H88.2973ZM96.3133 4.36C97.3453 4.36 97.7533 3.64 97.7533 2.848V2.584H100.177V2.896C100.177 4.96 98.9053 6.616 96.3133 6.616C93.7213 6.616 92.4493 4.96 92.4493 2.896V2.584H94.8733V2.848C94.8733 3.616 95.2813 4.36 96.3133 4.36ZM199.858 15.184V22.792C198.706 23.824 196.258 25.312 192.346 25.312C186.682 25.312 183.01 21.688 183.01 16.432C183.01 11.344 186.658 7.648 191.77 7.648C196.786 7.648 198.874 10.504 199.45 12.328H196.042C195.538 11.704 194.29 10.504 191.77 10.504C188.41 10.504 186.298 13.072 186.298 16.432C186.298 19.984 188.626 22.456 192.37 22.456C194.578 22.456 196.066 21.88 196.762 21.4V17.92H190.762V15.184H199.858ZM204.125 25V7.96H213.653C217.397 7.96 219.485 9.688 219.485 13.048C219.485 15.352 218.309 16.984 216.125 17.656L220.133 25H216.725L212.861 17.992H207.341V25H204.125ZM213.389 10.816H207.341V15.184H213.389C215.237 15.184 216.173 14.464 216.173 13.048C216.173 11.488 215.237 10.816 213.389 10.816ZM236.732 25L235.172 21.496H226.58L225.02 25H221.78L229.436 7.888H232.484L240.164 25H236.732ZM227.804 18.712H233.948L230.876 11.824L227.804 18.712ZM259.109 7.96V25.072H256.589L246.245 12.016V25H243.125V7.96H246.869L256.013 19.648V7.96H259.109ZM263.821 25V7.96H270.709C276.157 7.96 279.829 11.104 279.829 16.48C279.829 21.784 276.181 25 270.709 25H263.821ZM270.661 10.792H267.037V22.168H270.661C274.213 22.168 276.541 20.008 276.541 16.48C276.541 12.856 274.213 10.792 270.661 10.792ZM289.86 25V7.96H293.1V25H289.86ZM313.813 7.96V25.072H311.293L300.949 12.016V25H297.829V7.96H301.573L310.717 19.648V7.96H313.813ZM334.892 7.96L327.596 25.048H324.38L316.868 7.96H320.564L326.06 21.016L331.58 7.96H334.892ZM337.93 25V7.96H351.73V10.744H341.146V14.632H347.458V17.44H341.146V22.144H352.69V25H337.93ZM355.977 25V7.96H365.505C369.249 7.96 371.337 9.688 371.337 13.048C371.337 15.352 370.161 16.984 367.977 17.656L371.985 25H368.577L364.713 17.992H359.193V25H355.977ZM365.241 10.816H359.193V15.184H365.241C367.089 15.184 368.025 14.464 368.025 13.048C368.025 11.488 367.089 10.816 365.241 10.816ZM373.802 10.84V7.96H390.554V10.84H383.786V25H380.57V10.84H373.802ZM393.805 25V7.96H407.605V10.744H397.021V14.632H403.333V17.44H397.021V22.144H408.565V25H393.805ZM411.852 25V7.96H421.38C425.124 7.96 427.212 9.688 427.212 13.048C427.212 15.352 426.036 16.984 423.852 17.656L427.86 25H424.452L420.588 17.992H415.068V25H411.852ZM421.116 10.816H415.068V15.184H421.116C422.964 15.184 423.9 14.464 423.9 13.048C423.9 11.488 422.964 10.816 421.116 10.816Z" fill="#59E9FF"/>
<path d="M127.083 22.192V25H114.483V22.936L120.531 17.224C122.091 15.712 122.955 14.68 122.955 13.144C122.955 11.608 122.019 10.528 120.315 10.528C118.659 10.528 117.651 11.704 117.651 13.36V14.368H114.531V13.288C114.531 10.12 116.643 7.672 120.315 7.672C124.011 7.672 126.171 9.904 126.171 13.072C126.171 15.76 124.587 17.344 122.475 19.336L119.451 22.192H127.083ZM136.344 7.648C140.184 7.648 142.608 10.024 142.608 13.96V19C142.608 23.032 140.136 25.312 136.344 25.312C132.552 25.312 130.08 23.032 130.08 19V13.96C130.08 10.024 132.504 7.648 136.344 7.648ZM136.344 22.432C138.384 22.432 139.44 20.968 139.44 18.952V14.008C139.44 11.992 138.384 10.528 136.344 10.528C134.256 10.528 133.248 11.992 133.248 14.008V18.952C133.248 20.968 134.256 22.432 136.344 22.432ZM158.888 22.192V25H146.288V22.936L152.336 17.224C153.896 15.712 154.76 14.68 154.76 13.144C154.76 11.608 153.824 10.528 152.12 10.528C150.464 10.528 149.456 11.704 149.456 13.36V14.368H146.336V13.288C146.336 10.12 148.448 7.672 152.12 7.672C155.816 7.672 157.976 9.904 157.976 13.072C157.976 15.76 156.392 17.344 154.28 19.336L151.256 22.192H158.888ZM173.861 20.2C173.861 23.248 171.509 25.288 167.453 25.288C163.085 25.288 161.237 22.552 161.045 20.248H164.237C164.429 21.232 165.389 22.456 167.453 22.456C169.469 22.456 170.645 21.544 170.645 20.008C170.645 18.472 169.637 17.632 167.885 17.632H164.669V14.848H167.789C169.253 14.848 170.141 14.104 170.141 12.688C170.141 11.272 169.061 10.456 167.357 10.456C165.533 10.456 164.741 11.512 164.549 12.544H161.405C161.477 10.264 163.373 7.672 167.333 7.672C171.173 7.672 173.333 9.568 173.333 12.472C173.333 14.464 172.013 15.592 171.005 15.976C172.277 16.36 173.861 17.584 173.861 20.2Z" fill="white"/>
<path d="M51.255 134V110.115H21.76V134H7.31V73.65H21.76V97.365H51.255V73.65H65.62V134H51.255ZM80.3569 134V73.65H130.847V85.55H94.8069V96.43H116.312V108.585H94.8069V121.505H134.162V134H80.3569ZM180.388 96.77H199.938C214.218 96.77 222.378 103.23 222.378 115.045C222.378 127.54 214.218 134 199.938 134H165.938V73.65H217.193V86.23H180.388V96.77ZM199.088 108.5H180.388V121.42H199.088C204.783 121.42 207.588 119.295 207.588 114.96C207.588 110.965 204.868 108.5 199.088 108.5ZM263.325 135.02C245.22 135.02 231.28 122.185 231.28 103.825C231.28 85.21 245.22 72.63 263.325 72.63C281.345 72.63 295.285 85.21 295.285 103.825C295.285 122.185 281.345 135.02 263.325 135.02ZM263.325 122.1C273.95 122.1 280.58 114.025 280.58 103.825C280.58 93.71 273.95 85.55 263.325 85.55C252.785 85.55 245.985 93.625 245.985 103.825C245.985 114.11 252.785 122.1 263.325 122.1ZM307.051 134V73.65H321.501V114.28L351.761 73.65H366.211V134H351.761V93.37L321.501 134H307.051ZM336.631 59.625C339.691 59.625 341.051 57.415 341.051 55.12V54.27H351.676V55.375C351.676 63.025 347.001 69.23 336.631 69.23C326.176 69.23 321.586 63.025 321.586 55.375V54.27H332.211V55.12C332.211 57.415 333.486 59.625 336.631 59.625ZM376.51 86.23V73.65H436.605V86.23H413.74V134H399.375V86.23H376.51ZM446.919 134V73.65H497.409V85.55H461.369V96.43H482.874V108.585H461.369V121.505H500.724V134H446.919ZM536.976 135.02C518.871 135.02 506.036 121.845 506.036 103.825C506.036 85.805 518.871 72.63 536.976 72.63C556.526 72.63 564.176 86.145 565.536 93.03H550.831C549.471 90.735 545.306 85.635 536.976 85.635C526.946 85.635 520.826 93.88 520.826 103.825C520.826 113.77 526.946 122.015 536.976 122.015C545.901 122.015 549.556 116.915 550.916 114.62H565.536C564.431 120.655 557.291 135.02 536.976 135.02ZM591.194 92.945H610.744C625.279 92.945 633.439 100.17 633.439 113.515C633.439 127.03 625.279 134 610.744 134H576.744V73.65H591.194V92.945ZM609.299 105.61H591.194V121.42H609.299C615.504 121.42 618.564 118.785 618.564 113.515C618.564 108.67 615.674 105.61 609.299 105.61Z" fill="white"/>
<path d="M4.116 194.624V164.804H9.744V187.064L26.544 164.804H32.172V194.624H26.544V172.364L9.744 194.624H4.116ZM53.8548 195.128C45.1188 195.128 38.8188 188.45 38.8188 179.714C38.8188 170.978 45.1188 164.3 53.8548 164.3C63.0528 164.3 66.9588 170.474 67.7568 173.96H61.9608C61.0788 172.406 58.6428 169.466 53.8548 169.466C48.2688 169.466 44.6568 174.128 44.6568 179.714C44.6568 185.3 48.2688 189.962 53.8548 189.962C59.0208 189.962 61.2888 186.98 62.0448 185.426H67.7568C67.0848 188.576 63.4308 195.128 53.8548 195.128ZM74.1297 194.624V164.804H101.346V194.624H95.7177V169.844H79.7577V194.624H74.1297ZM132.667 194.624L129.937 188.492H114.901L112.171 194.624H106.501L119.899 164.678H125.233L138.673 194.624H132.667ZM117.043 183.62H127.795L122.419 171.566L117.043 183.62ZM161.972 194.624V182.99C161.09 183.158 160.124 183.284 159.158 183.41C157.478 183.62 155.168 183.83 152.816 183.83C144.92 183.83 140.762 180.722 140.762 172.532V164.804H146.39V172.448C146.39 177.278 148.574 178.916 153.068 178.916C155.42 178.916 157.646 178.706 159.284 178.496C160.25 178.37 161.132 178.244 161.972 178.034V164.804H167.6V194.624H161.972ZM175.848 194.624V164.804H181.476V178.202L196.848 164.804H204.408L187.734 179.294L205.122 194.624H197.268L181.476 180.974V194.624H175.848ZM232.417 194.624L229.687 188.492H214.651L211.921 194.624H206.251L219.649 164.678H224.983L238.423 194.624H232.417ZM216.793 183.62H227.545L222.169 171.566L216.793 183.62ZM237.64 169.844V164.804H266.956V169.844H255.112V194.624H249.484V169.844H237.64ZM278.273 175.178H288.563C295.619 175.178 299.441 178.874 299.441 184.964C299.441 191.222 295.619 194.624 288.563 194.624H272.645V164.804H278.273V175.178ZM288.269 180.218H278.273V189.626H288.269C291.923 189.626 293.645 187.946 293.645 184.922C293.645 182.066 291.923 180.218 288.269 180.218ZM330.054 195.128C321.318 195.128 315.018 188.45 315.018 179.714C315.018 170.978 321.318 164.3 330.054 164.3C339.252 164.3 343.158 170.474 343.956 173.96H338.16C337.278 172.406 334.842 169.466 330.054 169.466C324.468 169.466 320.856 174.128 320.856 179.714C320.856 185.3 324.468 189.962 330.054 189.962C335.22 189.962 337.488 186.98 338.244 185.426H343.956C343.284 188.576 339.63 195.128 330.054 195.128ZM350.329 194.624V164.804H366.289C372.799 164.804 376.285 167.828 376.285 172.868C376.285 176.144 374.059 178.118 371.791 178.916C374.563 179.798 376.957 182.192 376.957 186.098C376.957 191.306 373.429 194.624 366.541 194.624H350.329ZM365.659 169.592H355.873V176.9H365.659C368.893 176.9 370.489 175.682 370.489 173.246C370.489 170.726 368.851 169.592 365.659 169.592ZM365.869 181.646H355.873V189.836H365.869C369.523 189.836 371.203 188.408 371.203 185.72C371.203 182.99 369.439 181.646 365.869 181.646ZM397.908 195.128C388.962 195.128 382.284 188.66 382.284 179.714C382.284 170.768 389.046 164.3 397.908 164.3C406.77 164.3 413.532 170.768 413.532 179.714C413.532 188.618 406.77 195.128 397.908 195.128ZM397.908 190.004C403.83 190.004 407.778 185.426 407.778 179.714C407.778 174.044 403.83 169.424 397.908 169.424C391.986 169.424 388.08 174.044 388.08 179.714C388.08 185.468 391.944 190.004 397.908 190.004ZM420.179 194.624V164.804H425.807V187.064L442.607 164.804H448.235V194.624H442.607V172.364L425.807 194.624H420.179ZM467.305 194.624V164.804H483.265C489.775 164.804 493.261 167.828 493.261 172.868C493.261 176.144 491.035 178.118 488.767 178.916C491.539 179.798 493.933 182.192 493.933 186.098C493.933 191.306 490.405 194.624 483.517 194.624H467.305ZM482.635 169.592H472.849V176.9H482.635C485.869 176.9 487.465 175.682 487.465 173.246C487.465 170.726 485.827 169.592 482.635 169.592ZM482.845 181.646H472.849V189.836H482.845C486.499 189.836 488.179 188.408 488.179 185.72C488.179 182.99 486.415 181.646 482.845 181.646ZM500.651 194.624V164.804H524.801V169.676H506.279V176.48H517.325V181.394H506.279V189.626H526.481V194.624H500.651ZM532.233 164.804H537.861V189.584H550.251V164.804H555.879V189.584H568.227V164.804H573.855V189.584H578.349V201.386H573.267V194.624H532.233V164.804ZM583.175 194.624V164.804H588.803V187.064L605.603 164.804H611.231V194.624H605.603V172.364L588.803 194.624H583.175ZM619.851 184.754V164.804H625.185V184.754H619.851ZM619.305 194.624V187.946H625.731V194.624H619.305Z" fill="white"/>
<path fill-rule="evenodd" clip-rule="evenodd" d="M69.8416 292.155C71.2513 296.068 70.9075 296.571 73.8874 294.93L80.4881 291.289C81.9467 290.502 83.3637 289.704 84.8876 288.862C89.479 286.33 89.7897 286.767 88.5864 283.606L88.2571 282.719L76.5552 289.139L76.4781 289.003L87.5305 280.765L84.44 272.456C80.1053 261.888 82.5695 261.956 72.8714 259.428C70.5129 258.813 68.7857 258.643 67.4872 258.385C65.4784 257.981 64.3694 257.432 62.8581 258.9C61.3138 260.401 59.5739 261.643 57.5968 262.779C51.5359 266.258 45.5951 267.181 40.5243 263.11C39.1106 261.976 37.9884 260.732 37.1897 259.231C35.903 256.812 37.47 257.447 30.6834 259.013C19.7294 261.541 21.9873 261.891 12.4049 272.458L3.68967 282.487L13.1854 292.11L13.0072 292.242L2.35756 284.018C-0.000957251 286.733 0.624504 286.446 3.80488 288.862C6.46759 290.885 9.13029 292.907 11.793 294.93C12.4498 295.429 12.8988 295.728 13.2993 295.796C16.1567 293.573 19.0173 288.856 21.6448 286.87L20.0424 290.349C22.3311 289.485 25.1368 289.204 27.6708 289.41C23.733 290.264 20.764 291.502 19.1983 293.295L18.1034 297.13C28.827 283.929 58.1139 297.373 46.2156 322.069C48.9347 324.824 49.196 328.123 48.4961 332.005H50.5988C56.9795 332.005 55.6787 333.184 59.1761 320.355C60.6534 314.932 62.2055 309.505 63.7766 304.082C62.9044 302.086 62.5905 298.347 63.074 296.062C63.2754 298.41 63.7154 300.326 64.4801 301.654L65.3532 298.653C63.5031 293.628 64.31 285.595 65.3623 281.571C65.5074 285.392 65.9097 291.057 66.8055 293.66C67.3141 291.91 67.8201 290.161 68.3236 288.413C68.8837 289.093 69.4969 291.199 69.8416 292.155ZM33.9041 260.155C34.9369 264.117 37.9123 267.019 42.0769 268.165C47.1799 269.571 54.025 268.129 57.6644 266.542C51.3758 270.773 37.0351 272.175 32.8569 264.01C32.3243 262.971 31.9309 261.866 31.6867 260.724L33.9041 260.155Z" fill="#59E9FF"/>
<path d="M9.12807 339.602C8.96619 339.811 8.76455 339.987 8.53468 340.119C8.30481 340.251 8.05121 340.336 7.7884 340.37C7.52559 340.403 7.25871 340.385 7.00302 340.315C6.74734 340.246 6.50787 340.127 6.2983 339.964C5.87496 339.637 5.5989 339.155 5.53086 338.625C5.46281 338.094 5.60834 337.558 5.93545 337.135L22.4682 316.233C22.6303 316.023 22.832 315.847 23.062 315.716C23.2919 315.584 23.5456 315.499 23.8084 315.465C24.0713 315.431 24.3382 315.45 24.5939 315.519C24.8497 315.589 25.0892 315.708 25.2989 315.87C25.7222 316.197 25.9983 316.679 26.0663 317.21C26.1344 317.74 25.9889 318.276 25.6618 318.7L9.12807 339.602ZM17.8705 339.415C17.675 339.593 17.4464 339.73 17.1978 339.819C16.9491 339.909 16.6854 339.948 16.4215 339.936C16.1576 339.923 15.8988 339.858 15.6599 339.746C15.421 339.633 15.2065 339.475 15.0289 339.279C14.6703 338.884 14.4832 338.363 14.5088 337.83C14.5343 337.297 14.7703 336.796 15.165 336.437L30.2187 323.091C30.6136 322.732 31.1348 322.545 31.6676 322.57C32.2005 322.596 32.7014 322.832 33.0602 323.227C33.2379 323.422 33.3753 323.651 33.4646 323.899C33.5539 324.148 33.5934 324.412 33.5807 324.676C33.5681 324.939 33.5036 325.198 33.391 325.437C33.2783 325.676 33.1197 325.891 32.9242 326.068L17.8682 339.415H17.8705ZM6.80357 330.661C6.67628 330.893 6.50454 331.098 6.29819 331.263C6.09185 331.428 5.85493 331.551 5.601 331.625C5.34706 331.699 5.08109 331.721 4.8183 331.692C4.55551 331.663 4.30106 331.582 4.0695 331.455C3.83784 331.327 3.63356 331.156 3.46833 330.949C3.30311 330.743 3.18018 330.506 3.10659 330.252C3.033 329.998 3.01018 329.732 3.03944 329.47C3.0687 329.207 3.14947 328.953 3.27713 328.721L12.7425 311.956C12.8701 311.725 13.0421 311.521 13.2486 311.355C13.4552 311.19 13.6923 311.068 13.9464 310.994C14.2004 310.921 14.4665 310.898 14.7293 310.928C14.9921 310.957 15.2465 311.038 15.4779 311.166C15.9448 311.424 16.2904 311.857 16.4387 312.369C16.587 312.881 16.5259 313.431 16.2689 313.899L6.80311 330.664L6.80357 330.661ZM28.8126 336.028C28.6229 335.844 28.4714 335.624 28.3668 335.381C28.2621 335.138 28.2064 334.876 28.2027 334.612C28.1991 334.347 28.2475 334.085 28.3454 333.839C28.4433 333.593 28.5887 333.369 28.7732 333.179C29.1458 332.796 29.6552 332.577 30.1896 332.569C30.7239 332.562 31.2393 332.767 31.6225 333.139C32.3601 333.86 33.2861 334.357 34.2939 334.574C35.2995 334.792 36.3461 334.721 37.3133 334.371C38.2821 334.023 39.1328 333.408 39.7671 332.598C40.4004 331.785 40.7914 330.81 40.8951 329.786C41.0022 328.76 40.8178 327.725 40.363 326.8C39.9069 325.877 39.1994 325.101 38.322 324.562C38.0896 324.42 37.8887 324.231 37.7315 324.008C37.5744 323.785 37.4643 323.533 37.4081 323.266C37.2741 322.937 37.2296 322.579 37.2789 322.228C37.3282 321.876 37.4696 321.544 37.6888 321.265C38.6826 320.006 39.5067 318.209 40.0419 316.297C40.5771 314.385 40.8044 312.429 40.6089 310.841C40.4089 309.219 39.7984 307.477 38.9053 305.881C38.0653 304.381 36.984 303.033 35.7721 302.065C34.5302 301.137 32.9528 300.432 31.2886 299.996C29.5197 299.534 27.6806 299.383 26.0595 299.599C24.4721 299.811 22.6347 300.526 20.9234 301.525C19.2121 302.524 17.6773 303.776 16.7094 305.055C15.9655 306.033 14.2388 306.335 13.2927 305.429C12.5496 304.716 11.6206 304.227 10.6121 304.017C9.60209 303.811 8.55428 303.894 7.58914 304.256C6.62364 304.615 5.77909 305.239 5.1526 306.057C4.52859 306.876 4.14844 307.854 4.05589 308.879C3.96116 309.903 4.15703 310.933 4.62103 311.851C5.08537 312.772 5.80028 313.542 6.68337 314.074C7.14047 314.35 7.46894 314.797 7.59652 315.316C7.72411 315.835 7.64037 316.383 7.36372 316.84C7.08703 317.298 6.64011 317.626 6.12125 317.754C5.60239 317.881 5.0541 317.797 4.59699 317.521C3.06704 316.6 1.82818 315.265 1.02292 313.671C0.215409 312.076 -0.124981 310.285 0.0409643 308.504C0.208584 306.726 0.874328 305.03 1.9618 303.612C3.04661 302.193 4.5097 301.108 6.1831 300.483C7.85725 299.86 9.67301 299.722 11.4222 300.084C12.5479 300.316 13.6224 300.749 14.5939 301.363C15.7913 300.124 17.2913 298.979 18.8919 298.045C21.0268 296.8 23.3998 295.897 25.5361 295.612C27.6724 295.327 30.0518 295.515 32.306 296.104C37.0021 297.328 40.0469 299.681 42.4168 303.916C43.5548 305.949 44.3371 308.205 44.6007 310.343C44.8642 312.481 44.5889 315.006 43.9203 317.386C43.4373 319.112 42.7383 320.796 41.8816 322.236C42.7419 323.029 43.4484 323.975 43.9657 325.025C44.758 326.627 45.0824 328.419 44.9014 330.196C44.7185 331.973 44.0376 333.663 42.937 335.071C41.839 336.481 40.3656 337.554 38.6858 338.165C37.0045 338.774 35.1855 338.896 33.4376 338.518C31.6922 338.141 30.0887 337.279 28.8113 336.031L28.8126 336.028Z" fill="#FEFEFE"/>
<path d="M113.797 286.624V266.034H131.69V270.326H118.727V286.624H113.797ZM135.065 286.624V266.034H139.995V279.896L150.319 266.034H155.249V286.624H150.319V272.762L139.995 286.624H135.065ZM160.242 286.624V266.034H179.846V286.624H174.916V270.355H165.172V286.624H160.242ZM194.8 286.972C188.623 286.972 183.867 282.593 183.867 276.329C183.867 269.978 188.623 265.686 194.8 265.686C200.948 265.686 205.704 269.978 205.704 276.329C205.704 282.593 200.948 286.972 194.8 286.972ZM194.8 282.564C198.425 282.564 200.687 279.809 200.687 276.329C200.687 272.878 198.425 270.094 194.8 270.094C191.204 270.094 188.884 272.849 188.884 276.329C188.884 279.838 191.204 282.564 194.8 282.564ZM224.561 286.624L223.024 283.057H213.222L211.685 286.624H206.726L215.745 266.005H220.791L229.781 286.624H224.561ZM214.991 278.939H221.255L218.123 271.66L214.991 278.939ZM240.078 270.355L239.324 278.069C238.715 283.956 237.352 286.885 231.784 286.885H231.233V281.955H231.697C233.814 281.955 234.423 280.795 234.742 277.692L235.902 266.034H252.432V286.624H247.502V270.355H240.078ZM264.717 270.355L263.963 278.069C263.354 283.956 261.991 286.885 256.423 286.885H255.872V281.955H256.336C258.453 281.955 259.062 280.795 259.381 277.692L260.541 266.034H277.071V286.624H272.141V270.355H264.717ZM282.048 286.624V266.034H299.274V270.094H286.978V273.806H294.315V277.953H286.978V282.361H300.405V286.624H282.048ZM303.939 286.624V266.034H315.974C320.643 266.034 323.369 268.354 323.369 272.675C323.369 276.967 320.643 279.374 315.974 279.374H308.84V286.624H303.939ZM315.51 270.326H308.84V275.082H315.51C317.395 275.082 318.323 274.183 318.323 272.704C318.323 271.109 317.395 270.326 315.51 270.326ZM327.19 286.624V266.034H345.083V270.326H332.12V286.624H327.19ZM348.459 286.624V266.034H365.685V270.094H353.389V273.806H360.726V277.953H353.389V282.361H366.816V286.624H348.459ZM385.344 286.624V278.475H375.281V286.624H370.351V266.034H375.281V274.125H385.344V266.034H390.245V286.624H385.344ZM410.265 286.624V278.475H400.202V286.624H395.272V266.034H400.202V274.125H410.265V266.034H415.166V286.624H410.265ZM436.057 286.624L434.52 283.057H424.718L423.181 286.624H418.222L427.241 266.005H432.287L441.277 286.624H436.057ZM426.487 278.939H432.751L429.619 271.66L426.487 278.939ZM448.414 286.624H443.165L447.95 278.446C445.195 277.634 443.629 275.633 443.629 272.646C443.629 268.267 446.384 266.034 450.995 266.034H463.03V286.624H458.1V279.084H452.764L448.414 286.624ZM451.517 274.937H458.1V270.268H451.517C449.632 270.268 448.704 270.993 448.704 272.617C448.704 274.154 449.632 274.937 451.517 274.937Z" fill="#59E9FF"/>
<path d="M123.367 323.972C117.19 323.972 112.811 319.477 112.811 313.329C112.811 307.181 117.19 302.686 123.367 302.686C130.037 302.686 132.647 307.297 133.111 309.646H128.094C127.63 308.863 126.209 307.123 123.367 307.123C119.945 307.123 117.857 309.936 117.857 313.329C117.857 316.722 119.945 319.535 123.367 319.535C126.412 319.535 127.659 317.795 128.123 317.012H133.111C132.734 319.071 130.298 323.972 123.367 323.972ZM135.314 307.326V303.034H155.817V307.326H148.016V323.624H143.115V307.326H135.314ZM159.336 323.624V303.034H164.266V316.896L174.59 303.034H179.52V323.624H174.59V309.762L164.266 323.624H159.336ZM184.513 323.624V303.034H196.548C201.217 303.034 203.943 305.354 203.943 309.675C203.943 313.967 201.217 316.374 196.548 316.374H189.414V323.624H184.513ZM196.084 307.326H189.414V312.082H196.084C197.969 312.082 198.897 311.183 198.897 309.704C198.897 308.109 197.969 307.326 196.084 307.326ZM207.764 323.624V303.034H212.694V311.937L222.119 303.034H228.528L218.059 312.952L228.992 323.624H222.264L212.694 314.373V323.624H207.764ZM247.246 323.624L245.709 320.057H235.907L234.37 323.624H229.411L238.43 303.005H243.476L252.466 323.624H247.246ZM237.676 315.939H243.94L240.808 308.66L237.676 315.939Z" fill="white"/>
</svg>
