<svg width="586" height="329" viewBox="0 0 586 329" fill="none" xmlns="http://www.w3.org/2000/svg">
<path d="M17.472 43.504C8.526 43.504 2.184 36.994 2.184 28.09C2.184 19.186 8.526 12.676 17.472 12.676C27.132 12.676 30.912 19.354 31.584 22.756H24.318C23.646 21.622 21.588 19.102 17.472 19.102C12.516 19.102 9.492 23.176 9.492 28.09C9.492 33.004 12.516 37.078 17.472 37.078C21.882 37.078 23.688 34.558 24.36 33.424H31.584C31.038 36.406 27.51 43.504 17.472 43.504ZM47.5798 13.18L55.1398 32.416L62.6998 13.18H72.6958V43H65.8078V20.446L57.0718 43.042H52.2838L43.6738 20.614V43H37.1218V13.18H47.5798ZM94.3481 43.504C85.4021 43.504 78.5141 37.162 78.5141 28.09C78.5141 18.892 85.4021 12.676 94.3481 12.676C103.252 12.676 110.14 18.892 110.14 28.09C110.14 37.162 103.252 43.504 94.3481 43.504ZM94.3481 37.12C99.5981 37.12 102.874 33.13 102.874 28.09C102.874 23.092 99.5981 19.06 94.3481 19.06C89.1401 19.06 85.7801 23.05 85.7801 28.09C85.7801 33.172 89.1401 37.12 94.3481 37.12ZM112.745 19.396V13.18H142.439V19.396H131.141V43H124.043V19.396H112.745ZM147.536 43V13.18H164.966C171.728 13.18 175.676 16.54 175.676 22.798C175.676 29.014 171.728 32.5 164.966 32.5H154.634V43H147.536ZM164.294 19.396H154.634V26.284H164.294C167.024 26.284 168.368 24.982 168.368 22.84C168.368 20.53 167.024 19.396 164.294 19.396ZM181.21 43V13.18H188.35V33.256L203.302 13.18H210.442V43H203.302V22.924L188.35 43H181.21ZM215.531 19.396V13.18H245.225V19.396H233.927V43H226.829V19.396H215.531ZM250.321 43V13.18H275.269V19.06H257.461V24.436H268.087V30.442H257.461V36.826H276.907V43H250.321ZM17.472 98.504C8.526 98.504 2.184 91.994 2.184 83.09C2.184 74.186 8.526 67.676 17.472 67.676C27.132 67.676 30.912 74.354 31.584 77.756H24.318C23.646 76.622 21.588 74.102 17.472 74.102C12.516 74.102 9.492 78.176 9.492 83.09C9.492 88.004 12.516 92.078 17.472 92.078C21.882 92.078 23.688 89.558 24.36 88.424H31.584C31.038 91.406 27.51 98.504 17.472 98.504ZM69.4178 98V86.198H54.8438V98H47.7038V68.18H54.8438V79.898H69.4178V68.18H76.5158V98H69.4178ZM98.2035 98.504C89.2575 98.504 82.3695 92.162 82.3695 83.09C82.3695 73.892 89.2575 67.676 98.2035 67.676C107.108 67.676 113.996 73.892 113.996 83.09C113.996 92.162 107.108 98.504 98.2035 98.504ZM98.2035 92.12C103.454 92.12 106.73 88.13 106.73 83.09C106.73 78.092 103.454 74.06 98.2035 74.06C92.9955 74.06 89.6355 78.05 89.6355 83.09C89.6355 88.172 92.9955 92.12 98.2035 92.12ZM119.809 98V68.18H137.029C143.581 68.18 147.025 71.372 147.025 76.286C147.025 79.352 144.967 81.452 142.825 82.25C145.429 83.174 147.781 85.484 147.781 89.474C147.781 94.64 144.211 98 137.323 98H119.809ZM135.895 73.934H126.823V79.814H135.895C138.373 79.814 139.759 78.89 139.759 76.874C139.759 74.816 138.415 73.934 135.895 73.934ZM136.063 85.568H126.823V92.246H136.063C139.045 92.246 140.515 91.112 140.515 88.886C140.515 86.66 139.045 85.568 136.063 85.568ZM160.705 77.714H170.365C177.547 77.714 181.579 81.284 181.579 87.878C181.579 94.556 177.547 98 170.365 98H153.565V68.18H160.705V77.714ZM169.651 83.972H160.705V91.784H169.651C172.717 91.784 174.229 90.482 174.229 87.878C174.229 85.484 172.801 83.972 169.651 83.972ZM185.023 98V68.18H192.163V98H185.023ZM209.879 68.18L217.439 87.416L224.999 68.18H234.995V98H228.107V75.446L219.371 98.042H214.583L205.973 75.614V98H199.421V68.18H209.879ZM242.241 98V68.18H249.381V88.256L264.333 68.18H271.473V98H264.333V77.924L249.381 98H242.241ZM301.718 98.504C291.68 98.504 288.152 91.406 287.606 88.424H294.83C295.46 89.516 297.35 92.078 301.718 92.078C305.834 92.078 308.774 89.39 309.446 85.904H298.358V80.192H309.446C308.774 76.916 306.044 74.102 301.844 74.102C297.56 74.102 295.544 76.622 294.872 77.756H287.606C288.278 74.354 292.058 67.676 301.844 67.676C310.958 67.676 316.964 74.144 316.964 83.09C316.964 91.994 310.622 98.504 301.718 98.504ZM333.254 68.18L340.814 87.416L348.374 68.18H358.37V98H351.482V75.446L342.746 98.042H337.958L329.348 75.614V98H322.796V68.18H333.254ZM380.022 98.504C371.076 98.504 364.188 92.162 364.188 83.09C364.188 73.892 371.076 67.676 380.022 67.676C388.926 67.676 395.814 73.892 395.814 83.09C395.814 92.162 388.926 98.504 380.022 98.504ZM380.022 92.12C385.272 92.12 388.548 88.13 388.548 83.09C388.548 78.092 385.272 74.06 380.022 74.06C374.814 74.06 371.454 78.05 371.454 83.09C371.454 88.172 374.814 92.12 380.022 92.12ZM422.88 91.742V68.18H430.02V91.742H434.388V104.804H427.92V98H401.628V68.18H408.768V91.742H422.88ZM438.542 98V68.18H445.682V88.256L460.634 68.18H467.774V98H460.634V77.924L445.682 98H438.542ZM481.011 98H473.409L480.339 86.156C476.349 84.98 474.081 82.082 474.081 77.756C474.081 71.414 478.071 68.18 484.749 68.18H502.179V98H495.039V87.08H487.311L481.011 98ZM485.505 81.074H495.039V74.312H485.505C482.775 74.312 481.431 75.362 481.431 77.714C481.431 79.94 482.775 81.074 485.505 81.074ZM519.875 68.18L527.435 87.416L534.995 68.18H544.991V98H538.103V75.446L529.367 98.042H524.579L515.969 75.614V98H509.417V68.18H519.875ZM552.237 98V68.18H559.377V88.256L574.329 68.18H581.469V98H574.329V77.924L559.377 98H552.237Z" fill="white"/>
<g clip-path="url(#clip0_55_725)">
<path fill-rule="evenodd" clip-rule="evenodd" d="M251.672 254.987V220.804H263.827V211.698C252.378 211.698 240.926 211.698 229.477 211.698V220.804H241.632V254.987C244.979 254.987 248.329 254.987 251.676 254.987H251.672ZM398.438 211.006V212.381H401.55V220.701H403.057V212.381H406.176V211.006H398.438ZM407.151 211.006V220.698H408.611V213.343L411.081 220.613L411.109 220.698H412.436L414.943 213.455V220.698H416.403V211.006H414.506L412.207 217.665L412.18 217.771C412.047 218.163 411.941 218.504 411.845 218.781C411.777 218.59 411.712 218.361 411.627 218.112L409.29 211.091L409.253 211.006H407.155H407.151ZM364.606 215.137C363.774 216.116 363.187 217.242 362.877 218.477C362.573 219.637 362.416 220.851 362.416 222.1V226.934C362.416 229.854 363.3 232.027 365.064 233.399C366.694 234.675 369.062 235.517 372.306 235.992L380.19 237.401C382.193 237.646 383.07 238.11 383.455 238.451C384.045 238.987 384.168 240.12 384.168 240.983V245.291C384.168 245.65 384.12 246.021 384.032 246.383C383.956 246.666 383.844 246.898 383.677 247.103C383.51 247.297 383.261 247.471 382.906 247.628C382.664 247.731 382.2 247.864 381.36 247.864H362.004V252.38L362.485 252.773C362.989 253.179 363.607 253.51 364.32 253.755C364.944 253.967 365.592 254.144 366.268 254.277C366.926 254.4 367.598 254.489 368.277 254.533C368.936 254.571 369.516 254.591 370.003 254.591H381.882C384.762 254.591 387.095 253.892 388.818 252.514C390.619 251.06 391.537 248.611 391.537 245.233V239.744C391.537 236.78 390.657 234.508 388.917 232.993C387.252 231.56 384.854 230.646 381.589 230.216L374.036 228.862C373.425 228.79 372.821 228.681 372.221 228.534C371.692 228.411 371.218 228.23 370.788 227.992C370.437 227.794 370.177 227.562 369.983 227.262C369.812 227.002 369.724 226.651 369.724 226.221V221.684C369.724 220.715 369.945 219.954 370.406 219.357C370.751 218.893 371.699 218.637 373.064 218.637H389.66V214.155L389.224 213.773C388.698 213.305 388.064 212.937 387.337 212.684C386.693 212.473 386.037 212.302 385.355 212.193C384.707 212.091 384.049 212.012 383.377 211.971C382.715 211.934 382.142 211.913 381.65 211.913H373.476C371.313 211.913 369.499 212.203 368.09 212.77C366.623 213.353 365.449 214.144 364.603 215.13L364.606 215.137ZM324.832 214.155C323.556 215.257 322.56 216.676 321.884 218.364C321.216 220.016 320.881 221.994 320.881 224.229V242.214C320.881 246.755 322.205 250.183 324.808 252.408C327.35 254.588 330.819 255.69 335.121 255.69H340.033C344.329 255.69 347.805 254.588 350.35 252.408C352.953 250.18 354.27 246.755 354.27 242.214V224.229C354.27 221.987 353.928 220.009 353.256 218.364C352.581 216.666 351.588 215.253 350.316 214.155C349.057 213.077 347.525 212.261 345.751 211.753C344.035 211.248 342.114 210.992 340.033 210.992H335.121C333.04 210.992 331.116 211.248 329.403 211.753C327.633 212.265 326.098 213.073 324.835 214.155H324.832ZM329.983 219.364C330.959 218.18 332.487 217.6 334.647 217.6H340.501C342.657 217.6 344.192 218.184 345.164 219.364C346.208 220.626 346.72 222.277 346.72 224.413V242.279C346.72 244.408 346.208 246.062 345.164 247.325C344.189 248.508 342.657 249.085 340.501 249.085H334.647C332.484 249.085 330.955 248.508 329.983 247.325C328.932 246.062 328.428 244.411 328.428 242.279V224.413C328.428 222.274 328.932 220.63 329.983 219.364ZM269.33 211.698V254.987H277.883L277.798 225.607L288.032 248.017C289.468 248.017 290.864 248.068 292.344 248.068L304.011 222.499L303.926 255.038H312.479V211.75H301.221L290.198 234.763L279.957 211.698H269.33ZM205.948 211.347L189.672 254.99H198.337L201.974 245.227H218.298L221.934 254.99H230.599L214.323 211.347H205.948ZM205.354 236.152L210.137 223.315L214.92 236.152H205.358H205.354Z" fill="#59E9FF"/>
<path fill-rule="evenodd" clip-rule="evenodd" d="M243.059 160.983C243.059 145.164 236.915 139.003 221.116 139.003H191.777V196.449H223.047C237.635 196.449 243.055 190.271 243.055 173.606V160.983H243.059ZM455.38 192.011C456.308 191.898 457.014 191.403 457.014 190.291C457.014 189.06 456.281 188.507 454.786 188.507H452.388V194.774H453.357V192.038H454.435L456.107 194.774H457.151L455.38 192.014V192.011ZM454.517 187.081C457.001 187.081 458.949 189.029 458.949 191.618C458.949 194.272 457.001 196.176 454.517 196.176C451.996 196.176 450.048 194.272 450.048 191.618C450.048 189.025 451.996 187.081 454.517 187.081ZM459.992 191.618C459.992 188.5 457.465 186.218 454.517 186.218C451.532 186.218 449.004 188.504 449.004 191.618C449.004 194.767 451.532 197.063 454.517 197.063C457.465 197.063 459.992 194.767 459.992 191.618ZM456.042 190.22C456.042 190.919 455.66 191.246 454.49 191.246H453.357V189.298H454.647C455.749 189.298 456.042 189.623 456.042 190.22ZM277.256 147.044C267.656 147.044 264.234 149.189 264.234 159.134V176.348C264.234 186.539 267.656 188.865 277.256 188.865C277.784 188.869 278.313 188.865 278.835 188.865C288.258 188.828 291.621 186.453 291.621 176.348V159.134C291.621 149.193 288.2 147.044 278.6 147.044H277.256ZM277.256 197.916C268.536 197.916 262.303 196.602 258.745 194.01C254.133 191.031 251.731 185.222 251.731 177.147V159.056C251.731 151.124 254.085 145.457 258.724 142.203C262.518 139.446 268.932 137.996 277.256 137.996H278.6C286.924 137.996 293.337 139.446 297.131 142.203C301.771 145.454 304.125 151.124 304.125 159.056V177.147C304.125 185.222 301.723 191.031 297.111 194.01C293.552 196.602 287.32 197.916 278.6 197.916H277.256ZM406.978 139.003C409.294 143.397 425.632 175.373 425.632 175.373C425.632 175.373 425.639 193.57 425.639 196.452H439.036C439.046 193.58 439.042 175.455 439.042 175.455C439.042 175.455 456.011 143.427 458.413 138.999H446.558L432.776 164.978L419.457 138.999H406.978V139.003ZM358.384 139.006V196.452H385.618C393.652 196.452 396.999 194.815 398.555 193.706C401.216 191.85 404.661 187.746 404.661 181.217C404.661 173.493 402.093 165.759 389.784 166.056C399.582 165.121 401.704 160.14 401.704 152.952C401.704 146.624 399.128 143.407 396.31 141.595C393.939 140.053 391.148 139.01 385.277 139.01H358.384V139.006ZM370.84 188.053V147.276V147.238H384.179C388.327 147.238 390.913 150.67 390.913 155.357C390.913 162.569 387.566 162.75 378.014 163.108V169.764C386.55 169.73 393.39 169.198 393.39 178.399C393.39 183.011 390.555 188.104 383.172 188.104H370.843V188.057L370.84 188.053ZM314.076 139.003V196.449H350.797V186.897H326.538V139.003H314.076ZM230.692 159.335V174.987C230.692 185.044 225.534 187.582 221.212 187.582H204.236V147.439H221.212C225.534 147.439 230.692 149.978 230.692 159.335Z" fill="#FEFEFE"/>
<path fill-rule="evenodd" clip-rule="evenodd" d="M0.00378418 255.696H166.485V137.996H0.00378418V255.696ZM128.665 240.45C109.363 240.45 93.2502 220.882 93.2502 196.671C93.2502 173.165 109.363 153.232 128.665 153.232H147.305V240.45H128.665ZM73.791 196.671C73.791 220.885 57.6785 240.45 38.3831 240.45H19.8212V153.232H38.3831C57.6785 153.232 73.791 173.162 73.791 196.671Z" fill="#59E9FF"/>
</g>
<path d="M15.96 319.7L14.064 315.596H4.992L3.096 319.7H0.792L8.664 302.564H10.512L18.408 319.7H15.96ZM5.952 313.484H13.104L9.528 305.708L5.952 313.484ZM21.8353 319.7V302.66H30.8833C34.5553 302.66 36.4993 304.316 36.4993 307.484C36.4993 309.74 35.2753 311.3 33.0193 311.876L37.1473 319.7H34.6753L30.5953 312.116H24.1633V319.7H21.8353ZM30.8113 304.82H24.1633V309.98H30.8113C32.9953 309.98 34.0993 309.212 34.0993 307.484C34.0993 305.636 32.9953 304.82 30.8113 304.82ZM46.3838 319.7V304.82H39.3038V302.66H55.7918V304.82H48.7118V319.7H46.3838ZM59.3822 319.7V302.66H72.7262V304.82H61.6862V309.572H68.2862V311.732H61.6862V317.54H73.6862V319.7H59.3822ZM77.3588 319.7V302.66H79.6868V317.516H90.7028V319.7H77.3588ZM106.009 319.7V304.82H98.9288V302.66H115.417V304.82H108.337V319.7H106.009ZM124.911 319.772L117.279 302.66H119.919L126.063 316.748L132.207 302.66H134.583L127.095 319.772H124.911Z" fill="#59E9FF"/>
<path d="M157.804 319.7L155.908 315.596H146.836L144.94 319.7H142.636L150.508 302.564H152.356L160.252 319.7H157.804ZM147.796 313.484H154.948L151.372 305.708L147.796 313.484ZM169.391 302.372C172.943 302.372 174.863 304.388 174.863 307.076C174.863 309.356 173.375 310.556 172.151 310.916C173.471 311.324 175.199 312.644 175.199 315.092C175.199 317.972 172.967 319.988 169.343 319.988H168.695C165.167 319.988 162.959 317.972 162.959 315.092C162.959 312.644 164.687 311.324 166.007 310.916C164.783 310.556 163.295 309.356 163.295 307.076C163.295 304.388 165.239 302.372 168.767 302.372H169.391ZM165.599 307.172C165.599 308.828 166.871 309.908 168.767 309.908H169.391C171.287 309.908 172.559 308.828 172.559 307.172C172.559 305.516 171.287 304.436 169.391 304.436H168.767C166.871 304.436 165.599 305.516 165.599 307.172ZM165.311 314.948C165.311 316.748 166.703 317.924 168.719 317.924H169.439C171.479 317.924 172.847 316.748 172.847 314.948C172.847 313.148 171.479 311.972 169.439 311.972H168.719C166.703 311.972 165.311 313.148 165.311 314.948ZM181.773 312.164H179.853V302.66H190.317V304.772H182.061V309.716C182.733 309.044 183.861 308.468 185.517 308.468C188.445 308.468 190.965 310.484 190.965 314.084V314.348C190.965 317.66 188.589 319.988 184.989 319.988C181.077 319.988 179.205 317.588 179.013 314.996H181.293C181.461 316.124 182.349 317.876 184.989 317.876C187.173 317.876 188.661 316.412 188.661 314.348V314.108C188.661 311.948 187.173 310.58 184.989 310.58C182.853 310.58 182.037 311.78 181.773 312.164ZM195.39 319.7V302.66H197.718V317.516H208.734V319.7H195.39ZM224.351 312.308V302.66H226.655V312.5C226.655 316.628 224.039 319.988 219.143 319.988C214.055 319.988 211.607 316.676 211.607 312.5V302.66H213.935V312.308C213.935 315.548 215.783 317.756 219.143 317.756C222.455 317.756 224.351 315.548 224.351 312.308ZM230.947 308.18C230.947 304.916 233.227 302.372 237.091 302.372C240.979 302.372 243.187 304.82 243.187 308.18C243.187 310.772 241.939 312.524 240.427 314.492L236.443 319.7H233.683L238.651 313.388C238.075 313.7 237.331 313.892 236.395 313.892C233.227 313.892 230.947 311.684 230.947 308.18ZM233.275 308.18C233.275 310.316 234.595 311.924 237.091 311.924C239.395 311.924 240.859 310.316 240.859 308.18C240.859 306.164 239.491 304.484 237.091 304.484C234.595 304.484 233.275 306.164 233.275 308.18ZM249.461 312.164H247.541V302.66H258.005V304.772H249.749V309.716C250.421 309.044 251.549 308.468 253.205 308.468C256.133 308.468 258.653 310.484 258.653 314.084V314.348C258.653 317.66 256.277 319.988 252.677 319.988C248.765 319.988 246.893 317.588 246.701 314.996H248.981C249.149 316.124 250.037 317.876 252.677 317.876C254.861 317.876 256.349 316.412 256.349 314.348V314.108C256.349 311.948 254.861 310.58 252.677 310.58C250.541 310.58 249.725 311.78 249.461 312.164ZM268.742 302.372C272.342 302.372 274.694 304.676 274.694 308.588V313.772C274.694 317.852 272.27 319.988 268.742 319.988C265.214 319.988 262.79 317.852 262.79 313.772V308.588C262.79 304.676 265.142 302.372 268.742 302.372ZM268.742 317.876C271.166 317.876 272.39 316.124 272.39 313.748V308.612C272.39 306.236 271.166 304.484 268.742 304.484C266.318 304.484 265.094 306.236 265.094 308.612V313.748C265.094 316.124 266.318 317.876 268.742 317.876ZM285.359 302.372C288.959 302.372 291.311 304.676 291.311 308.588V313.772C291.311 317.852 288.887 319.988 285.359 319.988C281.831 319.988 279.407 317.852 279.407 313.772V308.588C279.407 304.676 281.759 302.372 285.359 302.372ZM285.359 317.876C287.783 317.876 289.007 316.124 289.007 313.748V308.612C289.007 306.236 287.783 304.484 285.359 304.484C282.935 304.484 281.711 306.236 281.711 308.612V313.748C281.711 316.124 282.935 317.876 285.359 317.876Z" fill="white"/>
<defs>
<clipPath id="clip0_55_725">
<rect width="460" height="117.7" fill="white" transform="translate(0 138)"/>
</clipPath>
</defs>
</svg>
